<svg width="100%" height="100%" viewBox="0 0 106 119" fill="none" xmlns="http://www.w3.org/2000/svg" preserveAspectRatio="none">
<path d="M0.646561 29.8217L0.646556 89.0141L53.2906 118.589L105.935 89.0141L105.935 29.8217L53.2906 0.24686L0.646561 29.8217ZM2.95778 32.4752L52.0922 60.0813L52.0922 115.336L2.95777 87.6873L2.95778 32.4752ZM54.4462 60.0813L103.581 32.4753L103.581 87.6873L54.4462 115.293L54.4462 60.0813ZM53.2906 2.85768L102.425 30.4637L53.2906 58.0697L4.15617 30.4637L53.2906 2.85768Z" fill="url(#paint0_linear_77_7954)"/>
<path d="M53.2906 2.85768L102.425 30.4637L53.2906 58.0697L4.15617 30.4637L53.2906 2.85768Z" fill="url(#paint1_linear_77_7954)"/>
<path d="M54.4462 60.0813L103.581 32.4753L103.581 87.6873L54.4462 115.293L54.4462 60.0813Z" fill="url(#paint2_linear_77_7954)"/>
<path d="M2.95778 32.4752L52.0922 60.0813L52.0922 115.336L2.95777 87.6873L2.95778 32.4752Z" fill="url(#paint3_linear_77_7954)"/>
<path d="M0.646561 29.8217L0.646556 89.0141L53.2906 118.589L105.935 89.0141L105.935 29.8217L53.2906 0.24686L0.646561 29.8217ZM2.95777 32.4752L52.0922 60.0813L52.0922 115.336L2.95777 87.6873L2.95777 32.4752ZM54.4462 60.0813L103.581 32.4753L103.581 87.6873L54.4462 115.293L54.4462 60.0813ZM53.2906 2.85768L102.425 30.4637L53.2906 58.0697L4.15617 30.4637L53.2906 2.85768Z" fill="url(#paint4_linear_77_7954)"/>
<defs>
<linearGradient id="paint0_linear_77_7954" x1="114.769" y1="118.645" x2="0.389345" y2="-16.9499" gradientUnits="userSpaceOnUse">
<stop stop-color="#FF4A7A"/>
<stop offset="1" stop-color="#BB44CC"/>
</linearGradient>
<linearGradient id="paint1_linear_77_7954" x1="114.769" y1="118.645" x2="0.389345" y2="-16.9499" gradientUnits="userSpaceOnUse">
<stop stop-color="#FF4A7A"/>
<stop offset="1" stop-color="#BB44CC"/>
</linearGradient>
<linearGradient id="paint2_linear_77_7954" x1="114.769" y1="118.645" x2="0.389345" y2="-16.9499" gradientUnits="userSpaceOnUse">
<stop stop-color="#FF4A7A"/>
<stop offset="1" stop-color="#BB44CC"/>
</linearGradient>
<linearGradient id="paint3_linear_77_7954" x1="114.769" y1="118.645" x2="0.389345" y2="-16.9499" gradientUnits="userSpaceOnUse">
<stop stop-color="#FF4A7A"/>
<stop offset="1" stop-color="#BB44CC"/>
</linearGradient>
<linearGradient id="paint4_linear_77_7954" x1="114.769" y1="118.645" x2="0.389345" y2="-16.9499" gradientUnits="userSpaceOnUse">
<stop stop-color="#060606"/>
<stop offset="1" stop-color="#151515"/>
</linearGradient>
</defs>
</svg>
