<svg width="149" height="52" viewBox="0 0 149 52" fill="none" xmlns="http://www.w3.org/2000/svg">
<path d="M35.88 33.96C35.88 37.44 34.6 40.32 32.04 42.6C29.52 44.88 26.06 46.24 21.66 46.68V51.06H15.36V46.62C11.24 46.1 7.82 44.72 5.1 42.48C2.38 40.2 0.68 37.08 0 33.12L9.72 32.28C10.2 35.56 12.08 37.68 15.36 38.64V29.04L14.04 28.86C10.2 28.3 7.2 27 5.04 24.96C2.88 22.88 1.8 20.24 1.8 17.04C1.8 13.56 3.04 10.66 5.52 8.34C8.04 6.02 11.32 4.64 15.36 4.2V0H21.66V4.38C25.5 4.98 28.56 6.48 30.84 8.88C33.12 11.24 34.4 14.42 34.68 18.42L25.86 19.14C25.38 15.78 23.98 13.56 21.66 12.48V21.6L24 21.96C27.64 22.48 30.52 23.76 32.64 25.8C34.8 27.8 35.88 30.52 35.88 33.96ZM11.16 17.04C11.16 18.96 12.56 20.18 15.36 20.7V12.06C12.56 12.78 11.16 14.44 11.16 17.04ZM21.66 38.76C23.18 38.44 24.36 37.86 25.2 37.02C26.04 36.18 26.46 35.18 26.46 34.02C26.46 32.9 26.08 32.02 25.32 31.38C24.56 30.7 23.34 30.22 21.66 29.94V38.76Z" fill="white"/>
<path d="M41.2209 46.38V38.34H52.6209V19.8C51.8609 20.72 50.4209 21.46 48.3009 22.02C46.1809 22.54 43.8209 22.8 41.2209 22.8V14.76C45.1809 14.64 48.1809 13.76 50.2209 12.12C52.3009 10.44 53.5209 7.96 53.8809 4.68H62.2809V38.34H71.4609V46.38H41.2209Z" fill="white"/>
<path d="M75.4088 46.38V38.34L91.3088 28.92C94.4288 27.08 96.6288 25.44 97.9088 24C99.2288 22.56 99.8887 20.96 99.8887 19.2C99.8887 17.24 99.2887 15.68 98.0888 14.52C96.9288 13.36 95.3887 12.78 93.4688 12.78C91.5088 12.78 89.8088 13.42 88.3688 14.7C86.9287 15.98 86.1087 17.76 85.9088 20.04L76.4887 19.26C76.8087 14.94 78.5487 11.38 81.7087 8.58C84.8687 5.78 88.7887 4.38 93.4688 4.38C98.4688 4.38 102.389 5.72 105.229 8.4C108.109 11.08 109.549 14.68 109.549 19.2C109.549 22.36 108.569 25.1 106.609 27.42C104.649 29.74 101.869 31.96 98.2688 34.08L91.0687 38.34H109.369V46.38H75.4088Z" fill="white"/>
<path d="M144.029 43.14C141.069 45.5 136.769 46.68 131.129 46.68C125.489 46.68 121.189 45.5 118.229 43.14C115.269 40.78 113.789 37.92 113.789 34.56C113.789 32.04 114.489 29.96 115.889 28.32C117.329 26.64 119.089 25.38 121.169 24.54C119.609 23.9 118.249 22.88 117.089 21.48C115.969 20.04 115.409 18.28 115.409 16.2C115.409 12.84 116.829 10.04 119.669 7.8C122.549 5.52 126.369 4.38 131.129 4.38C135.889 4.38 139.689 5.52 142.529 7.8C145.409 10.04 146.849 12.84 146.849 16.2C146.849 18.28 146.269 20.04 145.109 21.48C143.989 22.88 142.649 23.9 141.089 24.54C143.169 25.38 144.909 26.64 146.309 28.32C147.749 29.96 148.469 32.04 148.469 34.56C148.469 37.92 146.989 40.78 144.029 43.14ZM126.509 20.04C127.549 20.96 129.089 21.42 131.129 21.42C133.169 21.42 134.689 20.96 135.689 20.04C136.729 19.12 137.249 18.02 137.249 16.74C137.249 15.5 136.729 14.44 135.689 13.56C134.689 12.64 133.169 12.18 131.129 12.18C129.089 12.18 127.549 12.64 126.509 13.56C125.509 14.44 125.009 15.5 125.009 16.74C125.009 18.02 125.509 19.12 126.509 20.04ZM125.369 37.38C126.689 38.38 128.609 38.88 131.129 38.88C133.649 38.88 135.569 38.38 136.889 37.38C138.209 36.38 138.869 35.16 138.869 33.72C138.869 32.24 138.209 31.02 136.889 30.06C135.609 29.1 133.689 28.62 131.129 28.62C128.569 28.62 126.629 29.1 125.309 30.06C124.029 31.02 123.389 32.24 123.389 33.72C123.389 35.16 124.049 36.38 125.369 37.38Z" fill="white"/>
</svg>
