<svg width="117" height="40" viewBox="0 0 117 40" fill="none" xmlns="http://www.w3.org/2000/svg">
<path d="M28.1081 26.604C28.1081 29.3302 27.1054 31.5864 25.0999 33.3725C23.1257 35.1586 20.4152 36.224 16.9683 36.5687V40H12.0329V36.5217C8.80533 36.1144 6.12613 35.0333 3.9953 33.2785C1.86447 31.4924 0.532707 29.0482 0 25.9459L7.61457 25.2879C7.9906 27.8574 9.46338 29.5182 12.0329 30.2703V22.7497L10.9988 22.6087C7.9906 22.17 5.64042 21.1516 3.9483 19.5535C2.25617 17.924 1.41011 15.8559 1.41011 13.349C1.41011 10.6228 2.38151 8.35096 4.32432 6.53349C6.29847 4.71602 8.868 3.63494 12.0329 3.29025V0H16.9683V3.43126C19.9765 3.90129 22.3737 5.07638 24.1598 6.95652C25.9459 8.80533 26.9487 11.2965 27.168 14.4301L20.2585 14.9941C19.8825 12.3619 18.7857 10.6228 16.9683 9.77674V16.9213L18.8014 17.2033C21.653 17.6107 23.9091 18.6134 25.5699 20.2115C27.262 21.7783 28.1081 23.9091 28.1081 26.604ZM8.74266 13.349C8.74266 14.8531 9.8394 15.8089 12.0329 16.2162V9.44771C9.8394 10.0118 8.74266 11.3122 8.74266 13.349ZM16.9683 30.3643C18.159 30.1136 19.0834 29.6592 19.7415 29.0012C20.3995 28.3431 20.7286 27.5597 20.7286 26.651C20.7286 25.7736 20.4309 25.0842 19.8355 24.5828C19.2401 24.0501 18.2844 23.6741 16.9683 23.4548V30.3643Z" fill="white"/>
<path d="M32.2922 36.3337V30.0353H41.2228V15.5112C40.6274 16.2319 39.4994 16.8116 37.8386 17.2503C36.1778 17.6577 34.329 17.8613 32.2922 17.8613V11.5629C35.3944 11.4689 37.7446 10.7795 39.3427 9.49471C40.9721 8.17861 41.9279 6.2358 42.2099 3.66627H48.7904V30.0353H55.9819V36.3337H32.2922Z" fill="white"/>
<path d="M59.0746 36.3337V30.0353L71.5305 22.6557C73.9747 21.2143 75.6982 19.9295 76.7009 18.8014C77.735 17.6733 78.252 16.4199 78.252 15.0411C78.252 13.5057 77.782 12.2836 76.8419 11.3749C75.9332 10.4661 74.7268 10.0118 73.2227 10.0118C71.6872 10.0118 70.3555 10.5131 69.2274 11.5159C68.0993 12.5186 67.4569 13.913 67.3002 15.6992L59.9207 15.0881C60.1714 11.7039 61.5345 8.915 64.01 6.7215C66.4855 4.52801 69.5564 3.43126 73.2227 3.43126C77.1396 3.43126 80.2105 4.481 82.4354 6.58049C84.6915 8.67998 85.8196 11.5002 85.8196 15.0411C85.8196 17.5166 85.0519 19.6631 83.5164 21.4806C81.981 23.2981 79.8032 25.0372 76.983 26.698L71.3425 30.0353H85.6786V36.3337H59.0746Z" fill="white"/>
<path d="M112.831 33.7955C110.512 35.6443 107.144 36.5687 102.725 36.5687C98.3071 36.5687 94.9385 35.6443 92.6197 33.7955C90.3009 31.9467 89.1414 29.7062 89.1414 27.074C89.1414 25.0999 89.6898 23.4704 90.7866 22.1857C91.9146 20.8696 93.2934 19.8825 94.9229 19.2244C93.7008 18.7231 92.6354 17.924 91.7266 16.8273C90.8492 15.6992 90.4105 14.3204 90.4105 12.691C90.4105 10.0588 91.5229 7.86526 93.7478 6.11046C96.004 4.32433 98.9965 3.43126 102.725 3.43126C106.454 3.43126 109.431 4.32433 111.656 6.11046C113.912 7.86526 115.04 10.0588 115.04 12.691C115.04 14.3204 114.586 15.6992 113.677 16.8273C112.8 17.924 111.75 18.7231 110.528 19.2244C112.158 19.8825 113.521 20.8696 114.617 22.1857C115.745 23.4704 116.309 25.0999 116.309 27.074C116.309 29.7062 115.15 31.9467 112.831 33.7955ZM99.1062 15.6992C99.9209 16.4199 101.127 16.7803 102.725 16.7803C104.324 16.7803 105.514 16.4199 106.298 15.6992C107.112 14.9785 107.52 14.1167 107.52 13.114C107.52 12.1426 107.112 11.3122 106.298 10.6228C105.514 9.90208 104.324 9.54171 102.725 9.54171C101.127 9.54171 99.9209 9.90208 99.1062 10.6228C98.3228 11.3122 97.9311 12.1426 97.9311 13.114C97.9311 14.1167 98.3228 14.9785 99.1062 15.6992ZM98.2131 29.2832C99.2472 30.0666 100.751 30.4583 102.725 30.4583C104.7 30.4583 106.204 30.0666 107.238 29.2832C108.272 28.4998 108.789 27.5441 108.789 26.416C108.789 25.2566 108.272 24.3008 107.238 23.5488C106.235 22.7967 104.731 22.4207 102.725 22.4207C100.72 22.4207 99.2002 22.7967 98.1661 23.5488C97.1634 24.3008 96.662 25.2566 96.662 26.416C96.662 27.5441 97.179 28.4998 98.2131 29.2832Z" fill="white"/>
</svg>
