<svg width="58" height="62" viewBox="0 0 58 62" fill="none" xmlns="http://www.w3.org/2000/svg">
<path d="M0 11.808V9.144H9.36V11.808H0Z" fill="white"/>
<path d="M18.4845 16.992C16.7405 16.992 15.2285 16.536 13.9485 15.624C12.6845 14.696 11.9405 13.368 11.7165 11.64L14.8125 11.328C14.9725 12.288 15.3885 13.032 16.0605 13.56C16.7325 14.088 17.5405 14.352 18.4845 14.352C19.5085 14.352 20.3245 14.088 20.9325 13.56C21.5405 13.016 21.8445 12.28 21.8445 11.352C21.8445 10.408 21.5325 9.672 20.9085 9.144C20.3005 8.616 19.5165 8.352 18.5565 8.352C17.2285 8.352 16.0365 8.856 14.9805 9.864L12.1965 8.472L13.4925 0.191999H23.7885V2.976H15.9165L15.1485 7.344C16.3005 6.448 17.7325 6 19.4445 6C20.9485 6 22.2365 6.472 23.3085 7.416C24.3965 8.344 24.9405 9.672 24.9405 11.4C24.9405 13.096 24.3405 14.456 23.1405 15.48C21.9405 16.488 20.3885 16.992 18.4845 16.992Z" fill="white"/>
<path d="M30.7474 8.928C29.5314 8.928 28.5554 8.512 27.8194 7.68C27.0994 6.848 26.7394 5.784 26.7394 4.488C26.7394 3.192 27.0994 2.12 27.8194 1.272C28.5554 0.424 29.5314 0 30.7474 0C31.9794 0 32.9474 0.424 33.6514 1.272C34.3714 2.104 34.7314 3.176 34.7314 4.488C34.7314 5.8 34.3714 6.872 33.6514 7.704C32.9474 8.52 31.9794 8.928 30.7474 8.928ZM30.6034 16.872L40.0834 0.191999H43.1314L33.6514 16.872H30.6034ZM29.6194 6.048C29.8754 6.448 30.2514 6.648 30.7474 6.648C31.2434 6.648 31.6114 6.448 31.8514 6.048C32.1074 5.632 32.2354 5.112 32.2354 4.488C32.2354 3.864 32.1074 3.344 31.8514 2.928C31.6114 2.496 31.2434 2.28 30.7474 2.28C30.2514 2.28 29.8754 2.496 29.6194 2.928C29.3794 3.344 29.2594 3.864 29.2594 4.488C29.2594 5.112 29.3794 5.632 29.6194 6.048ZM42.9154 17.064C41.6994 17.064 40.7314 16.648 40.0114 15.816C39.2914 14.984 38.9314 13.92 38.9314 12.624C38.9314 11.328 39.2914 10.256 40.0114 9.408C40.7314 8.56 41.6994 8.136 42.9154 8.136C44.1474 8.136 45.1234 8.56 45.8434 9.408C46.5634 10.24 46.9234 11.312 46.9234 12.624C46.9234 13.92 46.5634 14.984 45.8434 15.816C45.1234 16.648 44.1474 17.064 42.9154 17.064ZM42.9394 14.784C43.4194 14.784 43.7874 14.576 44.0434 14.16C44.2994 13.744 44.4274 13.232 44.4274 12.624C44.4274 12.016 44.2994 11.496 44.0434 11.064C43.7874 10.632 43.4194 10.416 42.9394 10.416C42.4434 10.416 42.0674 10.632 41.8114 11.064C41.5554 11.48 41.4274 12 41.4274 12.624C41.4274 13.232 41.5554 13.744 41.8114 14.16C42.0674 14.576 42.4434 14.784 42.9394 14.784Z" fill="white"/>
<g opacity="0.5">
<path d="M14.568 54.9845C14.568 56.3125 14.048 57.4245 13.008 58.3205C11.984 59.2165 10.6 59.7205 8.856 59.8325V61.5365H7.176V59.8085C5.496 59.6645 4.096 59.1445 2.976 58.2485C1.872 57.3365 1.168 56.1045 0.864 54.5525L3.264 54.3125C3.44 55.3205 3.872 56.1205 4.56 56.7125C5.248 57.3045 6.12 57.6725 7.176 57.8165V52.1045L6.48 52.0085C4.928 51.7685 3.744 51.2805 2.928 50.5445C2.112 49.8085 1.704 48.8325 1.704 47.6165C1.704 46.2405 2.208 45.1125 3.216 44.2325C4.224 43.3365 5.544 42.8405 7.176 42.7445V41.0645H8.856V42.7925C10.328 42.9845 11.52 43.5445 12.432 44.4725C13.36 45.3845 13.904 46.6405 14.064 48.2405L11.904 48.4325C11.632 46.3685 10.616 45.1525 8.856 44.7845V50.2325L9.888 50.4005C13.008 50.8965 14.568 52.4245 14.568 54.9845ZM6.816 49.9205L7.176 49.9685V44.6885C6.2 44.7685 5.424 45.0725 4.848 45.6005C4.272 46.1125 3.984 46.7845 3.984 47.6165C3.984 48.2725 4.216 48.7845 4.68 49.1525C5.144 49.5205 5.856 49.7765 6.816 49.9205ZM8.856 57.8645C9.912 57.7525 10.744 57.4405 11.352 56.9285C11.976 56.4005 12.288 55.7525 12.288 54.9845C12.288 54.2485 12.064 53.6885 11.616 53.3045C11.168 52.9045 10.416 52.6165 9.36 52.4405L8.856 52.3685V57.8645Z" fill="white"/>
<path d="M16.8853 59.6405V57.6485H21.7333V47.8085C21.3973 48.3365 20.7813 48.7365 19.8853 49.0085C18.9893 49.2805 17.9893 49.4165 16.8853 49.4165V47.4245C18.4853 47.4085 19.7333 47.0645 20.6293 46.3925C21.5253 45.7045 22.0053 44.5605 22.0693 42.9605H24.0373V57.6485H27.9973V59.6405H16.8853Z" fill="white"/>
<path d="M36.132 59.7605C34.468 59.7605 32.98 59.3365 31.668 58.4885C30.372 57.6245 29.588 56.3445 29.316 54.6485L31.692 54.4085C31.852 55.4965 32.348 56.3365 33.18 56.9285C34.028 57.5045 34.996 57.7925 36.084 57.7925C37.268 57.7925 38.22 57.5205 38.94 56.9765C39.66 56.4325 40.02 55.6885 40.02 54.7445C40.02 53.8325 39.668 53.1445 38.964 52.6805C38.276 52.2005 37.356 51.9605 36.204 51.9605H35.508V49.9685H36.204C37.228 49.9685 38.028 49.7605 38.604 49.3445C39.18 48.9125 39.468 48.3205 39.468 47.5685C39.468 46.7685 39.172 46.1125 38.58 45.6005C38.004 45.0885 37.212 44.8325 36.204 44.8325C34.076 44.8325 32.804 45.8885 32.388 48.0005L30.084 47.8085C30.324 46.2405 30.988 45.0245 32.076 44.1605C33.18 43.2805 34.564 42.8405 36.228 42.8405C37.86 42.8405 39.188 43.2805 40.212 44.1605C41.252 45.0405 41.772 46.1445 41.772 47.4725C41.772 48.3685 41.516 49.1125 41.004 49.7045C40.508 50.2805 39.892 50.6805 39.156 50.9045C40.068 51.1125 40.82 51.5525 41.412 52.2245C42.02 52.8965 42.324 53.7605 42.324 54.8165C42.324 56.3045 41.748 57.5045 40.596 58.4165C39.444 59.3125 37.956 59.7605 36.132 59.7605Z" fill="white"/>
<path d="M50.7593 59.7605C49.1113 59.7605 47.6712 59.3205 46.4393 58.4405C45.2233 57.5445 44.4953 56.2325 44.2552 54.5045L46.5592 54.2645C46.7352 55.4165 47.2072 56.2885 47.9753 56.8805C48.7433 57.4565 49.6712 57.7445 50.7593 57.7445C51.9113 57.7445 52.8393 57.4165 53.5433 56.7605C54.2472 56.1045 54.5993 55.2325 54.5993 54.1445C54.5993 53.0565 54.2472 52.2005 53.5433 51.5765C52.8553 50.9365 51.9593 50.6165 50.8553 50.6165C49.4473 50.6165 48.1592 51.1525 46.9912 52.2245L44.8553 51.1445L46.1992 42.9605H55.9433V45.0485H48.0472L47.1592 50.1845C48.3752 49.2405 49.7993 48.7685 51.4313 48.7685C52.9833 48.7685 54.2873 49.2565 55.3433 50.2325C56.3993 51.1925 56.9272 52.5125 56.9272 54.1925C56.9272 55.8405 56.3433 57.1845 55.1753 58.2245C54.0233 59.2485 52.5513 59.7605 50.7593 59.7605Z" fill="white"/>
<path d="M0 52.4405H57.8872V53.6405H0V52.4405Z" fill="white"/>
</g>
</svg>
