<svg width="134" height="21" viewBox="0 0 134 21" fill="none" xmlns="http://www.w3.org/2000/svg">
<path d="M0 14.5131V11.8491H9.36V14.5131H0Z" fill="white"/>
<path d="M18.4845 19.6971C16.7405 19.6971 15.2285 19.2411 13.9485 18.3291C12.6845 17.4011 11.9405 16.0731 11.7165 14.3451L14.8125 14.0331C14.9725 14.9931 15.3885 15.7371 16.0605 16.2651C16.7325 16.7931 17.5405 17.0571 18.4845 17.0571C19.5085 17.0571 20.3245 16.7931 20.9325 16.2651C21.5405 15.7211 21.8445 14.9851 21.8445 14.0571C21.8445 13.1131 21.5325 12.3771 20.9085 11.8491C20.3005 11.3211 19.5165 11.0571 18.5565 11.0571C17.2285 11.0571 16.0365 11.5611 14.9805 12.5691L12.1965 11.1771L13.4925 2.89708H23.7885V5.68108H15.9165L15.1485 10.0491C16.3005 9.15308 17.7325 8.70508 19.4445 8.70508C20.9485 8.70508 22.2365 9.17708 23.3085 10.1211C24.3965 11.0491 24.9405 12.3771 24.9405 14.1051C24.9405 15.8011 24.3405 17.1611 23.1405 18.1851C21.9405 19.1931 20.3885 19.6971 18.4845 19.6971Z" fill="white"/>
<path d="M30.7474 11.6331C29.5314 11.6331 28.5554 11.2171 27.8194 10.3851C27.0994 9.55308 26.7394 8.48908 26.7394 7.19308C26.7394 5.89708 27.0994 4.82508 27.8194 3.97708C28.5554 3.12908 29.5314 2.70508 30.7474 2.70508C31.9794 2.70508 32.9474 3.12908 33.6514 3.97708C34.3714 4.80908 34.7314 5.88108 34.7314 7.19308C34.7314 8.50508 34.3714 9.57708 33.6514 10.4091C32.9474 11.2251 31.9794 11.6331 30.7474 11.6331ZM30.6034 19.5771L40.0834 2.89708H43.1314L33.6514 19.5771H30.6034ZM29.6194 8.75308C29.8754 9.15308 30.2514 9.35308 30.7474 9.35308C31.2434 9.35308 31.6114 9.15308 31.8514 8.75308C32.1074 8.33708 32.2354 7.81708 32.2354 7.19308C32.2354 6.56908 32.1074 6.04908 31.8514 5.63308C31.6114 5.20108 31.2434 4.98508 30.7474 4.98508C30.2514 4.98508 29.8754 5.20108 29.6194 5.63308C29.3794 6.04908 29.2594 6.56908 29.2594 7.19308C29.2594 7.81708 29.3794 8.33708 29.6194 8.75308ZM42.9154 19.7691C41.6994 19.7691 40.7314 19.3531 40.0114 18.5211C39.2914 17.6891 38.9314 16.6251 38.9314 15.3291C38.9314 14.0331 39.2914 12.9611 40.0114 12.1131C40.7314 11.2651 41.6994 10.8411 42.9154 10.8411C44.1474 10.8411 45.1234 11.2651 45.8434 12.1131C46.5634 12.9451 46.9234 14.0171 46.9234 15.3291C46.9234 16.6251 46.5634 17.6891 45.8434 18.5211C45.1234 19.3531 44.1474 19.7691 42.9154 19.7691ZM42.9394 17.4891C43.4194 17.4891 43.7874 17.2811 44.0434 16.8651C44.2994 16.4491 44.4274 15.9371 44.4274 15.3291C44.4274 14.7211 44.2994 14.2011 44.0434 13.7691C43.7874 13.3371 43.4194 13.1211 42.9394 13.1211C42.4434 13.1211 42.0674 13.3371 41.8114 13.7691C41.5554 14.1851 41.4274 14.7051 41.4274 15.3291C41.4274 15.9371 41.5554 16.4491 41.8114 16.8651C42.0674 17.2811 42.4434 17.4891 42.9394 17.4891Z" fill="white"/>
<g opacity="0.5">
<path d="M90.3439 13.92C90.3439 15.248 89.8239 16.36 88.7839 17.256C87.7599 18.152 86.3759 18.656 84.6319 18.768V20.472H82.9519V18.744C81.2719 18.6 79.8719 18.08 78.7519 17.184C77.6479 16.272 76.9439 15.04 76.6399 13.488L79.0399 13.248C79.2159 14.256 79.6479 15.056 80.3359 15.648C81.0239 16.24 81.8959 16.608 82.9519 16.752V11.04L82.2559 10.944C80.7039 10.704 79.5199 10.216 78.7039 9.48C77.8879 8.744 77.4799 7.768 77.4799 6.552C77.4799 5.176 77.9839 4.048 78.9919 3.168C79.9999 2.272 81.3199 1.776 82.9519 1.68V0H84.6319V1.728C86.1039 1.92 87.2959 2.48 88.2079 3.408C89.1359 4.32 89.6799 5.576 89.8399 7.176L87.6799 7.368C87.4079 5.304 86.3919 4.088 84.6319 3.72V9.168L85.6639 9.336C88.7839 9.832 90.3439 11.36 90.3439 13.92ZM82.5919 8.856L82.9519 8.904V3.624C81.9759 3.704 81.1999 4.008 80.6239 4.536C80.0479 5.048 79.7599 5.72 79.7599 6.552C79.7599 7.208 79.9919 7.72 80.4559 8.088C80.9199 8.456 81.6319 8.712 82.5919 8.856ZM84.6319 16.8C85.6879 16.688 86.5199 16.376 87.1279 15.864C87.7519 15.336 88.0639 14.688 88.0639 13.92C88.0639 13.184 87.8399 12.624 87.3919 12.24C86.9439 11.84 86.1919 11.552 85.1359 11.376L84.6319 11.304V16.8Z" fill="white"/>
<path d="M92.6612 18.576V16.584H97.5092V6.744C97.1732 7.272 96.5572 7.672 95.6612 7.944C94.7652 8.216 93.7652 8.352 92.6612 8.352V6.36C94.2612 6.344 95.5092 6 96.4052 5.328C97.3012 4.64 97.7812 3.496 97.8452 1.896H99.8132V16.584H103.773V18.576H92.6612Z" fill="white"/>
<path d="M111.908 18.696C110.244 18.696 108.756 18.272 107.444 17.424C106.148 16.56 105.364 15.28 105.092 13.584L107.468 13.344C107.628 14.432 108.124 15.272 108.956 15.864C109.804 16.44 110.772 16.728 111.86 16.728C113.044 16.728 113.996 16.456 114.716 15.912C115.436 15.368 115.796 14.624 115.796 13.68C115.796 12.768 115.444 12.08 114.74 11.616C114.052 11.136 113.132 10.896 111.98 10.896H111.284V8.904H111.98C113.004 8.904 113.804 8.696 114.38 8.28C114.956 7.848 115.244 7.256 115.244 6.504C115.244 5.704 114.948 5.048 114.356 4.536C113.78 4.024 112.988 3.768 111.98 3.768C109.852 3.768 108.58 4.824 108.164 6.936L105.86 6.744C106.1 5.176 106.764 3.96 107.852 3.096C108.956 2.216 110.34 1.776 112.004 1.776C113.636 1.776 114.964 2.216 115.988 3.096C117.028 3.976 117.548 5.08 117.548 6.408C117.548 7.304 117.292 8.048 116.78 8.64C116.284 9.216 115.668 9.616 114.932 9.84C115.844 10.048 116.596 10.488 117.188 11.16C117.796 11.832 118.1 12.696 118.1 13.752C118.1 15.24 117.524 16.44 116.372 17.352C115.22 18.248 113.732 18.696 111.908 18.696Z" fill="white"/>
<path d="M126.535 18.696C124.887 18.696 123.447 18.256 122.215 17.376C120.999 16.48 120.271 15.168 120.031 13.44L122.335 13.2C122.511 14.352 122.983 15.224 123.751 15.816C124.519 16.392 125.447 16.68 126.535 16.68C127.687 16.68 128.615 16.352 129.319 15.696C130.023 15.04 130.375 14.168 130.375 13.08C130.375 11.992 130.023 11.136 129.319 10.512C128.631 9.872 127.735 9.552 126.631 9.552C125.223 9.552 123.935 10.088 122.767 11.16L120.631 10.08L121.975 1.896H131.719V3.984H123.823L122.935 9.12C124.151 8.176 125.575 7.704 127.207 7.704C128.759 7.704 130.063 8.192 131.119 9.168C132.175 10.128 132.703 11.448 132.703 13.128C132.703 14.776 132.119 16.12 130.951 17.16C129.799 18.184 128.327 18.696 126.535 18.696Z" fill="white"/>
<path d="M75.7759 11.376H133.663V12.576H75.7759V11.376Z" fill="white"/>
</g>
</svg>
