<svg width="156" height="53" viewBox="0 0 156 53" fill="none" xmlns="http://www.w3.org/2000/svg">
<path d="M37.076 35.1662C37.076 38.7622 35.7533 41.7382 33.108 44.0942C30.504 46.4502 26.9287 47.8556 22.382 48.3102V52.8362H15.872V48.2482C11.6147 47.7109 8.08067 46.2849 5.27 43.9702C2.45933 41.6142 0.702667 38.3902 0 34.2982L10.044 33.4302C10.54 36.8196 12.4827 39.0102 15.872 40.0022V30.0822L14.508 29.8962C10.54 29.3176 7.44 27.9742 5.208 25.8662C2.976 23.7169 1.86 20.9889 1.86 17.6822C1.86 14.0862 3.14133 11.0896 5.704 8.69222C8.308 6.29489 11.6973 4.86889 15.872 4.41422V0.0742188H22.382V4.60022C26.35 5.22022 29.512 6.77022 31.868 9.25022C34.224 11.6889 35.5467 14.9749 35.836 19.1082L26.722 19.8522C26.226 16.3802 24.7793 14.0862 22.382 12.9702V22.3942L24.8 22.7662C28.5613 23.3036 31.5373 24.6262 33.728 26.7342C35.96 28.8009 37.076 31.6116 37.076 35.1662ZM11.532 17.6822C11.532 19.6662 12.9787 20.9269 15.872 21.4642V12.5362C12.9787 13.2802 11.532 14.9956 11.532 17.6822ZM22.382 40.1262C23.9527 39.7956 25.172 39.1962 26.04 38.3282C26.908 37.4602 27.342 36.4269 27.342 35.2282C27.342 34.0709 26.9493 33.1616 26.164 32.5002C25.3787 31.7976 24.118 31.3016 22.382 31.0122V40.1262Z" fill="white"/>
<path d="M42.2288 48.0002V39.6922L58.6588 29.9582C61.8828 28.0569 64.1561 26.3622 65.4788 24.8742C66.8428 23.3862 67.5248 21.7329 67.5248 19.9142C67.5248 17.8889 66.9048 16.2769 65.6648 15.0782C64.4661 13.8796 62.8748 13.2802 60.8908 13.2802C58.8654 13.2802 57.1088 13.9416 55.6208 15.2642C54.1328 16.5869 53.2854 18.4262 53.0788 20.7822L43.3448 19.9762C43.6754 15.5122 45.4734 11.8336 48.7388 8.94022C52.0041 6.04689 56.0548 4.60022 60.8908 4.60022C66.0574 4.60022 70.1081 5.98489 73.0428 8.75422C76.0188 11.5236 77.5068 15.2436 77.5068 19.9142C77.5068 23.1796 76.4941 26.0109 74.4688 28.4082C72.4434 30.8056 69.5708 33.0996 65.8508 35.2902L58.4108 39.6922H77.3208V48.0002H42.2288Z" fill="white"/>
<path d="M85.4597 48.0002V39.6922H97.2397V20.5342C96.4544 21.4849 94.9664 22.2496 92.7757 22.8282C90.5851 23.3656 88.1464 23.6342 85.4597 23.6342V15.3262C89.5517 15.2022 92.6517 14.2929 94.7597 12.5982C96.9091 10.8622 98.1697 8.29955 98.5417 4.91022H107.222V39.6922H116.708V48.0002H85.4597Z" fill="white"/>
<path d="M123.997 48.0002V39.6922H135.777V20.5342C134.991 21.4849 133.503 22.2496 131.313 22.8282C129.122 23.3656 126.683 23.6342 123.997 23.6342V15.3262C128.089 15.2022 131.189 14.2929 133.297 12.5982C135.446 10.8622 136.707 8.29955 137.079 4.91022H145.759V39.6922H155.245V48.0002H123.997Z" fill="white"/>
</svg>
