<svg width="118" height="41" viewBox="0 0 118 41" fill="none" xmlns="http://www.w3.org/2000/svg">
<path d="M29.3446 27.168C29.3446 29.952 28.3206 32.256 26.2726 34.08C24.2566 35.904 21.4886 36.992 17.9686 37.344V40.848H12.9286V37.296C9.63263 36.88 6.89663 35.776 4.72062 33.984C2.54462 32.16 1.18463 29.664 0.640625 26.496L8.41663 25.824C8.80063 28.448 10.3046 30.144 12.9286 30.912V23.232L11.8726 23.088C8.80062 22.64 6.40063 21.6 4.67263 19.968C2.94463 18.304 2.08062 16.192 2.08062 13.632C2.08062 10.848 3.07263 8.528 5.05663 6.672C7.07263 4.816 9.69663 3.712 12.9286 3.36V0H17.9686V3.504C21.0406 3.984 23.4886 5.184 25.3126 7.104C27.1366 8.992 28.1606 11.536 28.3846 14.736L21.3286 15.312C20.9446 12.624 19.8246 10.848 17.9686 9.984V17.28L19.8406 17.568C22.7526 17.984 25.0566 19.008 26.7526 20.64C28.4806 22.24 29.3446 24.416 29.3446 27.168ZM9.56863 13.632C9.56863 15.168 10.6886 16.144 12.9286 16.56V9.648C10.6886 10.224 9.56863 11.552 9.56863 13.632ZM17.9686 31.008C19.1846 30.752 20.1286 30.288 20.8006 29.616C21.4726 28.944 21.8086 28.144 21.8086 27.216C21.8086 26.32 21.5046 25.616 20.8966 25.104C20.2886 24.56 19.3126 24.176 17.9686 23.952V31.008Z" fill="white"/>
<path d="M32.3739 37.104V30.672L45.0939 23.136C47.5899 21.664 49.3499 20.352 50.3739 19.2C51.4299 18.048 51.9579 16.768 51.9579 15.36C51.9579 13.792 51.4779 12.544 50.5179 11.616C49.5899 10.688 48.3579 10.224 46.8219 10.224C45.2539 10.224 43.8939 10.736 42.7419 11.76C41.5899 12.784 40.9339 14.208 40.7739 16.032L33.2379 15.408C33.4939 11.952 34.8859 9.104 37.4139 6.864C39.9419 4.624 43.0779 3.504 46.8219 3.504C50.8219 3.504 53.9579 4.576 56.2299 6.72C58.5339 8.864 59.6859 11.744 59.6859 15.36C59.6859 17.888 58.9019 20.08 57.3339 21.936C55.7659 23.792 53.5419 25.568 50.6619 27.264L44.9019 30.672H59.5419V37.104H32.3739Z" fill="white"/>
<path d="M64.883 37.104V30.672H74.003V15.84C73.395 16.576 72.243 17.168 70.547 17.616C68.851 18.032 66.963 18.24 64.883 18.24V11.808C68.051 11.712 70.451 11.008 72.083 9.696C73.747 8.352 74.723 6.368 75.011 3.744H81.731V30.672H89.075V37.104H64.883Z" fill="white"/>
<path d="M93.758 37.104V30.672H102.878V15.84C102.27 16.576 101.118 17.168 99.422 17.616C97.726 18.032 95.838 18.24 93.758 18.24V11.808C96.926 11.712 99.326 11.008 100.958 9.696C102.622 8.352 103.598 6.368 103.886 3.744H110.606V30.672H117.95V37.104H93.758Z" fill="white"/>
</svg>
