<svg width="60" height="62" viewBox="0 0 60 62" fill="none" xmlns="http://www.w3.org/2000/svg">
<path d="M0 11.808V9.144H9.36V11.808H0Z" fill="white"/>
<path d="M18.4845 16.992C16.7405 16.992 15.2285 16.536 13.9485 15.624C12.6845 14.696 11.9405 13.368 11.7165 11.64L14.8125 11.328C14.9725 12.288 15.3885 13.032 16.0605 13.56C16.7325 14.088 17.5405 14.352 18.4845 14.352C19.5085 14.352 20.3245 14.088 20.9325 13.56C21.5405 13.016 21.8445 12.28 21.8445 11.352C21.8445 10.408 21.5325 9.672 20.9085 9.144C20.3005 8.616 19.5165 8.352 18.5565 8.352C17.2285 8.352 16.0365 8.856 14.9805 9.864L12.1965 8.472L13.4925 0.191999H23.7885V2.976H15.9165L15.1485 7.344C16.3005 6.448 17.7325 6 19.4445 6C20.9485 6 22.2365 6.472 23.3085 7.416C24.3965 8.344 24.9405 9.672 24.9405 11.4C24.9405 13.096 24.3405 14.456 23.1405 15.48C21.9405 16.488 20.3885 16.992 18.4845 16.992Z" fill="white"/>
<path d="M30.7474 8.928C29.5314 8.928 28.5554 8.512 27.8194 7.68C27.0994 6.848 26.7394 5.784 26.7394 4.488C26.7394 3.192 27.0994 2.12 27.8194 1.272C28.5554 0.424 29.5314 0 30.7474 0C31.9794 0 32.9474 0.424 33.6514 1.272C34.3714 2.104 34.7314 3.176 34.7314 4.488C34.7314 5.8 34.3714 6.872 33.6514 7.704C32.9474 8.52 31.9794 8.928 30.7474 8.928ZM30.6034 16.872L40.0834 0.191999H43.1314L33.6514 16.872H30.6034ZM29.6194 6.048C29.8754 6.448 30.2514 6.648 30.7474 6.648C31.2434 6.648 31.6114 6.448 31.8514 6.048C32.1074 5.632 32.2354 5.112 32.2354 4.488C32.2354 3.864 32.1074 3.344 31.8514 2.928C31.6114 2.496 31.2434 2.28 30.7474 2.28C30.2514 2.28 29.8754 2.496 29.6194 2.928C29.3794 3.344 29.2594 3.864 29.2594 4.488C29.2594 5.112 29.3794 5.632 29.6194 6.048ZM42.9154 17.064C41.6994 17.064 40.7314 16.648 40.0114 15.816C39.2914 14.984 38.9314 13.92 38.9314 12.624C38.9314 11.328 39.2914 10.256 40.0114 9.408C40.7314 8.56 41.6994 8.136 42.9154 8.136C44.1474 8.136 45.1234 8.56 45.8434 9.408C46.5634 10.24 46.9234 11.312 46.9234 12.624C46.9234 13.92 46.5634 14.984 45.8434 15.816C45.1234 16.648 44.1474 17.064 42.9154 17.064ZM42.9394 14.784C43.4194 14.784 43.7874 14.576 44.0434 14.16C44.2994 13.744 44.4274 13.232 44.4274 12.624C44.4274 12.016 44.2994 11.496 44.0434 11.064C43.7874 10.632 43.4194 10.416 42.9394 10.416C42.4434 10.416 42.0674 10.632 41.8114 11.064C41.5554 11.48 41.4274 12 41.4274 12.624C41.4274 13.232 41.5554 13.744 41.8114 14.16C42.0674 14.576 42.4434 14.784 42.9394 14.784Z" fill="white"/>
<g opacity="0.5">
<path d="M14.568 54.92C14.568 56.248 14.048 57.36 13.008 58.256C11.984 59.152 10.6 59.656 8.856 59.768V61.472H7.176V59.744C5.496 59.6 4.096 59.08 2.976 58.184C1.872 57.272 1.168 56.04 0.864 54.488L3.264 54.248C3.44 55.256 3.872 56.056 4.56 56.648C5.248 57.24 6.12 57.608 7.176 57.752V52.04L6.48 51.944C4.928 51.704 3.744 51.216 2.928 50.48C2.112 49.744 1.704 48.768 1.704 47.552C1.704 46.176 2.208 45.048 3.216 44.168C4.224 43.272 5.544 42.776 7.176 42.68V41H8.856V42.728C10.328 42.92 11.52 43.48 12.432 44.408C13.36 45.32 13.904 46.576 14.064 48.176L11.904 48.368C11.632 46.304 10.616 45.088 8.856 44.72V50.168L9.888 50.336C13.008 50.832 14.568 52.36 14.568 54.92ZM6.816 49.856L7.176 49.904V44.624C6.2 44.704 5.424 45.008 4.848 45.536C4.272 46.048 3.984 46.72 3.984 47.552C3.984 48.208 4.216 48.72 4.68 49.088C5.144 49.456 5.856 49.712 6.816 49.856ZM8.856 57.8C9.912 57.688 10.744 57.376 11.352 56.864C11.976 56.336 12.288 55.688 12.288 54.92C12.288 54.184 12.064 53.624 11.616 53.24C11.168 52.84 10.416 52.552 9.36 52.376L8.856 52.304V57.8Z" fill="white"/>
<path d="M16.3596 59.576V57.56L22.1916 53.624C22.8956 53.16 23.4636 52.76 23.8956 52.424C24.3276 52.072 24.7676 51.672 25.2156 51.224C25.6636 50.76 25.9916 50.288 26.1996 49.808C26.4236 49.312 26.5356 48.792 26.5356 48.248C26.5356 47.208 26.2156 46.384 25.5756 45.776C24.9516 45.152 24.1036 44.84 23.0316 44.84C21.9436 44.84 21.0236 45.184 20.2716 45.872C19.5356 46.544 19.1036 47.472 18.9756 48.656L16.6956 48.464C16.8396 46.768 17.5036 45.4 18.6876 44.36C19.8876 43.304 21.3436 42.776 23.0556 42.776C24.8316 42.776 26.2396 43.28 27.2796 44.288C28.3356 45.28 28.8636 46.592 28.8636 48.224C28.8636 48.96 28.7276 49.648 28.4556 50.288C28.1996 50.928 27.7916 51.544 27.2316 52.136C26.6876 52.712 26.1596 53.208 25.6476 53.624C25.1356 54.04 24.4716 54.528 23.6556 55.088L20.1756 57.536H28.8396V59.576H16.3596Z" fill="white"/>
<path d="M31.1721 59.576V57.56L37.0041 53.624C37.7081 53.16 38.2761 52.76 38.7081 52.424C39.1401 52.072 39.5801 51.672 40.0281 51.224C40.4761 50.76 40.8041 50.288 41.0121 49.808C41.2361 49.312 41.3481 48.792 41.3481 48.248C41.3481 47.208 41.0281 46.384 40.3881 45.776C39.7641 45.152 38.9161 44.84 37.8441 44.84C36.7561 44.84 35.8361 45.184 35.0841 45.872C34.3481 46.544 33.9161 47.472 33.7881 48.656L31.5081 48.464C31.6521 46.768 32.3161 45.4 33.5001 44.36C34.7001 43.304 36.1561 42.776 37.8681 42.776C39.6441 42.776 41.0521 43.28 42.0921 44.288C43.1481 45.28 43.6761 46.592 43.6761 48.224C43.6761 48.96 43.5401 49.648 43.2681 50.288C43.0121 50.928 42.6041 51.544 42.0441 52.136C41.5001 52.712 40.9721 53.208 40.4601 53.624C39.9481 54.04 39.2841 54.528 38.4681 55.088L34.9881 57.536H43.6521V59.576H31.1721Z" fill="white"/>
<path d="M45.9846 59.576V57.56L51.8166 53.624C52.5206 53.16 53.0886 52.76 53.5206 52.424C53.9526 52.072 54.3926 51.672 54.8406 51.224C55.2886 50.76 55.6166 50.288 55.8246 49.808C56.0486 49.312 56.1606 48.792 56.1606 48.248C56.1606 47.208 55.8406 46.384 55.2006 45.776C54.5766 45.152 53.7286 44.84 52.6566 44.84C51.5686 44.84 50.6486 45.184 49.8966 45.872C49.1606 46.544 48.7286 47.472 48.6006 48.656L46.3206 48.464C46.4646 46.768 47.1286 45.4 48.3126 44.36C49.5126 43.304 50.9686 42.776 52.6806 42.776C54.4566 42.776 55.8646 43.28 56.9046 44.288C57.9606 45.28 58.4886 46.592 58.4886 48.224C58.4886 48.96 58.3526 49.648 58.0806 50.288C57.8246 50.928 57.4166 51.544 56.8566 52.136C56.3126 52.712 55.7846 53.208 55.2726 53.624C54.7606 54.04 54.0966 54.528 53.2806 55.088L49.8006 57.536H58.4646V59.576H45.9846Z" fill="white"/>
<path d="M0 52.376H59.7846V53.576H0V52.376Z" fill="white"/>
</g>
</svg>
