<svg width="137" height="21" viewBox="0 0 137 21" fill="none" xmlns="http://www.w3.org/2000/svg">
<path d="M0 14.5131V11.8491H9.36V14.5131H0Z" fill="white"/>
<path d="M18.4845 19.6971C16.7405 19.6971 15.2285 19.2411 13.9485 18.3291C12.6845 17.4011 11.9405 16.0731 11.7165 14.3451L14.8125 14.0331C14.9725 14.9931 15.3885 15.7371 16.0605 16.2651C16.7325 16.7931 17.5405 17.0571 18.4845 17.0571C19.5085 17.0571 20.3245 16.7931 20.9325 16.2651C21.5405 15.7211 21.8445 14.9851 21.8445 14.0571C21.8445 13.1131 21.5325 12.3771 20.9085 11.8491C20.3005 11.3211 19.5165 11.0571 18.5565 11.0571C17.2285 11.0571 16.0365 11.5611 14.9805 12.5691L12.1965 11.1771L13.4925 2.89708H23.7885V5.68108H15.9165L15.1485 10.0491C16.3005 9.15308 17.7325 8.70508 19.4445 8.70508C20.9485 8.70508 22.2365 9.17708 23.3085 10.1211C24.3965 11.0491 24.9405 12.3771 24.9405 14.1051C24.9405 15.8011 24.3405 17.1611 23.1405 18.1851C21.9405 19.1931 20.3885 19.6971 18.4845 19.6971Z" fill="white"/>
<path d="M30.7474 11.6331C29.5314 11.6331 28.5554 11.2171 27.8194 10.3851C27.0994 9.55308 26.7394 8.48908 26.7394 7.19308C26.7394 5.89708 27.0994 4.82508 27.8194 3.97708C28.5554 3.12908 29.5314 2.70508 30.7474 2.70508C31.9794 2.70508 32.9474 3.12908 33.6514 3.97708C34.3714 4.80908 34.7314 5.88108 34.7314 7.19308C34.7314 8.50508 34.3714 9.57708 33.6514 10.4091C32.9474 11.2251 31.9794 11.6331 30.7474 11.6331ZM30.6034 19.5771L40.0834 2.89708H43.1314L33.6514 19.5771H30.6034ZM29.6194 8.75308C29.8754 9.15308 30.2514 9.35308 30.7474 9.35308C31.2434 9.35308 31.6114 9.15308 31.8514 8.75308C32.1074 8.33708 32.2354 7.81708 32.2354 7.19308C32.2354 6.56908 32.1074 6.04908 31.8514 5.63308C31.6114 5.20108 31.2434 4.98508 30.7474 4.98508C30.2514 4.98508 29.8754 5.20108 29.6194 5.63308C29.3794 6.04908 29.2594 6.56908 29.2594 7.19308C29.2594 7.81708 29.3794 8.33708 29.6194 8.75308ZM42.9154 19.7691C41.6994 19.7691 40.7314 19.3531 40.0114 18.5211C39.2914 17.6891 38.9314 16.6251 38.9314 15.3291C38.9314 14.0331 39.2914 12.9611 40.0114 12.1131C40.7314 11.2651 41.6994 10.8411 42.9154 10.8411C44.1474 10.8411 45.1234 11.2651 45.8434 12.1131C46.5634 12.9451 46.9234 14.0171 46.9234 15.3291C46.9234 16.6251 46.5634 17.6891 45.8434 18.5211C45.1234 19.3531 44.1474 19.7691 42.9154 19.7691ZM42.9394 17.4891C43.4194 17.4891 43.7874 17.2811 44.0434 16.8651C44.2994 16.4491 44.4274 15.9371 44.4274 15.3291C44.4274 14.7211 44.2994 14.2011 44.0434 13.7691C43.7874 13.3371 43.4194 13.1211 42.9394 13.1211C42.4434 13.1211 42.0674 13.3371 41.8114 13.7691C41.5554 14.1851 41.4274 14.7051 41.4274 15.3291C41.4274 15.9371 41.5554 16.4491 41.8114 16.8651C42.0674 17.2811 42.4434 17.4891 42.9394 17.4891Z" fill="white"/>
<g opacity="0.5">
<path d="M91.6735 14.3438C91.6735 15.6718 91.1535 16.7838 90.1135 17.6798C89.0895 18.5758 87.7055 19.0798 85.9615 19.1918V20.8958H84.2815V19.1678C82.6015 19.0238 81.2015 18.5038 80.0815 17.6078C78.9775 16.6958 78.2735 15.4638 77.9695 13.9118L80.3695 13.6718C80.5455 14.6798 80.9775 15.4798 81.6655 16.0718C82.3535 16.6638 83.2255 17.0318 84.2815 17.1758V11.4638L83.5855 11.3678C82.0335 11.1278 80.8495 10.6398 80.0335 9.90383C79.2175 9.16783 78.8095 8.19183 78.8095 6.97583C78.8095 5.59983 79.3135 4.47183 80.3215 3.59183C81.3295 2.69583 82.6495 2.19983 84.2815 2.10383V0.423828H85.9615V2.15183C87.4335 2.34383 88.6255 2.90383 89.5375 3.83183C90.4655 4.74383 91.0095 5.99983 91.1695 7.59983L89.0095 7.79183C88.7375 5.72783 87.7215 4.51183 85.9615 4.14383V9.59183L86.9935 9.75983C90.1135 10.2558 91.6735 11.7838 91.6735 14.3438ZM83.9215 9.27983L84.2815 9.32783V4.04783C83.3055 4.12783 82.5295 4.43183 81.9535 4.95983C81.3775 5.47183 81.0895 6.14383 81.0895 6.97583C81.0895 7.63183 81.3215 8.14383 81.7855 8.51183C82.2495 8.87983 82.9615 9.13583 83.9215 9.27983ZM85.9615 17.2238C87.0175 17.1118 87.8495 16.7998 88.4575 16.2878C89.0815 15.7598 89.3935 15.1118 89.3935 14.3438C89.3935 13.6078 89.1695 13.0478 88.7215 12.6638C88.2735 12.2638 87.5215 11.9758 86.4655 11.7998L85.9615 11.7278V17.2238Z" fill="white"/>
<path d="M93.465 18.9998V16.9838L99.297 13.0478C100.001 12.5838 100.569 12.1838 101.001 11.8478C101.433 11.4958 101.873 11.0958 102.321 10.6478C102.769 10.1838 103.097 9.71183 103.305 9.23183C103.529 8.73583 103.641 8.21583 103.641 7.67183C103.641 6.63183 103.321 5.80783 102.681 5.19983C102.057 4.57583 101.209 4.26383 100.137 4.26383C99.049 4.26383 98.129 4.60783 97.377 5.29583C96.641 5.96783 96.209 6.89583 96.081 8.07983L93.801 7.88783C93.945 6.19183 94.609 4.82383 95.793 3.78383C96.993 2.72783 98.449 2.19983 100.161 2.19983C101.937 2.19983 103.345 2.70383 104.385 3.71183C105.441 4.70383 105.969 6.01583 105.969 7.64783C105.969 8.38383 105.833 9.07183 105.561 9.71183C105.305 10.3518 104.897 10.9678 104.337 11.5598C103.793 12.1358 103.265 12.6318 102.753 13.0478C102.241 13.4638 101.577 13.9518 100.761 14.5118L97.281 16.9598H105.945V18.9998H93.465Z" fill="white"/>
<path d="M108.278 18.9998V16.9838L114.11 13.0478C114.814 12.5838 115.382 12.1838 115.814 11.8478C116.246 11.4958 116.686 11.0958 117.134 10.6478C117.582 10.1838 117.91 9.71183 118.118 9.23183C118.342 8.73583 118.454 8.21583 118.454 7.67183C118.454 6.63183 118.134 5.80783 117.494 5.19983C116.87 4.57583 116.022 4.26383 114.95 4.26383C113.862 4.26383 112.942 4.60783 112.19 5.29583C111.454 5.96783 111.022 6.89583 110.894 8.07983L108.614 7.88783C108.758 6.19183 109.422 4.82383 110.606 3.78383C111.806 2.72783 113.262 2.19983 114.974 2.19983C116.75 2.19983 118.158 2.70383 119.198 3.71183C120.254 4.70383 120.782 6.01583 120.782 7.64783C120.782 8.38383 120.646 9.07183 120.374 9.71183C120.118 10.3518 119.71 10.9678 119.15 11.5598C118.606 12.1358 118.078 12.6318 117.566 13.0478C117.054 13.4638 116.39 13.9518 115.574 14.5118L112.094 16.9598H120.758V18.9998H108.278Z" fill="white"/>
<path d="M123.09 18.9998V16.9838L128.922 13.0478C129.626 12.5838 130.194 12.1838 130.626 11.8478C131.058 11.4958 131.498 11.0958 131.946 10.6478C132.394 10.1838 132.722 9.71183 132.93 9.23183C133.154 8.73583 133.266 8.21583 133.266 7.67183C133.266 6.63183 132.946 5.80783 132.306 5.19983C131.682 4.57583 130.834 4.26383 129.762 4.26383C128.674 4.26383 127.754 4.60783 127.002 5.29583C126.266 5.96783 125.834 6.89583 125.706 8.07983L123.426 7.88783C123.57 6.19183 124.234 4.82383 125.418 3.78383C126.618 2.72783 128.074 2.19983 129.786 2.19983C131.562 2.19983 132.97 2.70383 134.01 3.71183C135.066 4.70383 135.594 6.01583 135.594 7.64783C135.594 8.38383 135.458 9.07183 135.186 9.71183C134.93 10.3518 134.522 10.9678 133.962 11.5598C133.418 12.1358 132.89 12.6318 132.378 13.0478C131.866 13.4638 131.202 13.9518 130.386 14.5118L126.906 16.9598H135.57V18.9998H123.09Z" fill="white"/>
<path d="M77.1055 11.7998H136.89V12.9998H77.1055V11.7998Z" fill="white"/>
</g>
</svg>
