<svg width="120" height="40" viewBox="0 0 120 40" fill="none" xmlns="http://www.w3.org/2000/svg">
<path d="M28.1081 26.604C28.1081 29.3302 27.1054 31.5864 25.0999 33.3725C23.1257 35.1586 20.4152 36.224 16.9683 36.5687V40H12.0329V36.5217C8.80533 36.1144 6.12613 35.0333 3.9953 33.2785C1.86447 31.4924 0.532707 29.0482 0 25.9459L7.61457 25.2879C7.9906 27.8574 9.46338 29.5182 12.0329 30.2703V22.7497L10.9988 22.6087C7.9906 22.17 5.64042 21.1516 3.9483 19.5535C2.25617 17.924 1.41011 15.8559 1.41011 13.349C1.41011 10.6228 2.38151 8.35096 4.32432 6.53349C6.29847 4.71602 8.868 3.63494 12.0329 3.29025V0H16.9683V3.43126C19.9765 3.90129 22.3737 5.07638 24.1598 6.95652C25.9459 8.80533 26.9487 11.2965 27.168 14.4301L20.2585 14.9941C19.8825 12.3619 18.7857 10.6228 16.9683 9.77674V16.9213L18.8014 17.2033C21.653 17.6107 23.9091 18.6134 25.5699 20.2115C27.262 21.7783 28.1081 23.9091 28.1081 26.604ZM8.74266 13.349C8.74266 14.8531 9.8394 15.8089 12.0329 16.2162V9.44771C9.8394 10.0118 8.74266 11.3122 8.74266 13.349ZM16.9683 30.3643C18.159 30.1136 19.0834 29.6592 19.7415 29.0012C20.3995 28.3431 20.7286 27.5597 20.7286 26.651C20.7286 25.7736 20.4309 25.0842 19.8355 24.5828C19.2401 24.0501 18.2844 23.6741 16.9683 23.4548V30.3643Z" fill="white"/>
<path d="M31.0745 36.3337V30.0353L43.5304 22.6557C45.9746 21.2143 47.698 19.9295 48.7008 18.8014C49.7349 17.6733 50.2519 16.4199 50.2519 15.0411C50.2519 13.5057 49.7819 12.2836 48.8418 11.3749C47.9331 10.4661 46.7266 10.0118 45.2225 10.0118C43.6871 10.0118 42.3553 10.5131 41.2272 11.5159C40.0991 12.5186 39.4568 13.913 39.3001 15.6992L31.9205 15.0881C32.1712 11.7039 33.5343 8.915 36.0098 6.7215C38.4854 4.52801 41.5563 3.43126 45.2225 3.43126C49.1395 3.43126 52.2104 4.481 54.4352 6.58049C56.6914 8.67998 57.8195 11.5002 57.8195 15.0411C57.8195 17.5166 57.0517 19.6631 55.5163 21.4806C53.9809 23.2981 51.803 25.0372 48.9828 26.698L43.3424 30.0353H57.6785V36.3337H31.0745Z" fill="white"/>
<path d="M77.7075 36.3337V29.2362H60.1752V23.3608L75.5923 3.66627H85.181V22.9847H89.6464V29.2362H85.181V36.3337H77.7075ZM68.5418 22.9847H77.7075V11.0458L68.5418 22.9847Z" fill="white"/>
<path d="M106.552 36.5687C104.985 36.5687 103.45 36.3964 101.945 36.0517C100.473 35.707 98.9999 35.1586 97.5272 34.4066C96.0857 33.6232 94.848 32.5108 93.8139 31.0693C92.8111 29.5966 92.1531 27.8731 91.8397 25.8989L99.5953 25.1939C99.9087 26.886 100.708 28.1551 101.993 29.0012C103.277 29.8472 104.734 30.2703 106.364 30.2703C108.213 30.2703 109.654 29.8786 110.688 29.0952C111.722 28.3118 112.239 27.3717 112.239 26.275C112.239 23.8935 110.234 22.7027 106.223 22.7027H104.672V16.3102H106.223C108.103 16.3102 109.403 16.0439 110.124 15.5112C110.845 14.9785 111.205 14.2264 111.205 13.255C111.205 12.3149 110.782 11.5002 109.936 10.8108C109.09 10.1214 107.993 9.77674 106.646 9.77674C105.11 9.77674 103.841 10.1841 102.839 10.9988C101.867 11.8136 101.256 12.9573 101.005 14.4301L93.4849 13.819C93.9862 10.5288 95.3963 7.97493 97.7152 6.15746C100.034 4.33999 103.027 3.43126 106.693 3.43126C110.328 3.43126 113.242 4.35566 115.436 6.20447C117.629 8.02194 118.726 10.2311 118.726 12.832C118.726 14.4928 118.271 15.8872 117.363 17.0153C116.485 18.112 115.341 18.8797 113.931 19.3184C115.624 19.7571 117.002 20.6032 118.068 21.8566C119.133 23.1101 119.666 24.7082 119.666 26.651C119.666 29.4085 118.475 31.7587 116.094 33.7015C113.712 35.613 110.531 36.5687 106.552 36.5687Z" fill="white"/>
</svg>
