<svg width="153" height="52" viewBox="0 0 153 52" fill="none" xmlns="http://www.w3.org/2000/svg">
<path d="M35.88 33.96C35.88 37.44 34.6 40.32 32.04 42.6C29.52 44.88 26.06 46.24 21.66 46.68V51.06H15.36V46.62C11.24 46.1 7.82 44.72 5.1 42.48C2.38 40.2 0.68 37.08 0 33.12L9.72 32.28C10.2 35.56 12.08 37.68 15.36 38.64V29.04L14.04 28.86C10.2 28.3 7.2 27 5.04 24.96C2.88 22.88 1.8 20.24 1.8 17.04C1.8 13.56 3.04 10.66 5.52 8.34C8.04 6.02 11.32 4.64 15.36 4.2V0H21.66V4.38C25.5 4.98 28.56 6.48 30.84 8.88C33.12 11.24 34.4 14.42 34.68 18.42L25.86 19.14C25.38 15.78 23.98 13.56 21.66 12.48V21.6L24 21.96C27.64 22.48 30.52 23.76 32.64 25.8C34.8 27.8 35.88 30.52 35.88 33.96ZM11.16 17.04C11.16 18.96 12.56 20.18 15.36 20.7V12.06C12.56 12.78 11.16 14.44 11.16 17.04ZM21.66 38.76C23.18 38.44 24.36 37.86 25.2 37.02C26.04 36.18 26.46 35.18 26.46 34.02C26.46 32.9 26.08 32.02 25.32 31.38C24.56 30.7 23.34 30.22 21.66 29.94V38.76Z" fill="white"/>
<path d="M39.6666 46.38V38.34L55.5666 28.92C58.6866 27.08 60.8866 25.44 62.1666 24C63.4866 22.56 64.1466 20.96 64.1466 19.2C64.1466 17.24 63.5466 15.68 62.3466 14.52C61.1866 13.36 59.6466 12.78 57.7266 12.78C55.7666 12.78 54.0666 13.42 52.6266 14.7C51.1866 15.98 50.3666 17.76 50.1666 20.04L40.7466 19.26C41.0666 14.94 42.8066 11.38 45.9666 8.58C49.1266 5.78 53.0466 4.38 57.7266 4.38C62.7266 4.38 66.6466 5.72 69.4866 8.4C72.3666 11.08 73.8066 14.68 73.8066 19.2C73.8066 22.36 72.8266 25.1 70.8666 27.42C68.9066 29.74 66.1266 31.96 62.5266 34.08L55.3266 38.34H73.6266V46.38H39.6666Z" fill="white"/>
<path d="M99.1936 46.38V37.32H76.8136V29.82L96.4936 4.68H108.734V29.34H114.434V37.32H108.734V46.38H99.1936ZM87.4936 29.34H99.1936V14.1L87.4936 29.34Z" fill="white"/>
<path d="M136.013 46.68C134.013 46.68 132.053 46.46 130.133 46.02C128.253 45.58 126.373 44.88 124.493 43.92C122.653 42.92 121.073 41.5 119.753 39.66C118.473 37.78 117.633 35.58 117.233 33.06L127.133 32.16C127.533 34.32 128.553 35.94 130.193 37.02C131.833 38.1 133.693 38.64 135.773 38.64C138.133 38.64 139.973 38.14 141.293 37.14C142.613 36.14 143.273 34.94 143.273 33.54C143.273 30.5 140.713 28.98 135.593 28.98H133.613V20.82H135.593C137.993 20.82 139.653 20.48 140.573 19.8C141.493 19.12 141.953 18.16 141.953 16.92C141.953 15.72 141.413 14.68 140.333 13.8C139.253 12.92 137.853 12.48 136.133 12.48C134.173 12.48 132.553 13 131.273 14.04C130.033 15.08 129.253 16.54 128.933 18.42L119.333 17.64C119.973 13.44 121.773 10.18 124.733 7.86C127.693 5.54 131.513 4.38 136.193 4.38C140.833 4.38 144.553 5.56 147.353 7.92C150.153 10.24 151.553 13.06 151.553 16.38C151.553 18.5 150.973 20.28 149.813 21.72C148.693 23.12 147.233 24.1 145.433 24.66C147.593 25.22 149.353 26.3 150.713 27.9C152.073 29.5 152.753 31.54 152.753 34.02C152.753 37.54 151.233 40.54 148.193 43.02C145.153 45.46 141.093 46.68 136.013 46.68Z" fill="white"/>
</svg>
