<svg width="150" height="21" viewBox="0 0 150 21" fill="none" xmlns="http://www.w3.org/2000/svg">
<path d="M0 14.5131V11.8491H9.36V14.5131H0Z" fill="white"/>
<path d="M11.8399 19.5771V16.9611H16.5199V8.34508C16.1999 8.79308 15.6079 9.14508 14.7439 9.40108C13.8799 9.64108 12.9119 9.76108 11.8399 9.76108V7.14508C13.4239 7.11308 14.6399 6.76108 15.4879 6.08908C16.3519 5.41708 16.8399 4.35308 16.9519 2.89708H19.6399V16.9611H23.4559V19.5771H11.8399Z" fill="white"/>
<path d="M37.0759 17.5131C35.8439 18.9691 34.1559 19.6971 32.0119 19.6971C29.8679 19.6971 28.1719 18.9691 26.9239 17.5131C25.6759 16.0571 25.0519 13.9691 25.0519 11.2491C25.0519 8.52908 25.6759 6.42508 26.9239 4.93708C28.1719 3.44908 29.8679 2.70508 32.0119 2.70508C34.1559 2.70508 35.8439 3.44908 37.0759 4.93708C38.3079 6.42508 38.9239 8.52908 38.9239 11.2491C38.9239 13.9691 38.3079 16.0571 37.0759 17.5131ZM29.1559 15.4491C29.8279 16.4411 30.7719 16.9371 31.9879 16.9371C33.2039 16.9371 34.1399 16.4491 34.7959 15.4731C35.4519 14.4811 35.7799 13.0651 35.7799 11.2251C35.7799 9.38508 35.4519 7.96908 34.7959 6.97708C34.1399 5.96908 33.2039 5.46508 31.9879 5.46508C30.7719 5.46508 29.8279 5.96908 29.1559 6.97708C28.4839 7.98508 28.1479 9.40108 28.1479 11.2251C28.1479 13.0491 28.4839 14.4571 29.1559 15.4491Z" fill="white"/>
<path d="M45.1146 11.6331C43.8986 11.6331 42.9226 11.2171 42.1866 10.3851C41.4666 9.55308 41.1066 8.48908 41.1066 7.19308C41.1066 5.89708 41.4666 4.82508 42.1866 3.97708C42.9226 3.12908 43.8986 2.70508 45.1146 2.70508C46.3466 2.70508 47.3146 3.12908 48.0186 3.97708C48.7386 4.80908 49.0986 5.88108 49.0986 7.19308C49.0986 8.50508 48.7386 9.57708 48.0186 10.4091C47.3146 11.2251 46.3466 11.6331 45.1146 11.6331ZM44.9706 19.5771L54.4506 2.89708H57.4986L48.0186 19.5771H44.9706ZM43.9866 8.75308C44.2426 9.15308 44.6186 9.35308 45.1146 9.35308C45.6106 9.35308 45.9786 9.15308 46.2186 8.75308C46.4746 8.33708 46.6026 7.81708 46.6026 7.19308C46.6026 6.56908 46.4746 6.04908 46.2186 5.63308C45.9786 5.20108 45.6106 4.98508 45.1146 4.98508C44.6186 4.98508 44.2426 5.20108 43.9866 5.63308C43.7466 6.04908 43.6266 6.56908 43.6266 7.19308C43.6266 7.81708 43.7466 8.33708 43.9866 8.75308ZM57.2826 19.7691C56.0666 19.7691 55.0986 19.3531 54.3786 18.5211C53.6586 17.6891 53.2986 16.6251 53.2986 15.3291C53.2986 14.0331 53.6586 12.9611 54.3786 12.1131C55.0986 11.2651 56.0666 10.8411 57.2826 10.8411C58.5146 10.8411 59.4906 11.2651 60.2106 12.1131C60.9306 12.9451 61.2906 14.0171 61.2906 15.3291C61.2906 16.6251 60.9306 17.6891 60.2106 18.5211C59.4906 19.3531 58.5146 19.7691 57.2826 19.7691ZM57.3066 17.4891C57.7866 17.4891 58.1546 17.2811 58.4106 16.8651C58.6666 16.4491 58.7946 15.9371 58.7946 15.3291C58.7946 14.7211 58.6666 14.2011 58.4106 13.7691C58.1546 13.3371 57.7866 13.1211 57.3066 13.1211C56.8106 13.1211 56.4346 13.3371 56.1786 13.7691C55.9226 14.1851 55.7946 14.7051 55.7946 15.3291C55.7946 15.9371 55.9226 16.4491 56.1786 16.8651C56.4346 17.2811 56.8106 17.4891 57.3066 17.4891Z" fill="white"/>
<g opacity="0.5">
<path d="M104.344 13.92C104.344 15.248 103.824 16.36 102.784 17.256C101.76 18.152 100.376 18.656 98.6319 18.768V20.472H96.9519V18.744C95.2719 18.6 93.8719 18.08 92.7519 17.184C91.6479 16.272 90.9439 15.04 90.6399 13.488L93.0399 13.248C93.2159 14.256 93.6479 15.056 94.3359 15.648C95.0239 16.24 95.8959 16.608 96.9519 16.752V11.04L96.2559 10.944C94.7039 10.704 93.5199 10.216 92.7039 9.48C91.8879 8.744 91.4799 7.768 91.4799 6.552C91.4799 5.176 91.9839 4.048 92.9919 3.168C93.9999 2.272 95.3199 1.776 96.9519 1.68V0H98.6319V1.728C100.104 1.92 101.296 2.48 102.208 3.408C103.136 4.32 103.68 5.576 103.84 7.176L101.68 7.368C101.408 5.304 100.392 4.088 98.6319 3.72V9.168L99.6639 9.336C102.784 9.832 104.344 11.36 104.344 13.92ZM96.5919 8.856L96.9519 8.904V3.624C95.9759 3.704 95.1999 4.008 94.6239 4.536C94.0479 5.048 93.7599 5.72 93.7599 6.552C93.7599 7.208 93.9919 7.72 94.4559 8.088C94.9199 8.456 95.6319 8.712 96.5919 8.856ZM98.6319 16.8C99.6879 16.688 100.52 16.376 101.128 15.864C101.752 15.336 102.064 14.688 102.064 13.92C102.064 13.184 101.84 12.624 101.392 12.24C100.944 11.84 100.192 11.552 99.1359 11.376L98.6319 11.304V16.8Z" fill="white"/>
<path d="M106.135 18.576V16.56L111.967 12.624C112.671 12.16 113.239 11.76 113.671 11.424C114.103 11.072 114.543 10.672 114.991 10.224C115.439 9.76 115.767 9.288 115.975 8.808C116.199 8.312 116.311 7.792 116.311 7.248C116.311 6.208 115.991 5.384 115.351 4.776C114.727 4.152 113.879 3.84 112.807 3.84C111.719 3.84 110.799 4.184 110.047 4.872C109.311 5.544 108.879 6.472 108.751 7.656L106.471 7.464C106.615 5.768 107.279 4.4 108.463 3.36C109.663 2.304 111.119 1.776 112.831 1.776C114.607 1.776 116.015 2.28 117.055 3.288C118.111 4.28 118.639 5.592 118.639 7.224C118.639 7.96 118.503 8.648 118.231 9.288C117.975 9.928 117.567 10.544 117.007 11.136C116.463 11.712 115.935 12.208 115.423 12.624C114.911 13.04 114.247 13.528 113.431 14.088L109.951 16.536H118.615V18.576H106.135Z" fill="white"/>
<path d="M124.891 18.576C124.971 15.36 125.491 12.648 126.451 10.44C127.427 8.232 128.955 6.08 131.035 3.984H120.499V1.896H132.595L133.267 4.32C131.091 6.432 129.555 8.52 128.659 10.584C127.779 12.632 127.307 15.296 127.243 18.576H124.891Z" fill="white"/>
<path d="M146.301 16.512C145.133 17.968 143.517 18.696 141.453 18.696C139.389 18.696 137.757 17.968 136.557 16.512C135.357 15.04 134.757 12.944 134.757 10.224C134.757 7.504 135.357 5.408 136.557 3.936C137.757 2.448 139.389 1.704 141.453 1.704C143.517 1.704 145.133 2.448 146.301 3.936C147.485 5.408 148.077 7.504 148.077 10.224C148.077 12.96 147.485 15.056 146.301 16.512ZM141.477 16.632C142.853 16.632 143.909 16.08 144.645 14.976C145.381 13.872 145.749 12.288 145.749 10.224C145.749 8.144 145.381 6.552 144.645 5.448C143.909 4.328 142.853 3.768 141.477 3.768C140.069 3.768 138.981 4.328 138.213 5.448C137.461 6.552 137.085 8.144 137.085 10.224C137.085 12.288 137.461 13.872 138.213 14.976C138.981 16.08 140.069 16.632 141.477 16.632Z" fill="white"/>
<path d="M89.7759 11.376H149.301V12.576H89.7759V11.376Z" fill="white"/>
</g>
</svg>
