<svg width="167" height="53" viewBox="0 0 167 53" fill="none" xmlns="http://www.w3.org/2000/svg">
<path d="M37.076 35.1662C37.076 38.7622 35.7533 41.7382 33.108 44.0942C30.504 46.4502 26.9287 47.8556 22.382 48.3102V52.8362H15.872V48.2482C11.6147 47.7109 8.08067 46.2849 5.27 43.9702C2.45933 41.6142 0.702667 38.3902 0 34.2982L10.044 33.4302C10.54 36.8196 12.4827 39.0102 15.872 40.0022V30.0822L14.508 29.8962C10.54 29.3176 7.44 27.9742 5.208 25.8662C2.976 23.7169 1.86 20.9889 1.86 17.6822C1.86 14.0862 3.14133 11.0896 5.704 8.69222C8.308 6.29489 11.6973 4.86889 15.872 4.41422V0.0742188H22.382V4.60022C26.35 5.22022 29.512 6.77022 31.868 9.25022C34.224 11.6889 35.5467 14.9749 35.836 19.1082L26.722 19.8522C26.226 16.3802 24.7793 14.0862 22.382 12.9702V22.3942L24.8 22.7662C28.5613 23.3036 31.5373 24.6262 33.728 26.7342C35.96 28.8009 37.076 31.6116 37.076 35.1662ZM11.532 17.6822C11.532 19.6662 12.9787 20.9269 15.872 21.4642V12.5362C12.9787 13.2802 11.532 14.9956 11.532 17.6822ZM22.382 40.1262C23.9527 39.7956 25.172 39.1962 26.04 38.3282C26.908 37.4602 27.342 36.4269 27.342 35.2282C27.342 34.0709 26.9493 33.1616 26.164 32.5002C25.3787 31.7976 24.118 31.3016 22.382 31.0122V40.1262Z" fill="white"/>
<path d="M65.535 48.0002V38.6382H42.409V30.8882L62.745 4.91022H75.393V30.3922H81.283V38.6382H75.393V48.0002H65.535ZM53.445 30.3922H65.535V14.6442L53.445 30.3922Z" fill="white"/>
<path d="M105.011 48.3102C99.2244 48.3102 94.6571 46.4502 91.3091 42.7302C87.9611 38.9689 86.287 33.5749 86.287 26.5482C86.287 19.5216 87.9611 14.0862 91.3091 10.2422C94.6984 6.35689 99.2657 4.41422 105.011 4.41422C110.715 4.41422 115.22 6.35689 118.527 10.2422C121.834 14.0862 123.487 19.5216 123.487 26.5482C123.487 33.5749 121.834 38.9689 118.527 42.7302C115.262 46.4502 110.756 48.3102 105.011 48.3102ZM98.501 36.0962C100.03 38.3696 102.159 39.5062 104.887 39.5062C107.615 39.5062 109.723 38.3696 111.211 36.0962C112.699 33.8229 113.443 30.6196 113.443 26.4862C113.443 22.3116 112.699 19.0669 111.211 16.7522C109.723 14.3962 107.615 13.2182 104.887 13.2182C102.159 13.2182 100.03 14.3962 98.501 16.7522C97.013 19.0669 96.2691 22.3116 96.2691 26.4862C96.2691 30.6196 97.013 33.8229 98.501 36.0962Z" fill="white"/>
<path d="M147.847 48.3102C142.06 48.3102 137.493 46.4502 134.145 42.7302C130.797 38.9689 129.123 33.5749 129.123 26.5482C129.123 19.5216 130.797 14.0862 134.145 10.2422C137.534 6.35689 142.101 4.41422 147.847 4.41422C153.551 4.41422 158.056 6.35689 161.363 10.2422C164.669 14.0862 166.323 19.5216 166.323 26.5482C166.323 33.5749 164.669 38.9689 161.363 42.7302C158.097 46.4502 153.592 48.3102 147.847 48.3102ZM141.337 36.0962C142.866 38.3696 144.995 39.5062 147.723 39.5062C150.451 39.5062 152.559 38.3696 154.047 36.0962C155.535 33.8229 156.279 30.6196 156.279 26.4862C156.279 22.3116 155.535 19.0669 154.047 16.7522C152.559 14.3962 150.451 13.2182 147.723 13.2182C144.995 13.2182 142.866 14.3962 141.337 16.7522C139.849 19.0669 139.105 22.3116 139.105 26.4862C139.105 30.6196 139.849 33.8229 141.337 36.0962Z" fill="white"/>
</svg>
