<svg width="126" height="41" viewBox="0 0 126 41" fill="none" xmlns="http://www.w3.org/2000/svg">
<path d="M28.704 27.168C28.704 29.952 27.68 32.256 25.632 34.08C23.616 35.904 20.848 36.992 17.328 37.344V40.848H12.288V37.296C8.992 36.88 6.256 35.776 4.08 33.984C1.904 32.16 0.544 29.664 0 26.496L7.776 25.824C8.16 28.448 9.664 30.144 12.288 30.912V23.232L11.232 23.088C8.16 22.64 5.76 21.6 4.032 19.968C2.304 18.304 1.44 16.192 1.44 13.632C1.44 10.848 2.432 8.528 4.416 6.672C6.432 4.816 9.056 3.712 12.288 3.36V0H17.328V3.504C20.4 3.984 22.848 5.184 24.672 7.104C26.496 8.992 27.52 11.536 27.744 14.736L20.688 15.312C20.304 12.624 19.184 10.848 17.328 9.984V17.28L19.2 17.568C22.112 17.984 24.416 19.008 26.112 20.64C27.84 22.24 28.704 24.416 28.704 27.168ZM8.928 13.632C8.928 15.168 10.048 16.144 12.288 16.56V9.648C10.048 10.224 8.928 11.552 8.928 13.632ZM17.328 31.008C18.544 30.752 19.488 30.288 20.16 29.616C20.832 28.944 21.168 28.144 21.168 27.216C21.168 26.32 20.864 25.616 20.256 25.104C19.648 24.56 18.672 24.176 17.328 23.952V31.008Z" fill="white"/>
<path d="M49.7768 37.104V29.856H31.8727V23.856L47.6167 3.744H57.4087V23.472H61.9688V29.856H57.4087V37.104H49.7768ZM40.4168 23.472H49.7768V11.28L40.4168 23.472Z" fill="white"/>
<path d="M79.3789 37.344C74.8989 37.344 71.3629 35.904 68.7709 33.024C66.1789 30.112 64.8829 25.936 64.8829 20.496C64.8829 15.056 66.1789 10.848 68.7709 7.872C71.3949 4.864 74.9309 3.36 79.3789 3.36C83.7949 3.36 87.2829 4.864 89.8429 7.872C92.4029 10.848 93.6829 15.056 93.6829 20.496C93.6829 25.936 92.4029 30.112 89.8429 33.024C87.3149 35.904 83.8269 37.344 79.3789 37.344ZM74.3389 27.888C75.5229 29.648 77.1709 30.528 79.2829 30.528C81.3949 30.528 83.0269 29.648 84.1789 27.888C85.3309 26.128 85.9069 23.648 85.9069 20.448C85.9069 17.216 85.3309 14.704 84.1789 12.912C83.0269 11.088 81.3949 10.176 79.2829 10.176C77.1709 10.176 75.5229 11.088 74.3389 12.912C73.1869 14.704 72.6109 17.216 72.6109 20.448C72.6109 23.648 73.1869 26.128 74.3389 27.888Z" fill="white"/>
<path d="M111.582 37.344C107.102 37.344 103.566 35.904 100.974 33.024C98.382 30.112 97.086 25.936 97.086 20.496C97.086 15.056 98.382 10.848 100.974 7.872C103.598 4.864 107.134 3.36 111.582 3.36C115.998 3.36 119.486 4.864 122.046 7.872C124.606 10.848 125.886 15.056 125.886 20.496C125.886 25.936 124.606 30.112 122.046 33.024C119.518 35.904 116.03 37.344 111.582 37.344ZM106.542 27.888C107.726 29.648 109.374 30.528 111.486 30.528C113.598 30.528 115.23 29.648 116.382 27.888C117.534 26.128 118.11 23.648 118.11 20.448C118.11 17.216 117.534 14.704 116.382 12.912C115.23 11.088 113.598 10.176 111.486 10.176C109.374 10.176 107.726 11.088 106.542 12.912C105.39 14.704 104.814 17.216 104.814 20.448C104.814 23.648 105.39 26.128 106.542 27.888Z" fill="white"/>
</svg>
