<svg width="63" height="62" viewBox="0 0 63 62" fill="none" xmlns="http://www.w3.org/2000/svg">
<path d="M0 11.808V9.144H9.36V11.808H0Z" fill="white"/>
<path d="M11.8399 16.872V14.256H16.5199V5.64C16.1999 6.088 15.6079 6.44 14.7439 6.696C13.8799 6.936 12.9119 7.056 11.8399 7.056V4.44C13.4239 4.408 14.6399 4.056 15.4879 3.384C16.3519 2.712 16.8399 1.648 16.9519 0.191999H19.6399V14.256H23.4559V16.872H11.8399Z" fill="white"/>
<path d="M37.0759 14.808C35.8439 16.264 34.1559 16.992 32.0119 16.992C29.8679 16.992 28.1719 16.264 26.9239 14.808C25.6759 13.352 25.0519 11.264 25.0519 8.544C25.0519 5.824 25.6759 3.72 26.9239 2.232C28.1719 0.744 29.8679 0 32.0119 0C34.1559 0 35.8439 0.744 37.0759 2.232C38.3079 3.72 38.9239 5.824 38.9239 8.544C38.9239 11.264 38.3079 13.352 37.0759 14.808ZM29.1559 12.744C29.8279 13.736 30.7719 14.232 31.9879 14.232C33.2039 14.232 34.1399 13.744 34.7959 12.768C35.4519 11.776 35.7799 10.36 35.7799 8.52C35.7799 6.68 35.4519 5.264 34.7959 4.272C34.1399 3.264 33.2039 2.76 31.9879 2.76C30.7719 2.76 29.8279 3.264 29.1559 4.272C28.4839 5.28 28.1479 6.696 28.1479 8.52C28.1479 10.344 28.4839 11.752 29.1559 12.744Z" fill="white"/>
<path d="M45.1146 8.928C43.8986 8.928 42.9226 8.512 42.1866 7.68C41.4666 6.848 41.1066 5.784 41.1066 4.488C41.1066 3.192 41.4666 2.12 42.1866 1.272C42.9226 0.424 43.8986 0 45.1146 0C46.3466 0 47.3146 0.424 48.0186 1.272C48.7386 2.104 49.0986 3.176 49.0986 4.488C49.0986 5.8 48.7386 6.872 48.0186 7.704C47.3146 8.52 46.3466 8.928 45.1146 8.928ZM44.9706 16.872L54.4506 0.191999H57.4986L48.0186 16.872H44.9706ZM43.9866 6.048C44.2426 6.448 44.6186 6.648 45.1146 6.648C45.6106 6.648 45.9786 6.448 46.2186 6.048C46.4746 5.632 46.6026 5.112 46.6026 4.488C46.6026 3.864 46.4746 3.344 46.2186 2.928C45.9786 2.496 45.6106 2.28 45.1146 2.28C44.6186 2.28 44.2426 2.496 43.9866 2.928C43.7466 3.344 43.6266 3.864 43.6266 4.488C43.6266 5.112 43.7466 5.632 43.9866 6.048ZM57.2826 17.064C56.0666 17.064 55.0986 16.648 54.3786 15.816C53.6586 14.984 53.2986 13.92 53.2986 12.624C53.2986 11.328 53.6586 10.256 54.3786 9.408C55.0986 8.56 56.0666 8.136 57.2826 8.136C58.5146 8.136 59.4906 8.56 60.2106 9.408C60.9306 10.24 61.2906 11.312 61.2906 12.624C61.2906 13.92 60.9306 14.984 60.2106 15.816C59.4906 16.648 58.5146 17.064 57.2826 17.064ZM57.3066 14.784C57.7866 14.784 58.1546 14.576 58.4106 14.16C58.6666 13.744 58.7946 13.232 58.7946 12.624C58.7946 12.016 58.6666 11.496 58.4106 11.064C58.1546 10.632 57.7866 10.416 57.3066 10.416C56.8106 10.416 56.4346 10.632 56.1786 11.064C55.9226 11.48 55.7946 12 55.7946 12.624C55.7946 13.232 55.9226 13.744 56.1786 14.16C56.4346 14.576 56.8106 14.784 57.3066 14.784Z" fill="white"/>
<g opacity="0.5">
<path d="M14.568 54.92C14.568 56.248 14.048 57.36 13.008 58.256C11.984 59.152 10.6 59.656 8.856 59.768V61.472H7.176V59.744C5.496 59.6 4.096 59.08 2.976 58.184C1.872 57.272 1.168 56.04 0.864 54.488L3.264 54.248C3.44 55.256 3.872 56.056 4.56 56.648C5.248 57.24 6.12 57.608 7.176 57.752V52.04L6.48 51.944C4.928 51.704 3.744 51.216 2.928 50.48C2.112 49.744 1.704 48.768 1.704 47.552C1.704 46.176 2.208 45.048 3.216 44.168C4.224 43.272 5.544 42.776 7.176 42.68V41H8.856V42.728C10.328 42.92 11.52 43.48 12.432 44.408C13.36 45.32 13.904 46.576 14.064 48.176L11.904 48.368C11.632 46.304 10.616 45.088 8.856 44.72V50.168L9.888 50.336C13.008 50.832 14.568 52.36 14.568 54.92ZM6.816 49.856L7.176 49.904V44.624C6.2 44.704 5.424 45.008 4.848 45.536C4.272 46.048 3.984 46.72 3.984 47.552C3.984 48.208 4.216 48.72 4.68 49.088C5.144 49.456 5.856 49.712 6.816 49.856ZM8.856 57.8C9.912 57.688 10.744 57.376 11.352 56.864C11.976 56.336 12.288 55.688 12.288 54.92C12.288 54.184 12.064 53.624 11.616 53.24C11.168 52.84 10.416 52.552 9.36 52.376L8.856 52.304V57.8Z" fill="white"/>
<path d="M25.6213 59.576V55.4H16.4293V53.576L24.9493 42.896H27.9253V53.408H30.5173V55.4H27.9253V59.576H25.6213ZM19.1413 53.408H25.6213V45.224L19.1413 53.408Z" fill="white"/>
<path d="M41.2776 59.576V55.4H32.0856V53.576L40.6056 42.896H43.5816V53.408H46.1736V55.4H43.5816V59.576H41.2776ZM34.7976 53.408H41.2776V45.224L34.7976 53.408Z" fill="white"/>
<path d="M56.9338 59.576V55.4H47.7418V53.576L56.2618 42.896H59.2378V53.408H61.8298V55.4H59.2378V59.576H56.9338ZM50.4538 53.408H56.9338V45.224L50.4538 53.408Z" fill="white"/>
<path d="M0 52.376H62.4058V53.576H0V52.376Z" fill="white"/>
</g>
</svg>
