<svg width="154" height="21" viewBox="0 0 154 21" fill="none" xmlns="http://www.w3.org/2000/svg">
<path d="M0 14.5131V11.8491H9.36V14.5131H0Z" fill="white"/>
<path d="M11.8399 19.5771V16.9611H16.5199V8.34508C16.1999 8.79308 15.6079 9.14508 14.7439 9.40108C13.8799 9.64108 12.9119 9.76108 11.8399 9.76108V7.14508C13.4239 7.11308 14.6399 6.76108 15.4879 6.08908C16.3519 5.41708 16.8399 4.35308 16.9519 2.89708H19.6399V16.9611H23.4559V19.5771H11.8399Z" fill="white"/>
<path d="M37.0759 17.5131C35.8439 18.9691 34.1559 19.6971 32.0119 19.6971C29.8679 19.6971 28.1719 18.9691 26.9239 17.5131C25.6759 16.0571 25.0519 13.9691 25.0519 11.2491C25.0519 8.52908 25.6759 6.42508 26.9239 4.93708C28.1719 3.44908 29.8679 2.70508 32.0119 2.70508C34.1559 2.70508 35.8439 3.44908 37.0759 4.93708C38.3079 6.42508 38.9239 8.52908 38.9239 11.2491C38.9239 13.9691 38.3079 16.0571 37.0759 17.5131ZM29.1559 15.4491C29.8279 16.4411 30.7719 16.9371 31.9879 16.9371C33.2039 16.9371 34.1399 16.4491 34.7959 15.4731C35.4519 14.4811 35.7799 13.0651 35.7799 11.2251C35.7799 9.38508 35.4519 7.96908 34.7959 6.97708C34.1399 5.96908 33.2039 5.46508 31.9879 5.46508C30.7719 5.46508 29.8279 5.96908 29.1559 6.97708C28.4839 7.98508 28.1479 9.40108 28.1479 11.2251C28.1479 13.0491 28.4839 14.4571 29.1559 15.4491Z" fill="white"/>
<path d="M45.1146 11.6331C43.8986 11.6331 42.9226 11.2171 42.1866 10.3851C41.4666 9.55308 41.1066 8.48908 41.1066 7.19308C41.1066 5.89708 41.4666 4.82508 42.1866 3.97708C42.9226 3.12908 43.8986 2.70508 45.1146 2.70508C46.3466 2.70508 47.3146 3.12908 48.0186 3.97708C48.7386 4.80908 49.0986 5.88108 49.0986 7.19308C49.0986 8.50508 48.7386 9.57708 48.0186 10.4091C47.3146 11.2251 46.3466 11.6331 45.1146 11.6331ZM44.9706 19.5771L54.4506 2.89708H57.4986L48.0186 19.5771H44.9706ZM43.9866 8.75308C44.2426 9.15308 44.6186 9.35308 45.1146 9.35308C45.6106 9.35308 45.9786 9.15308 46.2186 8.75308C46.4746 8.33708 46.6026 7.81708 46.6026 7.19308C46.6026 6.56908 46.4746 6.04908 46.2186 5.63308C45.9786 5.20108 45.6106 4.98508 45.1146 4.98508C44.6186 4.98508 44.2426 5.20108 43.9866 5.63308C43.7466 6.04908 43.6266 6.56908 43.6266 7.19308C43.6266 7.81708 43.7466 8.33708 43.9866 8.75308ZM57.2826 19.7691C56.0666 19.7691 55.0986 19.3531 54.3786 18.5211C53.6586 17.6891 53.2986 16.6251 53.2986 15.3291C53.2986 14.0331 53.6586 12.9611 54.3786 12.1131C55.0986 11.2651 56.0666 10.8411 57.2826 10.8411C58.5146 10.8411 59.4906 11.2651 60.2106 12.1131C60.9306 12.9451 61.2906 14.0171 61.2906 15.3291C61.2906 16.6251 60.9306 17.6891 60.2106 18.5211C59.4906 19.3531 58.5146 19.7691 57.2826 19.7691ZM57.3066 17.4891C57.7866 17.4891 58.1546 17.2811 58.4106 16.8651C58.6666 16.4491 58.7946 15.9371 58.7946 15.3291C58.7946 14.7211 58.6666 14.2011 58.4106 13.7691C58.1546 13.3371 57.7866 13.1211 57.3066 13.1211C56.8106 13.1211 56.4346 13.3371 56.1786 13.7691C55.9226 14.1851 55.7946 14.7051 55.7946 15.3291C55.7946 15.9371 55.9226 16.4491 56.1786 16.8651C56.4346 17.2811 56.8106 17.4891 57.3066 17.4891Z" fill="white"/>
<g opacity="0.5">
<path d="M105.861 13.92C105.861 15.248 105.341 16.36 104.301 17.256C103.277 18.152 101.893 18.656 100.149 18.768V20.472H98.469V18.744C96.789 18.6 95.389 18.08 94.269 17.184C93.165 16.272 92.461 15.04 92.157 13.488L94.557 13.248C94.733 14.256 95.165 15.056 95.853 15.648C96.541 16.24 97.413 16.608 98.469 16.752V11.04L97.773 10.944C96.221 10.704 95.037 10.216 94.221 9.48C93.405 8.744 92.997 7.768 92.997 6.552C92.997 5.176 93.501 4.048 94.509 3.168C95.517 2.272 96.837 1.776 98.469 1.68V0H100.149V1.728C101.621 1.92 102.813 2.48 103.725 3.408C104.653 4.32 105.197 5.576 105.357 7.176L103.197 7.368C102.925 5.304 101.909 4.088 100.149 3.72V9.168L101.181 9.336C104.301 9.832 105.861 11.36 105.861 13.92ZM98.109 8.856L98.469 8.904V3.624C97.493 3.704 96.717 4.008 96.141 4.536C95.565 5.048 95.277 5.72 95.277 6.552C95.277 7.208 95.509 7.72 95.973 8.088C96.437 8.456 97.149 8.712 98.109 8.856ZM100.149 16.8C101.205 16.688 102.037 16.376 102.645 15.864C103.269 15.336 103.581 14.688 103.581 13.92C103.581 13.184 103.357 12.624 102.909 12.24C102.461 11.84 101.709 11.552 100.653 11.376L100.149 11.304V16.8Z" fill="white"/>
<path d="M116.914 18.576V14.4H107.722V12.576L116.242 1.896H119.218V12.408H121.81V14.4H119.218V18.576H116.914ZM110.434 12.408H116.914V4.224L110.434 12.408Z" fill="white"/>
<path d="M132.571 18.576V14.4H123.379V12.576L131.899 1.896H134.875V12.408H137.467V14.4H134.875V18.576H132.571ZM126.091 12.408H132.571V4.224L126.091 12.408Z" fill="white"/>
<path d="M148.227 18.576V14.4H139.035V12.576L147.555 1.896H150.531V12.408H153.123V14.4H150.531V18.576H148.227ZM141.747 12.408H148.227V4.224L141.747 12.408Z" fill="white"/>
<path d="M91.293 11.376H153.699V12.576H91.293V11.376Z" fill="white"/>
</g>
</svg>
