<svg width="116" height="52" viewBox="0 0 116 52" fill="none" xmlns="http://www.w3.org/2000/svg">
<path d="M35.88 33.96C35.88 37.44 34.6 40.32 32.04 42.6C29.52 44.88 26.06 46.24 21.66 46.68V51.06H15.36V46.62C11.24 46.1 7.82 44.72 5.1 42.48C2.38 40.2 0.68 37.08 0 33.12L9.72 32.28C10.2 35.56 12.08 37.68 15.36 38.64V29.04L14.04 28.86C10.2 28.3 7.2 27 5.04 24.96C2.88 22.88 1.8 20.24 1.8 17.04C1.8 13.56 3.04 10.66 5.52 8.34C8.04 6.02 11.32 4.64 15.36 4.2V0H21.66V4.38C25.5 4.98 28.56 6.48 30.84 8.88C33.12 11.24 34.4 14.42 34.68 18.42L25.86 19.14C25.38 15.78 23.98 13.56 21.66 12.48V21.6L24 21.96C27.64 22.48 30.52 23.76 32.64 25.8C34.8 27.8 35.88 30.52 35.88 33.96ZM11.16 17.04C11.16 18.96 12.56 20.18 15.36 20.7V12.06C12.56 12.78 11.16 14.44 11.16 17.04ZM21.66 38.76C23.18 38.44 24.36 37.86 25.2 37.02C26.04 36.18 26.46 35.18 26.46 34.02C26.46 32.9 26.08 32.02 25.32 31.38C24.56 30.7 23.34 30.22 21.66 29.94V38.76Z" fill="white"/>
<path d="M62.2209 46.38V37.32H39.8409V29.82L59.5209 4.68H71.7609V29.34H77.4609V37.32H71.7609V46.38H62.2209ZM50.5209 29.34H62.2209V14.1L50.5209 29.34Z" fill="white"/>
<path d="M99.038 46.68C94.438 46.68 90.478 45.5 87.158 43.14C83.838 40.74 81.918 37.4 81.398 33.12L91.178 32.16C91.498 34.08 92.378 35.62 93.818 36.78C95.258 37.94 96.998 38.52 99.038 38.52C101.278 38.52 103.038 38 104.318 36.96C105.598 35.88 106.238 34.38 106.238 32.46C106.238 30.46 105.558 28.94 104.198 27.9C102.838 26.86 101.158 26.34 99.158 26.34C95.998 26.34 93.238 27.5 90.878 29.82L82.418 25.62L85.538 4.68H112.598V13.32H92.918L91.358 22.38C94.158 20.22 97.718 19.14 102.038 19.14C105.718 19.14 108.938 20.28 111.698 22.56C114.458 24.84 115.838 28.2 115.838 32.64C115.838 36.96 114.278 40.38 111.158 42.9C108.078 45.42 104.038 46.68 99.038 46.68Z" fill="white"/>
</svg>
