<svg width="113" height="48" viewBox="0 0 113 48" fill="none" xmlns="http://www.w3.org/2000/svg">
<path opacity="0.5" d="M0.684 9V0.659999H7.428V9H6.252V1.704H1.86V9H0.684ZM13.3171 8.28C12.8131 8.84 12.1371 9.12 11.2891 9.12C10.4411 9.12 9.76109 8.84 9.24909 8.28C8.74509 7.712 8.49309 6.956 8.49309 6.012C8.49309 5.06 8.74509 4.3 9.24909 3.732C9.76109 3.164 10.4411 2.88 11.2891 2.88C12.1371 2.88 12.8131 3.164 13.3171 3.732C13.8211 4.3 14.0731 5.06 14.0731 6.012C14.0731 6.964 13.8211 7.72 13.3171 8.28ZM10.0651 7.596C10.3691 7.98 10.7771 8.172 11.2891 8.172C11.8011 8.172 12.2011 7.98 12.4891 7.596C12.7851 7.212 12.9331 6.68 12.9331 6C12.9331 5.32 12.7851 4.788 12.4891 4.404C12.2011 4.02 11.8011 3.828 11.2891 3.828C10.7771 3.828 10.3691 4.02 10.0651 4.404C9.76909 4.788 9.62109 5.32 9.62109 6C9.62109 6.68 9.76909 7.212 10.0651 7.596ZM20.5941 9H19.1781L17.1621 6.228L16.2381 7.104V9H15.0981V3H16.2381V5.88L19.1181 3H20.5821L17.9181 5.508L20.5941 9ZM22.2377 11.892C22.0057 11.892 21.7177 11.88 21.3737 11.856V10.836C21.7257 10.852 21.9457 10.86 22.0337 10.86C22.3617 10.86 22.6177 10.78 22.8017 10.62C22.9937 10.468 23.1697 10.196 23.3297 9.804L23.6177 9.096L21.0857 3H22.3817L24.1697 7.884L25.8377 3H27.1217L24.4097 9.936C24.1297 10.672 23.8257 11.18 23.4977 11.46C23.1697 11.748 22.7497 11.892 22.2377 11.892ZM27.9887 9V3H33.2927V9H32.1527V3.96H29.1287V9H27.9887ZM36.4126 9.12C35.7886 9.12 35.2926 8.972 34.9246 8.676C34.5566 8.372 34.3726 7.976 34.3726 7.488C34.3726 7.016 34.4966 6.636 34.7446 6.348C35.0006 6.06 35.3286 5.876 35.7286 5.796C36.1286 5.708 36.5726 5.652 37.0606 5.628C37.5566 5.604 38.0446 5.62 38.5246 5.676V5.076C38.5246 4.708 38.4126 4.412 38.1886 4.188C37.9726 3.964 37.6606 3.852 37.2526 3.852C36.8286 3.852 36.4806 3.972 36.2086 4.212C35.9446 4.444 35.7886 4.768 35.7406 5.184L34.6366 5.124C34.7006 4.42 34.9766 3.872 35.4646 3.48C35.9526 3.08 36.5486 2.88 37.2526 2.88C37.9886 2.88 38.5726 3.084 39.0046 3.492C39.4446 3.892 39.6646 4.468 39.6646 5.22V9H38.8006L38.5966 8.1C38.1886 8.78 37.4606 9.12 36.4126 9.12ZM36.6526 8.22C37.2126 8.22 37.6646 8.064 38.0086 7.752C38.3526 7.44 38.5246 7.044 38.5246 6.564V6.384C38.1646 6.36 37.8046 6.36 37.4446 6.384C37.0846 6.4 36.7606 6.432 36.4726 6.48C36.1926 6.528 35.9606 6.628 35.7766 6.78C35.6006 6.932 35.5126 7.128 35.5126 7.368C35.5126 7.632 35.6086 7.84 35.8006 7.992C36.0006 8.144 36.2846 8.22 36.6526 8.22ZM43.7791 1.98C43.2431 1.98 42.8311 1.824 42.5431 1.512C42.2551 1.192 42.1071 0.728 42.0991 0.12H42.7951C42.8191 0.552 42.9071 0.859999 43.0591 1.044C43.2191 1.22 43.4591 1.308 43.7791 1.308C44.0991 1.308 44.3351 1.22 44.4871 1.044C44.6471 0.859999 44.7311 0.552 44.7391 0.12H45.4471C45.4071 1.36 44.8511 1.98 43.7791 1.98ZM41.0551 9V3H42.1711V7.56L45.1231 3H46.4311V9H45.3151V4.428L42.3631 9H41.0551ZM49.5331 9V3.96H47.3131V3H52.8811V3.96H50.6731V9H49.5331ZM56.1733 9.12C55.3253 9.12 54.6373 8.84 54.1093 8.28C53.5813 7.712 53.3173 6.956 53.3173 6.012C53.3173 5.068 53.5693 4.312 54.0733 3.744C54.5853 3.168 55.2653 2.88 56.1133 2.88C56.9453 2.88 57.6093 3.164 58.1053 3.732C58.6013 4.3 58.8493 5.052 58.8493 5.988C58.8493 6.148 58.8453 6.26 58.8373 6.324H54.4333C54.4653 6.9 54.6333 7.356 54.9373 7.692C55.2493 8.028 55.6613 8.196 56.1733 8.196C56.5893 8.196 56.9333 8.092 57.2053 7.884C57.4853 7.668 57.6733 7.372 57.7693 6.996L58.8013 7.092C58.6493 7.74 58.3413 8.24 57.8773 8.592C57.4133 8.944 56.8453 9.12 56.1733 9.12ZM54.4573 5.508H57.7573C57.7093 4.964 57.5333 4.544 57.2293 4.248C56.9333 3.952 56.5613 3.804 56.1133 3.804C55.6573 3.804 55.2773 3.952 54.9733 4.248C54.6693 4.544 54.4973 4.964 54.4573 5.508ZM63.2738 9V3H64.4138V5.46H67.4378V3H68.5778V9H67.4378V6.408H64.4138V9H63.2738ZM71.6978 9.12C71.0738 9.12 70.5778 8.972 70.2098 8.676C69.8418 8.372 69.6578 7.976 69.6578 7.488C69.6578 7.016 69.7818 6.636 70.0298 6.348C70.2858 6.06 70.6138 5.876 71.0138 5.796C71.4138 5.708 71.8578 5.652 72.3458 5.628C72.8418 5.604 73.3298 5.62 73.8098 5.676V5.076C73.8098 4.708 73.6978 4.412 73.4738 4.188C73.2578 3.964 72.9458 3.852 72.5378 3.852C72.1138 3.852 71.7658 3.972 71.4938 4.212C71.2298 4.444 71.0738 4.768 71.0258 5.184L69.9218 5.124C69.9858 4.42 70.2618 3.872 70.7498 3.48C71.2378 3.08 71.8338 2.88 72.5378 2.88C73.2738 2.88 73.8578 3.084 74.2898 3.492C74.7298 3.892 74.9498 4.468 74.9498 5.22V9H74.0858L73.8818 8.1C73.4738 8.78 72.7458 9.12 71.6978 9.12ZM71.9378 8.22C72.4978 8.22 72.9498 8.064 73.2938 7.752C73.6378 7.44 73.8098 7.044 73.8098 6.564V6.384C73.4498 6.36 73.0898 6.36 72.7298 6.384C72.3698 6.4 72.0458 6.432 71.7578 6.48C71.4778 6.528 71.2458 6.628 71.0618 6.78C70.8858 6.932 70.7978 7.128 70.7978 7.368C70.7978 7.632 70.8938 7.84 71.0858 7.992C71.2858 8.144 71.5698 8.22 71.9378 8.22ZM0.684 27V21H1.824V23.46H4.848V21H5.988V27H4.848V24.408H1.824V27H0.684ZM9.86081 27.12C9.01281 27.12 8.32481 26.84 7.79681 26.28C7.26881 25.712 7.00481 24.956 7.00481 24.012C7.00481 23.068 7.25681 22.312 7.76081 21.744C8.27281 21.168 8.95281 20.88 9.80081 20.88C10.6328 20.88 11.2968 21.164 11.7928 21.732C12.2888 22.3 12.5368 23.052 12.5368 23.988C12.5368 24.148 12.5328 24.26 12.5248 24.324H8.12081C8.15281 24.9 8.32081 25.356 8.62481 25.692C8.93681 26.028 9.34881 26.196 9.86081 26.196C10.2768 26.196 10.6208 26.092 10.8928 25.884C11.1728 25.668 11.3608 25.372 11.4568 24.996L12.4888 25.092C12.3368 25.74 12.0288 26.24 11.5648 26.592C11.1008 26.944 10.5328 27.12 9.86081 27.12ZM8.14481 23.508H11.4448C11.3968 22.964 11.2208 22.544 10.9168 22.248C10.6208 21.952 10.2488 21.804 9.80081 21.804C9.34481 21.804 8.96481 21.952 8.66081 22.248C8.35681 22.544 8.18481 22.964 8.14481 23.508ZM16.1649 27.12C15.2929 27.12 14.6009 26.832 14.0889 26.256C13.5849 25.68 13.3329 24.932 13.3329 24.012C13.3329 23.084 13.5849 22.332 14.0889 21.756C14.6009 21.172 15.2889 20.88 16.1529 20.88C16.8809 20.88 17.4729 21.088 17.9289 21.504C18.3929 21.912 18.6809 22.48 18.7929 23.208L17.7009 23.304C17.6049 22.824 17.4209 22.46 17.1489 22.212C16.8849 21.964 16.5489 21.84 16.1409 21.84C15.6129 21.84 15.1969 22.036 14.8929 22.428C14.5969 22.812 14.4489 23.34 14.4489 24.012C14.4489 24.66 14.6009 25.18 14.9049 25.572C15.2169 25.956 15.6369 26.148 16.1649 26.148C17.0049 26.148 17.5329 25.66 17.7489 24.684L18.8289 24.78C18.7169 25.508 18.4249 26.08 17.9529 26.496C17.4889 26.912 16.8929 27.12 16.1649 27.12ZM25.3402 27H23.9242L21.9082 24.228L20.9842 25.104V27H19.8442V21H20.9842V23.88L23.8642 21H25.3282L22.6642 23.508L25.3402 27ZM30.4499 26.28C29.9459 26.84 29.2699 27.12 28.4219 27.12C27.5739 27.12 26.8939 26.84 26.3819 26.28C25.8779 25.712 25.6259 24.956 25.6259 24.012C25.6259 23.06 25.8779 22.3 26.3819 21.732C26.8939 21.164 27.5739 20.88 28.4219 20.88C29.2699 20.88 29.9459 21.164 30.4499 21.732C30.9539 22.3 31.2059 23.06 31.2059 24.012C31.2059 24.964 30.9539 25.72 30.4499 26.28ZM27.1979 25.596C27.5019 25.98 27.9099 26.172 28.4219 26.172C28.9339 26.172 29.3339 25.98 29.6219 25.596C29.9179 25.212 30.0659 24.68 30.0659 24C30.0659 23.32 29.9179 22.788 29.6219 22.404C29.3339 22.02 28.9339 21.828 28.4219 21.828C27.9099 21.828 27.5019 22.02 27.1979 22.404C26.9019 22.788 26.7539 23.32 26.7539 24C26.7539 24.68 26.9019 25.212 27.1979 25.596ZM31.5045 27.024V26.016C32.0165 26.016 32.3765 25.84 32.5845 25.488C32.7925 25.128 32.9085 24.608 32.9325 23.928L33.0525 21H37.3605V27H36.2205V21.96H34.1325L34.0485 23.916C34.0085 24.94 33.7845 25.716 33.3765 26.244C32.9685 26.764 32.3445 27.024 31.5045 27.024ZM38.6996 27V21H39.8396V23.412H41.5316C42.2116 23.412 42.7396 23.572 43.1156 23.892C43.4916 24.204 43.6796 24.64 43.6796 25.2C43.6796 25.768 43.4916 26.212 43.1156 26.532C42.7396 26.844 42.2116 27 41.5316 27H38.6996ZM39.8396 26.184H41.2676C42.1396 26.184 42.5756 25.856 42.5756 25.2C42.5756 24.552 42.1396 24.228 41.2676 24.228H39.8396V26.184ZM50.1839 27H48.7679L46.7519 24.228L45.8279 25.104V27H44.6879V21H45.8279V23.88L48.7079 21H50.1719L47.5079 23.508L50.1839 27ZM55.2937 26.28C54.7897 26.84 54.1137 27.12 53.2657 27.12C52.4177 27.12 51.7377 26.84 51.2257 26.28C50.7217 25.712 50.4697 24.956 50.4697 24.012C50.4697 23.06 50.7217 22.3 51.2257 21.732C51.7377 21.164 52.4177 20.88 53.2657 20.88C54.1137 20.88 54.7897 21.164 55.2937 21.732C55.7977 22.3 56.0497 23.06 56.0497 24.012C56.0497 24.964 55.7977 25.72 55.2937 26.28ZM52.0417 25.596C52.3457 25.98 52.7537 26.172 53.2657 26.172C53.7777 26.172 54.1777 25.98 54.4657 25.596C54.7617 25.212 54.9097 24.68 54.9097 24C54.9097 23.32 54.7617 22.788 54.4657 22.404C54.1777 22.02 53.7777 21.828 53.2657 21.828C52.7537 21.828 52.3457 22.02 52.0417 22.404C51.7457 22.788 51.5977 23.32 51.5977 24C51.5977 24.68 51.7457 25.212 52.0417 25.596ZM60.4262 27V21H62.0222L64.1822 25.8L66.3422 21H67.9262V27H66.7982V22.476L64.7342 27H63.6302L61.5662 22.476V27H60.4262ZM71.8061 27.12C70.9581 27.12 70.2701 26.84 69.7421 26.28C69.2141 25.712 68.9501 24.956 68.9501 24.012C68.9501 23.068 69.2021 22.312 69.7061 21.744C70.2181 21.168 70.8981 20.88 71.7461 20.88C72.5781 20.88 73.2421 21.164 73.7381 21.732C74.2341 22.3 74.4821 23.052 74.4821 23.988C74.4821 24.148 74.4781 24.26 74.4701 24.324H70.0661C70.0981 24.9 70.2661 25.356 70.5701 25.692C70.8821 26.028 71.2941 26.196 71.8061 26.196C72.2221 26.196 72.5661 26.092 72.8381 25.884C73.1181 25.668 73.3061 25.372 73.4021 24.996L74.4341 25.092C74.2821 25.74 73.9741 26.24 73.5101 26.592C73.0461 26.944 72.4781 27.12 71.8061 27.12ZM70.0901 23.508H73.3901C73.3421 22.964 73.1661 22.544 72.8621 22.248C72.5661 21.952 72.1941 21.804 71.7461 21.804C71.2901 21.804 70.9101 21.952 70.6061 22.248C70.3021 22.544 70.1301 22.964 70.0901 23.508ZM78.1103 27.12C77.2383 27.12 76.5463 26.832 76.0343 26.256C75.5303 25.68 75.2783 24.932 75.2783 24.012C75.2783 23.084 75.5303 22.332 76.0343 21.756C76.5463 21.172 77.2343 20.88 78.0983 20.88C78.8263 20.88 79.4183 21.088 79.8743 21.504C80.3383 21.912 80.6263 22.48 80.7383 23.208L79.6463 23.304C79.5503 22.824 79.3663 22.46 79.0943 22.212C78.8303 21.964 78.4943 21.84 78.0863 21.84C77.5583 21.84 77.1423 22.036 76.8383 22.428C76.5423 22.812 76.3943 23.34 76.3943 24.012C76.3943 24.66 76.5463 25.18 76.8503 25.572C77.1623 25.956 77.5823 26.148 78.1103 26.148C78.9503 26.148 79.4783 25.66 79.6943 24.684L80.7743 24.78C80.6623 25.508 80.3703 26.08 79.8983 26.496C79.4343 26.912 78.8383 27.12 78.1103 27.12ZM81.358 27L82.882 24.564C82.458 24.46 82.122 24.268 81.874 23.988C81.626 23.708 81.502 23.34 81.502 22.884C81.502 22.292 81.694 21.832 82.078 21.504C82.47 21.168 83.038 21 83.782 21H86.494V27H85.354V24.744H83.962L82.654 27H81.358ZM83.926 23.844H85.354V21.9H83.926C83.054 21.9 82.618 22.228 82.618 22.884C82.618 23.524 83.054 23.844 83.926 23.844ZM93.1403 26.028H94.2683V28.872H93.2363V27H87.8363V21H88.9763V26.028H92.0003V21H93.1403V26.028ZM97.6108 27.12C96.7628 27.12 96.0748 26.84 95.5468 26.28C95.0188 25.712 94.7548 24.956 94.7548 24.012C94.7548 23.068 95.0068 22.312 95.5108 21.744C96.0228 21.168 96.7028 20.88 97.5508 20.88C98.3828 20.88 99.0468 21.164 99.5428 21.732C100.039 22.3 100.287 23.052 100.287 23.988C100.287 24.148 100.283 24.26 100.275 24.324H95.8708C95.9028 24.9 96.0708 25.356 96.3748 25.692C96.6868 26.028 97.0988 26.196 97.6108 26.196C98.0268 26.196 98.3708 26.092 98.6428 25.884C98.9228 25.668 99.1108 25.372 99.2068 24.996L100.239 25.092C100.087 25.74 99.7788 26.24 99.3148 26.592C98.8508 26.944 98.2828 27.12 97.6108 27.12ZM95.8948 23.508H99.1948C99.1468 22.964 98.9708 22.544 98.6668 22.248C98.3708 21.952 97.9988 21.804 97.5508 21.804C97.0948 21.804 96.7148 21.952 96.4108 22.248C96.1068 22.544 95.9348 22.964 95.8948 23.508ZM101.372 27V21H104.276C105.708 21 106.424 21.552 106.424 22.656C106.424 23.368 106.104 23.816 105.464 24C106.152 24.192 106.496 24.64 106.496 25.344C106.496 26.448 105.772 27 104.324 27H101.372ZM102.512 23.616H104.06C104.524 23.616 104.848 23.548 105.032 23.412C105.224 23.268 105.32 23.036 105.32 22.716C105.32 22.404 105.224 22.18 105.032 22.044C104.84 21.9 104.516 21.828 104.06 21.828H102.512V23.616ZM102.512 26.172H104.096C104.552 26.172 104.88 26.1 105.08 25.956C105.28 25.812 105.38 25.584 105.38 25.272C105.38 24.96 105.28 24.736 105.08 24.6C104.888 24.456 104.56 24.384 104.096 24.384H102.512V26.172ZM0.684 45V39H1.8V43.56L4.752 39H6.06V45H4.944V40.428L1.992 45H0.684ZM10.7387 45V39H16.0427V45H14.9027V39.96H11.8787V45H10.7387ZM21.8835 44.28C21.3795 44.84 20.7035 45.12 19.8555 45.12C19.0075 45.12 18.3275 44.84 17.8155 44.28C17.3115 43.712 17.0595 42.956 17.0595 42.012C17.0595 41.06 17.3115 40.3 17.8155 39.732C18.3275 39.164 19.0075 38.88 19.8555 38.88C20.7035 38.88 21.3795 39.164 21.8835 39.732C22.3875 40.3 22.6395 41.06 22.6395 42.012C22.6395 42.964 22.3875 43.72 21.8835 44.28ZM18.6315 43.596C18.9355 43.98 19.3435 44.172 19.8555 44.172C20.3675 44.172 20.7675 43.98 21.0555 43.596C21.3515 43.212 21.4995 42.68 21.4995 42C21.4995 41.32 21.3515 40.788 21.0555 40.404C20.7675 40.02 20.3675 39.828 19.8555 39.828C19.3435 39.828 18.9355 40.02 18.6315 40.404C18.3355 40.788 18.1875 41.32 18.1875 42C18.1875 42.68 18.3355 43.212 18.6315 43.596ZM22.9381 45.024V44.016C23.4501 44.016 23.8101 43.84 24.0181 43.488C24.2261 43.128 24.3421 42.608 24.3661 41.928L24.4861 39H28.7941V45H27.6541V39.96H25.5661L25.4821 41.916C25.4421 42.94 25.2181 43.716 24.8101 44.244C24.4021 44.764 23.7781 45.024 22.9381 45.024ZM30.7924 47.892C30.5604 47.892 30.2724 47.88 29.9284 47.856V46.836C30.2804 46.852 30.5004 46.86 30.5884 46.86C30.9164 46.86 31.1724 46.78 31.3564 46.62C31.5484 46.468 31.7244 46.196 31.8844 45.804L32.1724 45.096L29.6404 39H30.9364L32.7244 43.884L34.3924 39H35.6764L32.9644 45.936C32.6844 46.672 32.3804 47.18 32.0524 47.46C31.7244 47.748 31.3044 47.892 30.7924 47.892ZM40.3351 45V42.672C39.8631 42.92 39.3391 43.044 38.7631 43.044C38.0751 43.044 37.5191 42.888 37.0951 42.576C36.6711 42.256 36.4591 41.752 36.4591 41.064V39H37.5991V40.98C37.5991 41.372 37.7111 41.652 37.9351 41.82C38.1591 41.988 38.4991 42.072 38.9551 42.072C39.4591 42.072 39.9191 41.976 40.3351 41.784V39H41.4751V45H40.3351ZM44.604 45.12C43.98 45.12 43.484 44.972 43.116 44.676C42.748 44.372 42.564 43.976 42.564 43.488C42.564 43.016 42.688 42.636 42.936 42.348C43.192 42.06 43.52 41.876 43.92 41.796C44.32 41.708 44.764 41.652 45.252 41.628C45.748 41.604 46.236 41.62 46.716 41.676V41.076C46.716 40.708 46.604 40.412 46.38 40.188C46.164 39.964 45.852 39.852 45.444 39.852C45.02 39.852 44.672 39.972 44.4 40.212C44.136 40.444 43.98 40.768 43.932 41.184L42.828 41.124C42.892 40.42 43.168 39.872 43.656 39.48C44.144 39.08 44.74 38.88 45.444 38.88C46.18 38.88 46.764 39.084 47.196 39.492C47.636 39.892 47.856 40.468 47.856 41.22V45H46.992L46.788 44.1C46.38 44.78 45.652 45.12 44.604 45.12ZM44.844 44.22C45.404 44.22 45.856 44.064 46.2 43.752C46.544 43.44 46.716 43.044 46.716 42.564V42.384C46.356 42.36 45.996 42.36 45.636 42.384C45.276 42.4 44.952 42.432 44.664 42.48C44.384 42.528 44.152 42.628 43.968 42.78C43.792 42.932 43.704 43.128 43.704 43.368C43.704 43.632 43.8 43.84 43.992 43.992C44.192 44.144 44.476 44.22 44.844 44.22ZM51.9705 37.98C51.4345 37.98 51.0225 37.824 50.7345 37.512C50.4465 37.192 50.2985 36.728 50.2905 36.12H50.9865C51.0105 36.552 51.0985 36.86 51.2505 37.044C51.4105 37.22 51.6505 37.308 51.9705 37.308C52.2905 37.308 52.5265 37.22 52.6785 37.044C52.8385 36.86 52.9225 36.552 52.9305 36.12H53.6385C53.5985 37.36 53.0425 37.98 51.9705 37.98ZM49.2465 45V39H50.3625V43.56L53.3145 39H54.6225V45H53.5065V40.428L50.5545 45H49.2465ZM57.7245 45V39.96H55.5045V39H61.0725V39.96H58.8645V45H57.7245ZM64.3647 45.12C63.5167 45.12 62.8287 44.84 62.3007 44.28C61.7727 43.712 61.5087 42.956 61.5087 42.012C61.5087 41.068 61.7607 40.312 62.2647 39.744C62.7767 39.168 63.4567 38.88 64.3047 38.88C65.1367 38.88 65.8007 39.164 66.2967 39.732C66.7927 40.3 67.0407 41.052 67.0407 41.988C67.0407 42.148 67.0367 42.26 67.0287 42.324H62.6247C62.6567 42.9 62.8247 43.356 63.1287 43.692C63.4407 44.028 63.8527 44.196 64.3647 44.196C64.7807 44.196 65.1247 44.092 65.3967 43.884C65.6767 43.668 65.8647 43.372 65.9607 42.996L66.9927 43.092C66.8407 43.74 66.5327 44.24 66.0687 44.592C65.6047 44.944 65.0367 45.12 64.3647 45.12ZM62.6487 41.508H65.9487C65.9007 40.964 65.7247 40.544 65.4207 40.248C65.1247 39.952 64.7527 39.804 64.3047 39.804C63.8487 39.804 63.4687 39.952 63.1647 40.248C62.8607 40.544 62.6887 40.964 62.6487 41.508ZM73.9853 45.12C73.1133 45.12 72.4213 44.832 71.9093 44.256C71.4053 43.68 71.1533 42.932 71.1533 42.012C71.1533 41.084 71.4053 40.332 71.9093 39.756C72.4213 39.172 73.1093 38.88 73.9733 38.88C74.7013 38.88 75.2933 39.088 75.7493 39.504C76.2133 39.912 76.5013 40.48 76.6133 41.208L75.5213 41.304C75.4253 40.824 75.2413 40.46 74.9693 40.212C74.7053 39.964 74.3693 39.84 73.9613 39.84C73.4333 39.84 73.0173 40.036 72.7133 40.428C72.4173 40.812 72.2693 41.34 72.2693 42.012C72.2693 42.66 72.4213 43.18 72.7253 43.572C73.0373 43.956 73.4573 44.148 73.9853 44.148C74.8253 44.148 75.3533 43.66 75.5693 42.684L76.6493 42.78C76.5373 43.508 76.2453 44.08 75.7733 44.496C75.3093 44.912 74.7133 45.12 73.9853 45.12ZM83.1605 45H81.7445L79.7285 42.228L78.8045 43.104V45H77.6645V39H78.8045V41.88L81.6845 39H83.1485L80.4845 41.508L83.1605 45ZM83.9457 45V39H85.0617V43.56L88.0137 39H89.3217V45H88.2057V40.428L85.2537 45H83.9457ZM89.9705 46.824V44.028H91.0025C91.2905 43.46 91.4585 42.76 91.5065 41.928L91.6865 39H95.9465V44.028H97.0265V46.824H95.9945V45H91.0025V46.824H89.9705ZM92.1665 44.028H94.8185V39.96H92.7425L92.6105 41.988C92.5465 42.836 92.3985 43.516 92.1665 44.028ZM103.352 45H101.936L99.9199 42.228L98.9959 43.104V45H97.8559V39H98.9959V41.88L101.876 39H103.34L100.676 41.508L103.352 45ZM104.996 47.892C104.764 47.892 104.476 47.88 104.132 47.856V46.836C104.484 46.852 104.704 46.86 104.792 46.86C105.12 46.86 105.376 46.78 105.56 46.62C105.752 46.468 105.928 46.196 106.088 45.804L106.376 45.096L103.844 39H105.14L106.928 43.884L108.596 39H109.88L107.168 45.936C106.888 46.672 106.584 47.18 106.256 47.46C105.928 47.748 105.508 47.892 104.996 47.892ZM110.843 42.804L110.747 36.66H111.995L111.899 42.804H110.843ZM110.723 45.096V43.764H112.031V45.096H110.723Z" fill="white"/>
</svg>
