<svg width="121" height="40" viewBox="0 0 121 40" fill="none" xmlns="http://www.w3.org/2000/svg">
<path d="M28.1081 26.604C28.1081 29.3302 27.1054 31.5864 25.0999 33.3725C23.1257 35.1586 20.4152 36.224 16.9683 36.5687V40H12.0329V36.5217C8.80533 36.1144 6.12613 35.0333 3.9953 33.2785C1.86447 31.4924 0.532707 29.0482 0 25.9459L7.61457 25.2879C7.9906 27.8574 9.46338 29.5182 12.0329 30.2703V22.7497L10.9988 22.6087C7.9906 22.17 5.64042 21.1516 3.9483 19.5535C2.25617 17.924 1.41011 15.8559 1.41011 13.349C1.41011 10.6228 2.38151 8.35096 4.32432 6.53349C6.29847 4.71602 8.868 3.63494 12.0329 3.29025V0H16.9683V3.43126C19.9765 3.90129 22.3737 5.07638 24.1598 6.95652C25.9459 8.80533 26.9487 11.2965 27.168 14.4301L20.2585 14.9941C19.8825 12.3619 18.7857 10.6228 16.9683 9.77674V16.9213L18.8014 17.2033C21.653 17.6107 23.9091 18.6134 25.5699 20.2115C27.262 21.7783 28.1081 23.9091 28.1081 26.604ZM8.74266 13.349C8.74266 14.8531 9.8394 15.8089 12.0329 16.2162V9.44771C9.8394 10.0118 8.74266 11.3122 8.74266 13.349ZM16.9683 30.3643C18.159 30.1136 19.0834 29.6592 19.7415 29.0012C20.3995 28.3431 20.7286 27.5597 20.7286 26.651C20.7286 25.7736 20.4309 25.0842 19.8355 24.5828C19.2401 24.0501 18.2844 23.6741 16.9683 23.4548V30.3643Z" fill="white"/>
<path d="M48.7434 36.3337V29.2362H31.2111V23.3608L46.6282 3.66627H56.2169V22.9847H60.6823V29.2362H56.2169V36.3337H48.7434ZM39.5777 22.9847H48.7434V11.0458L39.5777 22.9847Z" fill="white"/>
<path d="M77.5856 36.5687C73.9819 36.5687 70.8797 35.6443 68.2789 33.7955C65.678 31.9154 64.1739 29.2989 63.7665 25.9459L71.4281 25.1939C71.6788 26.698 72.3682 27.9044 73.4962 28.8132C74.6243 29.7219 75.9874 30.1763 77.5856 30.1763C79.3404 30.1763 80.7191 29.7689 81.7219 28.9542C82.7246 28.1081 83.226 26.933 83.226 25.4289C83.226 23.8621 82.6933 22.6714 81.6279 21.8566C80.5624 21.0419 79.2463 20.6345 77.6796 20.6345C75.204 20.6345 73.0419 21.5433 71.1931 23.3608L64.5656 20.0705L67.0098 3.66627H88.2084V10.4348H72.7912L71.5691 17.5323C73.7626 15.8402 76.5515 14.9941 79.9357 14.9941C82.8186 14.9941 85.3411 15.8872 87.5033 17.6733C89.6655 19.4595 90.7465 22.0917 90.7465 25.5699C90.7465 28.9542 89.5245 31.6334 87.0803 33.6075C84.6674 35.5817 81.5025 36.5687 77.5856 36.5687Z" fill="white"/>
<path d="M106.299 36.5687C104.952 36.5687 103.667 36.4121 102.445 36.0987C101.223 35.7853 100.001 35.284 98.7786 34.5946C97.5565 33.8739 96.5068 32.8398 95.6294 31.4924C94.752 30.1449 94.1566 28.5468 93.8433 26.698L100.894 26.134C101.238 27.6067 101.897 28.6878 102.868 29.3772C103.839 30.0353 104.983 30.3643 106.299 30.3643C108.117 30.3643 109.636 29.7532 110.859 28.5311C112.112 27.2777 112.786 25.2722 112.88 22.5147C110.937 24.1755 108.461 25.0059 105.453 25.0059C101.756 25.0059 98.8256 24.0345 96.6635 22.0917C94.5326 20.1488 93.4672 17.6577 93.4672 14.6181C93.4672 11.3592 94.658 8.67998 97.0395 6.58049C99.4524 4.481 102.617 3.43126 106.534 3.43126C110.702 3.43126 113.992 4.73169 116.405 7.33255C118.818 9.93341 120.024 13.819 120.024 18.9894C120.024 21.6216 119.742 23.9718 119.178 26.04C118.645 28.1081 117.94 29.8002 117.063 31.1163C116.186 32.4011 115.136 33.4665 113.914 34.3126C112.692 35.1586 111.454 35.754 110.2 36.0987C108.978 36.4121 107.678 36.5687 106.299 36.5687ZM106.581 19.3655C108.305 19.3655 109.683 18.9111 110.718 18.0024C111.752 17.0936 112.269 15.9655 112.269 14.6181C112.269 13.1767 111.767 12.0016 110.765 11.0928C109.762 10.1841 108.352 9.72973 106.534 9.72973C104.685 9.72973 103.275 10.1841 102.304 11.0928C101.364 11.9702 100.894 13.1453 100.894 14.6181C100.894 15.9969 101.395 17.1406 102.398 18.0494C103.401 18.9268 104.795 19.3655 106.581 19.3655Z" fill="white"/>
</svg>
