<svg width="62" height="62" viewBox="0 0 62 62" fill="none" xmlns="http://www.w3.org/2000/svg">
<g opacity="0.5">
<path d="M14.568 54.92C14.568 56.248 14.048 57.36 13.008 58.256C11.984 59.152 10.6 59.656 8.856 59.768V61.472H7.176V59.744C5.496 59.6 4.096 59.08 2.976 58.184C1.872 57.272 1.168 56.04 0.864 54.488L3.264 54.248C3.44 55.256 3.872 56.056 4.56 56.648C5.248 57.24 6.12 57.608 7.176 57.752V52.04L6.48 51.944C4.928 51.704 3.744 51.216 2.928 50.48C2.112 49.744 1.704 48.768 1.704 47.552C1.704 46.176 2.208 45.048 3.216 44.168C4.224 43.272 5.544 42.776 7.176 42.68V41H8.856V42.728C10.328 42.92 11.52 43.48 12.432 44.408C13.36 45.32 13.904 46.576 14.064 48.176L11.904 48.368C11.632 46.304 10.616 45.088 8.856 44.72V50.168L9.888 50.336C13.008 50.832 14.568 52.36 14.568 54.92ZM6.816 49.856L7.176 49.904V44.624C6.2 44.704 5.424 45.008 4.848 45.536C4.272 46.048 3.984 46.72 3.984 47.552C3.984 48.208 4.216 48.72 4.68 49.088C5.144 49.456 5.856 49.712 6.816 49.856ZM8.856 57.8C9.912 57.688 10.744 57.376 11.352 56.864C11.976 56.336 12.288 55.688 12.288 54.92C12.288 54.184 12.064 53.624 11.616 53.24C11.168 52.84 10.416 52.552 9.36 52.376L8.856 52.304V57.8Z" fill="white"/>
<path d="M22.9389 59.696C21.2909 59.696 19.8509 59.256 18.6189 58.376C17.4029 57.48 16.6749 56.168 16.4349 54.44L18.7389 54.2C18.9149 55.352 19.3869 56.224 20.1549 56.816C20.9229 57.392 21.8509 57.68 22.9389 57.68C24.0909 57.68 25.0189 57.352 25.7229 56.696C26.4269 56.04 26.7789 55.168 26.7789 54.08C26.7789 52.992 26.4269 52.136 25.7229 51.512C25.0349 50.872 24.1389 50.552 23.0349 50.552C21.6269 50.552 20.3389 51.088 19.1709 52.16L17.0349 51.08L18.3789 42.896H28.1229V44.984H20.2269L19.3389 50.12C20.5549 49.176 21.9789 48.704 23.6109 48.704C25.1629 48.704 26.4669 49.192 27.5229 50.168C28.5789 51.128 29.1069 52.448 29.1069 54.128C29.1069 55.776 28.5229 57.12 27.3549 58.16C26.2029 59.184 24.7309 59.696 22.9389 59.696Z" fill="white"/>
<path d="M40.0823 59.576V55.4H30.8902V53.576L39.4103 42.896H42.3862V53.408H44.9782V55.4H42.3862V59.576H40.0823ZM33.6022 53.408H40.0823V45.224L33.6022 53.408Z" fill="white"/>
<path d="M58.2831 57.512C57.1151 58.968 55.4991 59.696 53.4351 59.696C51.3711 59.696 49.7391 58.968 48.5391 57.512C47.3391 56.04 46.7391 53.944 46.7391 51.224C46.7391 48.504 47.3391 46.408 48.5391 44.936C49.7391 43.448 51.3711 42.704 53.4351 42.704C55.4991 42.704 57.1151 43.448 58.2831 44.936C59.4671 46.408 60.0591 48.504 60.0591 51.224C60.0591 53.96 59.4671 56.056 58.2831 57.512ZM53.4591 57.632C54.8351 57.632 55.8911 57.08 56.6271 55.976C57.3631 54.872 57.7311 53.288 57.7311 51.224C57.7311 49.144 57.3631 47.552 56.6271 46.448C55.8911 45.328 54.8351 44.768 53.4591 44.768C52.0511 44.768 50.9631 45.328 50.1951 46.448C49.4431 47.552 49.0671 49.144 49.0671 51.224C49.0671 53.288 49.4431 54.872 50.1951 55.976C50.9631 57.08 52.0511 57.632 53.4591 57.632Z" fill="white"/>
<path d="M0 52.376H61.2831V53.576H0V52.376Z" fill="white"/>
</g>
<path d="M0 11.808V9.144H9.36V11.808H0Z" fill="white"/>
<path d="M11.8399 16.872V14.256H16.5199V5.64C16.1999 6.088 15.6079 6.44 14.7439 6.696C13.8799 6.936 12.9119 7.056 11.8399 7.056V4.44C13.4239 4.408 14.6399 4.056 15.4879 3.384C16.3519 2.712 16.8399 1.648 16.9519 0.191999H19.6399V14.256H23.4559V16.872H11.8399Z" fill="white"/>
<path d="M31.7033 16.992C29.9593 16.992 28.4473 16.536 27.1672 15.624C25.9032 14.696 25.1593 13.368 24.9352 11.64L28.0312 11.328C28.1912 12.288 28.6073 13.032 29.2793 13.56C29.9513 14.088 30.7593 14.352 31.7033 14.352C32.7272 14.352 33.5432 14.088 34.1512 13.56C34.7592 13.016 35.0633 12.28 35.0633 11.352C35.0633 10.408 34.7513 9.672 34.1273 9.144C33.5192 8.616 32.7352 8.352 31.7752 8.352C30.4473 8.352 29.2553 8.856 28.1993 9.864L25.4153 8.472L26.7113 0.191999H37.0073V2.976H29.1353L28.3673 7.344C29.5193 6.448 30.9513 6 32.6632 6C34.1673 6 35.4553 6.472 36.5273 7.416C37.6153 8.344 38.1593 9.672 38.1593 11.4C38.1593 13.096 37.5592 14.456 36.3592 15.48C35.1592 16.488 33.6073 16.992 31.7033 16.992Z" fill="white"/>
<path d="M43.9661 8.928C42.7501 8.928 41.7741 8.512 41.0381 7.68C40.3181 6.848 39.9581 5.784 39.9581 4.488C39.9581 3.192 40.3181 2.12 41.0381 1.272C41.7741 0.424 42.7501 0 43.9661 0C45.1981 0 46.1661 0.424 46.8701 1.272C47.5901 2.104 47.9501 3.176 47.9501 4.488C47.9501 5.8 47.5901 6.872 46.8701 7.704C46.1661 8.52 45.1981 8.928 43.9661 8.928ZM43.8221 16.872L53.3021 0.191999H56.3501L46.8701 16.872H43.8221ZM42.8381 6.048C43.0941 6.448 43.4701 6.648 43.9661 6.648C44.4621 6.648 44.8301 6.448 45.0701 6.048C45.3261 5.632 45.4541 5.112 45.4541 4.488C45.4541 3.864 45.3261 3.344 45.0701 2.928C44.8301 2.496 44.4621 2.28 43.9661 2.28C43.4701 2.28 43.0941 2.496 42.8381 2.928C42.5981 3.344 42.4781 3.864 42.4781 4.488C42.4781 5.112 42.5981 5.632 42.8381 6.048ZM56.1341 17.064C54.9181 17.064 53.9501 16.648 53.2301 15.816C52.5101 14.984 52.1501 13.92 52.1501 12.624C52.1501 11.328 52.5101 10.256 53.2301 9.408C53.9501 8.56 54.9181 8.136 56.1341 8.136C57.3661 8.136 58.3421 8.56 59.0621 9.408C59.7821 10.24 60.1421 11.312 60.1421 12.624C60.1421 13.92 59.7821 14.984 59.0621 15.816C58.3421 16.648 57.3661 17.064 56.1341 17.064ZM56.1581 14.784C56.6381 14.784 57.0061 14.576 57.2621 14.16C57.5181 13.744 57.6461 13.232 57.6461 12.624C57.6461 12.016 57.5181 11.496 57.2621 11.064C57.0061 10.632 56.6381 10.416 56.1581 10.416C55.6621 10.416 55.2861 10.632 55.0301 11.064C54.7741 11.48 54.6461 12 54.6461 12.624C54.6461 13.232 54.7741 13.744 55.0301 14.16C55.2861 14.576 55.6621 14.784 56.1581 14.784Z" fill="white"/>
</svg>
