<svg width="153" height="22" viewBox="0 0 153 22" fill="none" xmlns="http://www.w3.org/2000/svg">
<path d="M0 15.0892V12.4252H9.36V15.0892H0Z" fill="white"/>
<path d="M11.8399 20.1532V17.5373H16.5199V8.92125C16.1999 9.36925 15.6079 9.72125 14.7439 9.97725C13.8799 10.2172 12.9119 10.3372 11.8399 10.3372V7.72125C13.4239 7.68925 14.6399 7.33725 15.4879 6.66525C16.3519 5.99325 16.8399 4.92925 16.9519 3.47325H19.6399V17.5373H23.4559V20.1532H11.8399Z" fill="white"/>
<path d="M31.7033 20.2733C29.9593 20.2733 28.4472 19.8173 27.1672 18.9053C25.9032 17.9773 25.1592 16.6493 24.9352 14.9213L28.0312 14.6093C28.1912 15.5693 28.6073 16.3132 29.2793 16.8412C29.9513 17.3692 30.7593 17.6333 31.7033 17.6333C32.7273 17.6333 33.5432 17.3692 34.1512 16.8412C34.7592 16.2972 35.0633 15.5613 35.0633 14.6333C35.0633 13.6893 34.7513 12.9532 34.1273 12.4252C33.5193 11.8972 32.7352 11.6332 31.7752 11.6332C30.4472 11.6332 29.2553 12.1372 28.1993 13.1452L25.4153 11.7533L26.7113 3.47325H37.0073V6.25725H29.1353L28.3673 10.6252C29.5193 9.72925 30.9513 9.28125 32.6632 9.28125C34.1673 9.28125 35.4553 9.75325 36.5273 10.6972C37.6153 11.6252 38.1593 12.9532 38.1593 14.6812C38.1593 16.3772 37.5592 17.7373 36.3592 18.7613C35.1592 19.7693 33.6073 20.2733 31.7033 20.2733Z" fill="white"/>
<path d="M43.9661 12.2092C42.7501 12.2092 41.7741 11.7932 41.0381 10.9612C40.3181 10.1292 39.9581 9.06525 39.9581 7.76925C39.9581 6.47325 40.3181 5.40125 41.0381 4.55325C41.7741 3.70525 42.7501 3.28125 43.9661 3.28125C45.1981 3.28125 46.1661 3.70525 46.8701 4.55325C47.5901 5.38525 47.9501 6.45725 47.9501 7.76925C47.9501 9.08125 47.5901 10.1532 46.8701 10.9852C46.1661 11.8012 45.1981 12.2092 43.9661 12.2092ZM43.8221 20.1532L53.3021 3.47325H56.3501L46.8701 20.1532H43.8221ZM42.8381 9.32925C43.0941 9.72925 43.4701 9.92925 43.9661 9.92925C44.4621 9.92925 44.8301 9.72925 45.0701 9.32925C45.3261 8.91325 45.4541 8.39325 45.4541 7.76925C45.4541 7.14525 45.3261 6.62525 45.0701 6.20925C44.8301 5.77725 44.4621 5.56125 43.9661 5.56125C43.4701 5.56125 43.0941 5.77725 42.8381 6.20925C42.5981 6.62525 42.4781 7.14525 42.4781 7.76925C42.4781 8.39325 42.5981 8.91325 42.8381 9.32925ZM56.1341 20.3453C54.9181 20.3453 53.9501 19.9293 53.2301 19.0972C52.5101 18.2653 52.1501 17.2013 52.1501 15.9053C52.1501 14.6093 52.5101 13.5373 53.2301 12.6892C53.9501 11.8412 54.9181 11.4172 56.1341 11.4172C57.3661 11.4172 58.3421 11.8412 59.0621 12.6892C59.7821 13.5213 60.1421 14.5933 60.1421 15.9053C60.1421 17.2013 59.7821 18.2653 59.0621 19.0972C58.3421 19.9293 57.3661 20.3453 56.1341 20.3453ZM56.1581 18.0653C56.6381 18.0653 57.0061 17.8572 57.2621 17.4412C57.5181 17.0252 57.6461 16.5133 57.6461 15.9053C57.6461 15.2973 57.5181 14.7773 57.2621 14.3453C57.0061 13.9132 56.6381 13.6972 56.1581 13.6972C55.6621 13.6972 55.2861 13.9132 55.0301 14.3453C54.7741 14.7613 54.6461 15.2813 54.6461 15.9053C54.6461 16.5133 54.7741 17.0252 55.0301 17.4412C55.2861 17.8572 55.6621 18.0653 56.1581 18.0653Z" fill="white"/>
<g opacity="0.5">
<path d="M105.568 13.92C105.568 15.248 105.048 16.36 104.008 17.256C102.984 18.152 101.6 18.656 99.856 18.768V20.472H98.176V18.744C96.496 18.6 95.096 18.08 93.976 17.184C92.872 16.272 92.168 15.04 91.864 13.488L94.264 13.248C94.44 14.256 94.872 15.056 95.56 15.648C96.248 16.24 97.12 16.608 98.176 16.752V11.04L97.48 10.944C95.928 10.704 94.744 10.216 93.928 9.48C93.112 8.744 92.704 7.768 92.704 6.552C92.704 5.176 93.208 4.048 94.216 3.168C95.224 2.272 96.544 1.776 98.176 1.68V0H99.856V1.728C101.328 1.92 102.52 2.48 103.432 3.408C104.36 4.32 104.904 5.576 105.064 7.176L102.904 7.368C102.632 5.304 101.616 4.088 99.856 3.72V9.168L100.888 9.336C104.008 9.832 105.568 11.36 105.568 13.92ZM97.816 8.856L98.176 8.904V3.624C97.2 3.704 96.424 4.008 95.848 4.536C95.272 5.048 94.984 5.72 94.984 6.552C94.984 7.208 95.216 7.72 95.68 8.088C96.144 8.456 96.856 8.712 97.816 8.856ZM99.856 16.8C100.912 16.688 101.744 16.376 102.352 15.864C102.976 15.336 103.288 14.688 103.288 13.92C103.288 13.184 103.064 12.624 102.616 12.24C102.168 11.84 101.416 11.552 100.36 11.376L99.856 11.304V16.8Z" fill="white"/>
<path d="M113.939 18.696C112.291 18.696 110.851 18.256 109.619 17.376C108.403 16.48 107.675 15.168 107.435 13.44L109.739 13.2C109.915 14.352 110.387 15.224 111.155 15.816C111.923 16.392 112.851 16.68 113.939 16.68C115.091 16.68 116.019 16.352 116.723 15.696C117.427 15.04 117.779 14.168 117.779 13.08C117.779 11.992 117.427 11.136 116.723 10.512C116.035 9.872 115.139 9.552 114.035 9.552C112.627 9.552 111.339 10.088 110.171 11.16L108.035 10.08L109.379 1.896H119.123V3.984H111.227L110.339 9.12C111.555 8.176 112.979 7.704 114.611 7.704C116.163 7.704 117.467 8.192 118.523 9.168C119.579 10.128 120.107 11.448 120.107 13.128C120.107 14.776 119.523 16.12 118.355 17.16C117.203 18.184 115.731 18.696 113.939 18.696Z" fill="white"/>
<path d="M131.082 18.576V14.4H121.89V12.576L130.41 1.896H133.386V12.408H135.978V14.4H133.386V18.576H131.082ZM124.602 12.408H131.082V4.224L124.602 12.408Z" fill="white"/>
<path d="M149.283 16.512C148.115 17.968 146.499 18.696 144.435 18.696C142.371 18.696 140.739 17.968 139.539 16.512C138.339 15.04 137.739 12.944 137.739 10.224C137.739 7.504 138.339 5.408 139.539 3.936C140.739 2.448 142.371 1.704 144.435 1.704C146.499 1.704 148.115 2.448 149.283 3.936C150.467 5.408 151.059 7.504 151.059 10.224C151.059 12.96 150.467 15.056 149.283 16.512ZM144.459 16.632C145.835 16.632 146.891 16.08 147.627 14.976C148.363 13.872 148.731 12.288 148.731 10.224C148.731 8.144 148.363 6.552 147.627 5.448C146.891 4.328 145.835 3.768 144.459 3.768C143.051 3.768 141.963 4.328 141.195 5.448C140.443 6.552 140.067 8.144 140.067 10.224C140.067 12.288 140.443 13.872 141.195 14.976C141.963 16.08 143.051 16.632 144.459 16.632Z" fill="white"/>
<path d="M91 11.376H152.283V12.576H91V11.376Z" fill="white"/>
</g>
</svg>
