<svg width="119" height="52" viewBox="0 0 119 52" fill="none" xmlns="http://www.w3.org/2000/svg">
<path d="M36.478 34.526C36.478 38.064 35.1767 40.992 32.574 43.31C30.012 45.628 26.4943 47.0107 22.021 47.458V51.911H15.616V47.397C11.4273 46.8683 7.95033 45.4653 5.185 43.188C2.41967 40.87 0.691333 37.698 0 33.672L9.882 32.818C10.37 36.1527 12.2813 38.308 15.616 39.284V29.524L14.274 29.341C10.37 28.7717 7.32 27.45 5.124 25.376C2.928 23.2613 1.83 20.5773 1.83 17.324C1.83 13.786 3.09067 10.8377 5.612 8.479C8.174 6.12034 11.5087 4.71733 15.616 4.27V0H22.021V4.453C25.925 5.063 29.036 6.588 31.354 9.028C33.672 11.4273 34.9733 14.6603 35.258 18.727L26.291 19.459C25.803 16.043 24.3797 13.786 22.021 12.688V21.96L24.4 22.326C28.1007 22.8547 31.0287 24.156 33.184 26.23C35.38 28.2633 36.478 31.0287 36.478 34.526ZM11.346 17.324C11.346 19.276 12.7693 20.5163 15.616 21.045V12.261C12.7693 12.993 11.346 14.6807 11.346 17.324ZM22.021 39.406C23.5663 39.0807 24.766 38.491 25.62 37.637C26.474 36.783 26.901 35.7663 26.901 34.587C26.901 33.4483 26.5147 32.5537 25.742 31.903C24.9693 31.2117 23.729 30.7237 22.021 30.439V39.406Z" fill="white"/>
<path d="M51.7418 47.153C51.7418 43.0457 52.1282 39.2637 52.9008 35.807C53.7142 32.3503 54.8732 29.28 56.3778 26.596C57.8825 23.8713 59.4482 21.5127 61.0748 19.52C62.7422 17.5273 64.6942 15.5347 66.9308 13.542H41.0668V4.758H74.0068L76.7518 14.701C73.0105 17.7917 70.0825 20.74 67.9678 23.546C65.8938 26.3113 64.3078 29.6053 63.2098 33.428C62.1525 37.21 61.6238 41.785 61.6238 47.153H51.7418Z" fill="white"/>
<path d="M103.38 46.7V37.64H81V30.14L100.68 5H112.92V29.66H118.62V37.64H112.92V46.7H103.38ZM91.68 29.66H103.38V14.42L91.68 29.66Z" fill="white"/>
</svg>
