<svg width="92" height="40" viewBox="0 0 92 40" fill="none" xmlns="http://www.w3.org/2000/svg">
<path d="M28.1081 26.604C28.1081 29.3302 27.1054 31.5864 25.0999 33.3725C23.1257 35.1586 20.4152 36.224 16.9683 36.5687V40H12.0329V36.5217C8.80533 36.1144 6.12613 35.0333 3.9953 33.2785C1.86447 31.4924 0.532707 29.0482 0 25.9459L7.61457 25.2879C7.9906 27.8574 9.46337 29.5182 12.0329 30.2703V22.7497L10.9988 22.6087C7.9906 22.17 5.64042 21.1516 3.9483 19.5535C2.25617 17.924 1.41011 15.8559 1.41011 13.349C1.41011 10.6228 2.38151 8.35096 4.32432 6.53349C6.29847 4.71602 8.868 3.63494 12.0329 3.29025V0H16.9683V3.43126C19.9765 3.90129 22.3737 5.07638 24.1598 6.95652C25.9459 8.80533 26.9487 11.2965 27.168 14.4301L20.2585 14.9941C19.8825 12.3619 18.7857 10.6228 16.9683 9.77673V16.9213L18.8014 17.2033C21.653 17.6107 23.9091 18.6134 25.5699 20.2115C27.262 21.7783 28.1081 23.9091 28.1081 26.604ZM8.74265 13.349C8.74265 14.8531 9.8394 15.8089 12.0329 16.2162V9.44771C9.8394 10.0118 8.74265 11.3122 8.74265 13.349ZM16.9683 30.3643C18.159 30.1136 19.0834 29.6592 19.7415 29.0012C20.3995 28.3431 20.7286 27.5597 20.7286 26.651C20.7286 25.7736 20.4309 25.0842 19.8355 24.5828C19.2401 24.0501 18.2844 23.6741 16.9683 23.4548V30.3643Z" fill="white"/>
<path d="M39.8696 36.3337C39.8696 33.1688 40.1673 30.2546 40.7627 27.5911C41.3894 24.9275 42.2825 22.5617 43.4419 20.4935C44.6013 18.394 45.8077 16.5766 47.0612 15.0411C48.3459 13.5057 49.85 11.9702 51.5735 10.4348H31.644V3.66628H57.0259L59.1411 11.3279C56.2582 13.7094 54.002 15.9812 52.3726 18.1434C50.7745 20.2742 49.5524 22.8124 48.7063 25.7579C47.8916 28.6721 47.4842 32.1974 47.4842 36.3337H39.8696Z" fill="white"/>
<path d="M79.659 35.9854V29.0043H62.4141V23.2251L77.5785 3.85352H87.01V22.8553H91.4021V29.0043H87.01V35.9854H79.659ZM70.6435 22.8553H79.659V11.1121L70.6435 22.8553Z" fill="white"/>
</svg>
