<svg width="158" height="53" viewBox="0 0 158 53" fill="none" xmlns="http://www.w3.org/2000/svg">
<path d="M37.076 35.092C37.076 38.688 35.7533 41.664 33.108 44.02C30.504 46.376 26.9287 47.7813 22.382 48.236V52.762H15.872V48.174C11.6147 47.6367 8.08067 46.2107 5.27 43.896C2.45933 41.54 0.702667 38.316 0 34.224L10.044 33.356C10.54 36.7453 12.4827 38.936 15.872 39.928V30.008L14.508 29.822C10.54 29.2433 7.44 27.9 5.208 25.792C2.976 23.6427 1.86 20.9147 1.86 17.608C1.86 14.012 3.14133 11.0153 5.704 8.618C8.308 6.22067 11.6973 4.79467 15.872 4.34V0H22.382V4.526C26.35 5.146 29.512 6.696 31.868 9.176C34.224 11.6147 35.5467 14.9007 35.836 19.034L26.722 19.778C26.226 16.306 24.7793 14.012 22.382 12.896V22.32L24.8 22.692C28.5613 23.2293 31.5373 24.552 33.728 26.66C35.96 28.7267 37.076 31.5373 37.076 35.092ZM11.532 17.608C11.532 19.592 12.9787 20.8527 15.872 21.39V12.462C12.9787 13.206 11.532 14.9213 11.532 17.608ZM22.382 40.052C23.9527 39.7213 25.172 39.122 26.04 38.254C26.908 37.386 27.342 36.3527 27.342 35.154C27.342 33.9967 26.9493 33.0873 26.164 32.426C25.3787 31.7233 24.118 31.2273 22.382 30.938V40.052Z" fill="white"/>
<path d="M52.59 47.926C52.59 43.7513 52.9827 39.9073 53.768 36.394C54.5947 32.8807 55.7727 29.76 57.302 27.032C58.8314 24.2627 60.4227 21.8653 62.076 19.84C63.7707 17.8147 65.7547 15.7893 68.028 13.764H41.74V4.836H75.22L78.01 14.942C74.2074 18.0833 71.2314 21.08 69.082 23.932C66.974 26.7427 65.362 30.0907 64.246 33.976C63.1714 37.82 62.634 42.47 62.634 47.926H52.59Z" fill="white"/>
<path d="M99.9149 48.236C95.1616 48.236 91.0696 47.0167 87.6389 44.578C84.2083 42.098 82.2243 38.6467 81.6869 34.224L91.7929 33.232C92.1236 35.216 93.0329 36.8073 94.5209 38.006C96.0089 39.2047 97.8069 39.804 99.9149 39.804C102.23 39.804 104.048 39.2667 105.371 38.192C106.694 37.076 107.355 35.526 107.355 33.542C107.355 31.4753 106.652 29.9047 105.247 28.83C103.842 27.7553 102.106 27.218 100.039 27.218C96.7736 27.218 93.9216 28.4167 91.4829 30.814L82.7409 26.474L85.9649 4.836H113.927V13.764H93.5909L91.9789 23.126C94.8723 20.894 98.5509 19.778 103.015 19.778C106.818 19.778 110.145 20.956 112.997 23.312C115.849 25.668 117.275 29.14 117.275 33.728C117.275 38.192 115.663 41.726 112.439 44.33C109.256 46.934 105.082 48.236 99.9149 48.236Z" fill="white"/>
<path d="M140.087 48.236C135.333 48.236 131.241 47.0167 127.811 44.578C124.38 42.098 122.396 38.6467 121.859 34.224L131.965 33.232C132.295 35.216 133.205 36.8073 134.693 38.006C136.181 39.2047 137.979 39.804 140.087 39.804C142.401 39.804 144.22 39.2667 145.543 38.192C146.865 37.076 147.527 35.526 147.527 33.542C147.527 31.4753 146.824 29.9047 145.419 28.83C144.013 27.7553 142.277 27.218 140.211 27.218C136.945 27.218 134.093 28.4167 131.655 30.814L122.913 26.474L126.137 4.836H154.099V13.764H133.763L132.151 23.126C135.044 20.894 138.723 19.778 143.187 19.778C146.989 19.778 150.317 20.956 153.169 23.312C156.021 25.668 157.447 29.14 157.447 33.728C157.447 38.192 155.835 41.726 152.611 44.33C149.428 46.934 145.253 48.236 140.087 48.236Z" fill="white"/>
</svg>
