<svg width="121" height="40" viewBox="0 0 121 40" fill="none" xmlns="http://www.w3.org/2000/svg">
<path d="M28.1081 26.604C28.1081 29.3302 27.1054 31.5864 25.0999 33.3725C23.1257 35.1586 20.4152 36.224 16.9683 36.5687V40H12.0329V36.5217C8.80533 36.1144 6.12613 35.0333 3.9953 33.2785C1.86447 31.4924 0.532707 29.0482 0 25.9459L7.61457 25.2879C7.9906 27.8574 9.46338 29.5182 12.0329 30.2703V22.7497L10.9988 22.6087C7.9906 22.17 5.64042 21.1516 3.9483 19.5535C2.25617 17.924 1.41011 15.8559 1.41011 13.349C1.41011 10.6228 2.38151 8.35096 4.32432 6.53349C6.29847 4.71602 8.868 3.63494 12.0329 3.29025V0H16.9683V3.43126C19.9765 3.90129 22.3737 5.07638 24.1598 6.95652C25.9459 8.80533 26.9487 11.2965 27.168 14.4301L20.2585 14.9941C19.8825 12.3619 18.7857 10.6228 16.9683 9.77673V16.9213L18.8014 17.2033C21.653 17.6107 23.9091 18.6134 25.5699 20.2115C27.262 21.7783 28.1081 23.9091 28.1081 26.604ZM8.74266 13.349C8.74266 14.8531 9.8394 15.8089 12.0329 16.2162V9.44771C9.8394 10.0118 8.74266 11.3122 8.74266 13.349ZM16.9683 30.3643C18.159 30.1136 19.0834 29.6592 19.7415 29.0012C20.3995 28.3431 20.7286 27.5597 20.7286 26.651C20.7286 25.7736 20.4309 25.0842 19.8355 24.5828C19.2401 24.0501 18.2844 23.6741 16.9683 23.4548V30.3643Z" fill="white"/>
<path d="M39.8696 36.3337C39.8696 33.1688 40.1673 30.2546 40.7627 27.5911C41.3894 24.9275 42.2825 22.5617 43.4419 20.4935C44.6013 18.394 45.8077 16.5766 47.0612 15.0411C48.3459 13.5057 49.8501 11.9702 51.5735 10.4348H31.644V3.66628H57.0259L59.1411 11.3279C56.2582 13.7094 54.002 15.9812 52.3726 18.1434C50.7745 20.2742 49.5524 22.8124 48.7063 25.7579C47.8916 28.6721 47.4842 32.1974 47.4842 36.3337H39.8696Z" fill="white"/>
<path d="M76.9903 36.5687C72.7287 36.5687 69.3287 35.2996 66.7905 32.7615C64.2837 30.1919 63.0303 26.4316 63.0303 21.4806C63.0303 18.1277 63.4533 15.2291 64.2994 12.785C65.1768 10.3408 66.3362 8.4763 67.7776 7.19154C69.2191 5.87544 70.7388 4.9197 72.337 4.32432C73.9664 3.72895 75.6742 3.43126 77.4603 3.43126C78.5571 3.43126 79.6382 3.57227 80.7036 3.85429C81.8003 4.13631 82.9441 4.60635 84.1348 5.2644C85.3569 5.92244 86.438 6.95652 87.3781 8.36663C88.3182 9.7454 88.9762 11.4062 89.3522 13.349L82.2547 13.913C81.9413 12.4716 81.2833 11.4219 80.2805 10.7638C79.3091 10.1058 78.2594 9.77673 77.1313 9.77673C75.5019 9.77673 74.0134 10.4034 72.666 11.6569C71.3499 12.879 70.5352 14.8218 70.2218 17.4853C72.478 15.8245 75.0005 14.9941 77.7894 14.9941C81.5183 14.9941 84.4012 15.9812 86.438 17.9553C88.4748 19.9295 89.4932 22.5147 89.4932 25.7109C89.4932 28.7505 88.3338 31.32 86.015 33.4195C83.7275 35.519 80.7193 36.5687 76.9903 36.5687ZM76.5673 30.2703C78.3847 30.2703 79.7792 29.8159 80.7506 28.9072C81.722 27.9671 82.2077 26.792 82.2077 25.3819C82.2077 24.0031 81.7063 22.875 80.7036 21.9977C79.7008 21.0889 78.3064 20.6345 76.5203 20.6345C74.7968 20.6345 73.4024 21.0889 72.337 21.9977C71.3029 22.9064 70.7858 24.0345 70.7858 25.3819C70.7858 26.792 71.3029 27.9671 72.337 28.9072C73.371 29.8159 74.7811 30.2703 76.5673 30.2703Z" fill="white"/>
<path d="M107.58 36.5687C103.976 36.5687 100.874 35.6443 98.273 33.7955C95.6721 31.9154 94.168 29.2989 93.7606 25.9459L101.422 25.1939C101.673 26.698 102.362 27.9044 103.49 28.8132C104.618 29.7219 105.982 30.1763 107.58 30.1763C109.334 30.1763 110.713 29.7689 111.716 28.9542C112.719 28.1081 113.22 26.933 113.22 25.4289C113.22 23.8621 112.687 22.6714 111.622 21.8566C110.557 21.0419 109.24 20.6345 107.674 20.6345C105.198 20.6345 103.036 21.5433 101.187 23.3608L94.5597 20.0705L97.0039 3.66628H118.202V10.4348H102.785L101.563 17.5323C103.757 15.8402 106.546 14.9941 109.93 14.9941C112.813 14.9941 115.335 15.8872 117.497 17.6733C119.66 19.4595 120.741 22.0917 120.741 25.5699C120.741 28.9542 119.519 31.6334 117.074 33.6075C114.662 35.5817 111.497 36.5687 107.58 36.5687Z" fill="white"/>
</svg>
