<svg width="62" height="62" viewBox="0 0 62 62" fill="none" xmlns="http://www.w3.org/2000/svg">
<path d="M0 11.808V9.144H9.36V11.808H0Z" fill="white"/>
<path d="M11.8399 16.872V14.256H16.5199V5.64C16.1999 6.088 15.6079 6.44 14.7439 6.696C13.8799 6.936 12.9119 7.056 11.8399 7.056V4.44C13.4239 4.408 14.6399 4.056 15.4879 3.384C16.3519 2.712 16.8399 1.648 16.9519 0.191999H19.6399V14.256H23.4559V16.872H11.8399Z" fill="white"/>
<path d="M31.7033 16.992C29.9593 16.992 28.4473 16.536 27.1672 15.624C25.9032 14.696 25.1593 13.368 24.9352 11.64L28.0312 11.328C28.1912 12.288 28.6073 13.032 29.2793 13.56C29.9513 14.088 30.7593 14.352 31.7033 14.352C32.7272 14.352 33.5432 14.088 34.1512 13.56C34.7592 13.016 35.0633 12.28 35.0633 11.352C35.0633 10.408 34.7513 9.672 34.1273 9.144C33.5192 8.616 32.7352 8.352 31.7752 8.352C30.4473 8.352 29.2553 8.856 28.1993 9.864L25.4153 8.472L26.7113 0.191999H37.0073V2.976H29.1353L28.3673 7.344C29.5193 6.448 30.9513 6 32.6632 6C34.1673 6 35.4553 6.472 36.5273 7.416C37.6153 8.344 38.1593 9.672 38.1593 11.4C38.1593 13.096 37.5592 14.456 36.3592 15.48C35.1592 16.488 33.6073 16.992 31.7033 16.992Z" fill="white"/>
<path d="M43.9661 8.928C42.7501 8.928 41.7741 8.512 41.0381 7.68C40.3181 6.848 39.9581 5.784 39.9581 4.488C39.9581 3.192 40.3181 2.12 41.0381 1.272C41.7741 0.424 42.7501 0 43.9661 0C45.1981 0 46.1661 0.424 46.8701 1.272C47.5901 2.104 47.9501 3.176 47.9501 4.488C47.9501 5.8 47.5901 6.872 46.8701 7.704C46.1661 8.52 45.1981 8.928 43.9661 8.928ZM43.8221 16.872L53.3021 0.191999H56.3501L46.8701 16.872H43.8221ZM42.8381 6.048C43.0941 6.448 43.4701 6.648 43.9661 6.648C44.4621 6.648 44.8301 6.448 45.0701 6.048C45.3261 5.632 45.4541 5.112 45.4541 4.488C45.4541 3.864 45.3261 3.344 45.0701 2.928C44.8301 2.496 44.4621 2.28 43.9661 2.28C43.4701 2.28 43.0941 2.496 42.8381 2.928C42.5981 3.344 42.4781 3.864 42.4781 4.488C42.4781 5.112 42.5981 5.632 42.8381 6.048ZM56.1341 17.064C54.9181 17.064 53.9501 16.648 53.2301 15.816C52.5101 14.984 52.1501 13.92 52.1501 12.624C52.1501 11.328 52.5101 10.256 53.2301 9.408C53.9501 8.56 54.9181 8.136 56.1341 8.136C57.3661 8.136 58.3421 8.56 59.0621 9.408C59.7821 10.24 60.1421 11.312 60.1421 12.624C60.1421 13.92 59.7821 14.984 59.0621 15.816C58.3421 16.648 57.3661 17.064 56.1341 17.064ZM56.1581 14.784C56.6381 14.784 57.0061 14.576 57.2621 14.16C57.5181 13.744 57.6461 13.232 57.6461 12.624C57.6461 12.016 57.5181 11.496 57.2621 11.064C57.0061 10.632 56.6381 10.416 56.1581 10.416C55.6621 10.416 55.2861 10.632 55.0301 11.064C54.7741 11.48 54.6461 12 54.6461 12.624C54.6461 13.232 54.7741 13.744 55.0301 14.16C55.2861 14.576 55.6621 14.784 56.1581 14.784Z" fill="white"/>
<g opacity="0.5">
<path d="M14.568 54.92C14.568 56.248 14.048 57.36 13.008 58.256C11.984 59.152 10.6 59.656 8.856 59.768V61.472H7.176V59.744C5.496 59.6 4.096 59.08 2.976 58.184C1.872 57.272 1.168 56.04 0.864 54.488L3.264 54.248C3.44 55.256 3.872 56.056 4.56 56.648C5.248 57.24 6.12 57.608 7.176 57.752V52.04L6.48 51.944C4.928 51.704 3.744 51.216 2.928 50.48C2.112 49.744 1.704 48.768 1.704 47.552C1.704 46.176 2.208 45.048 3.216 44.168C4.224 43.272 5.544 42.776 7.176 42.68V41H8.856V42.728C10.328 42.92 11.52 43.48 12.432 44.408C13.36 45.32 13.904 46.576 14.064 48.176L11.904 48.368C11.632 46.304 10.616 45.088 8.856 44.72V50.168L9.888 50.336C13.008 50.832 14.568 52.36 14.568 54.92ZM6.816 49.856L7.176 49.904V44.624C6.2 44.704 5.424 45.008 4.848 45.536C4.272 46.048 3.984 46.72 3.984 47.552C3.984 48.208 4.216 48.72 4.68 49.088C5.144 49.456 5.856 49.712 6.816 49.856ZM8.856 57.8C9.912 57.688 10.744 57.376 11.352 56.864C11.976 56.336 12.288 55.688 12.288 54.92C12.288 54.184 12.064 53.624 11.616 53.24C11.168 52.84 10.416 52.552 9.36 52.376L8.856 52.304V57.8Z" fill="white"/>
<path d="M22.6984 59.696C20.7304 59.696 19.1704 59.248 18.0184 58.352C16.8664 57.456 16.2904 56.312 16.2904 54.92C16.2904 53.832 16.5944 52.944 17.2024 52.256C17.8104 51.568 18.5624 51.08 19.4584 50.792C18.7704 50.568 18.1704 50.152 17.6584 49.544C17.1464 48.936 16.8904 48.176 16.8904 47.264C16.8904 45.936 17.4184 44.856 18.4744 44.024C19.5304 43.192 20.9384 42.776 22.6984 42.776C24.4424 42.776 25.8424 43.192 26.8984 44.024C27.9544 44.856 28.4824 45.936 28.4824 47.264C28.4824 48.176 28.2264 48.936 27.7144 49.544C27.2024 50.152 26.6104 50.568 25.9384 50.792C26.8184 51.08 27.5624 51.568 28.1704 52.256C28.7944 52.944 29.1064 53.832 29.1064 54.92C29.1064 56.312 28.5224 57.456 27.3544 58.352C26.2024 59.248 24.6504 59.696 22.6984 59.696ZM22.6984 50C23.8024 50 24.6504 49.776 25.2424 49.328C25.8504 48.864 26.1544 48.208 26.1544 47.36C26.1544 46.608 25.8584 45.984 25.2664 45.488C24.6744 44.976 23.8184 44.72 22.6984 44.72C21.5784 44.72 20.7144 44.976 20.1064 45.488C19.5144 45.984 19.2184 46.608 19.2184 47.36C19.2184 48.208 19.5224 48.864 20.1304 49.328C20.7544 49.776 21.6104 50 22.6984 50ZM19.6984 56.912C20.4184 57.472 21.4184 57.752 22.6984 57.752C23.9784 57.752 24.9784 57.472 25.6984 56.912C26.4184 56.336 26.7784 55.624 26.7784 54.776C26.7784 53.864 26.4184 53.144 25.6984 52.616C24.9784 52.088 23.9784 51.824 22.6984 51.824C21.4184 51.824 20.4184 52.088 19.6984 52.616C18.9784 53.144 18.6184 53.864 18.6184 54.776C18.6184 55.624 18.9784 56.336 19.6984 56.912Z" fill="white"/>
<path d="M37.4406 59.696C35.4726 59.696 33.9126 59.248 32.7606 58.352C31.6086 57.456 31.0326 56.312 31.0326 54.92C31.0326 53.832 31.3366 52.944 31.9446 52.256C32.5526 51.568 33.3046 51.08 34.2006 50.792C33.5126 50.568 32.9126 50.152 32.4006 49.544C31.8886 48.936 31.6326 48.176 31.6326 47.264C31.6326 45.936 32.1606 44.856 33.2166 44.024C34.2726 43.192 35.6806 42.776 37.4406 42.776C39.1846 42.776 40.5846 43.192 41.6406 44.024C42.6966 44.856 43.2246 45.936 43.2246 47.264C43.2246 48.176 42.9686 48.936 42.4566 49.544C41.9446 50.152 41.3526 50.568 40.6806 50.792C41.5606 51.08 42.3046 51.568 42.9126 52.256C43.5366 52.944 43.8486 53.832 43.8486 54.92C43.8486 56.312 43.2646 57.456 42.0966 58.352C40.9446 59.248 39.3926 59.696 37.4406 59.696ZM37.4406 50C38.5446 50 39.3926 49.776 39.9846 49.328C40.5926 48.864 40.8966 48.208 40.8966 47.36C40.8966 46.608 40.6006 45.984 40.0086 45.488C39.4166 44.976 38.5606 44.72 37.4406 44.72C36.3206 44.72 35.4566 44.976 34.8486 45.488C34.2566 45.984 33.9606 46.608 33.9606 47.36C33.9606 48.208 34.2646 48.864 34.8726 49.328C35.4966 49.776 36.3526 50 37.4406 50ZM34.4406 56.912C35.1606 57.472 36.1606 57.752 37.4406 57.752C38.7206 57.752 39.7206 57.472 40.4406 56.912C41.1606 56.336 41.5206 55.624 41.5206 54.776C41.5206 53.864 41.1606 53.144 40.4406 52.616C39.7206 52.088 38.7206 51.824 37.4406 51.824C36.1606 51.824 35.1606 52.088 34.4406 52.616C33.7206 53.144 33.3606 53.864 33.3606 54.776C33.3606 55.624 33.7206 56.336 34.4406 56.912Z" fill="white"/>
<path d="M52.1828 59.696C50.2148 59.696 48.6548 59.248 47.5028 58.352C46.3507 57.456 45.7747 56.312 45.7747 54.92C45.7747 53.832 46.0787 52.944 46.6867 52.256C47.2948 51.568 48.0467 51.08 48.9427 50.792C48.2547 50.568 47.6548 50.152 47.1427 49.544C46.6307 48.936 46.3747 48.176 46.3747 47.264C46.3747 45.936 46.9028 44.856 47.9588 44.024C49.0148 43.192 50.4228 42.776 52.1828 42.776C53.9268 42.776 55.3268 43.192 56.3828 44.024C57.4388 44.856 57.9668 45.936 57.9668 47.264C57.9668 48.176 57.7108 48.936 57.1987 49.544C56.6867 50.152 56.0947 50.568 55.4227 50.792C56.3027 51.08 57.0468 51.568 57.6548 52.256C58.2788 52.944 58.5908 53.832 58.5908 54.92C58.5908 56.312 58.0067 57.456 56.8387 58.352C55.6867 59.248 54.1348 59.696 52.1828 59.696ZM52.1828 50C53.2868 50 54.1348 49.776 54.7267 49.328C55.3347 48.864 55.6388 48.208 55.6388 47.36C55.6388 46.608 55.3428 45.984 54.7508 45.488C54.1588 44.976 53.3027 44.72 52.1828 44.72C51.0628 44.72 50.1988 44.976 49.5908 45.488C48.9988 45.984 48.7028 46.608 48.7028 47.36C48.7028 48.208 49.0067 48.864 49.6147 49.328C50.2388 49.776 51.0947 50 52.1828 50ZM49.1828 56.912C49.9028 57.472 50.9028 57.752 52.1828 57.752C53.4627 57.752 54.4627 57.472 55.1828 56.912C55.9028 56.336 56.2628 55.624 56.2628 54.776C56.2628 53.864 55.9028 53.144 55.1828 52.616C54.4627 52.088 53.4627 51.824 52.1828 51.824C50.9028 51.824 49.9028 52.088 49.1828 52.616C48.4627 53.144 48.1027 53.864 48.1027 54.776C48.1027 55.624 48.4627 56.336 49.1828 56.912Z" fill="white"/>
<path d="M0 52.376H59.6468V53.576H0V52.376Z" fill="white"/>
</g>
</svg>
