<svg width="152" height="23" viewBox="0 0 152 23" fill="none" xmlns="http://www.w3.org/2000/svg">
<path d="M0 14.808V12.144H9.36V14.808H0Z" fill="white"/>
<path d="M11.8399 19.872V17.256H16.5199V8.64C16.1999 9.088 15.6079 9.44 14.7439 9.696C13.8799 9.936 12.9119 10.056 11.8399 10.056V7.44C13.4239 7.408 14.6399 7.056 15.4879 6.384C16.3519 5.712 16.8399 4.648 16.9519 3.192H19.6399V17.256H23.4559V19.872H11.8399Z" fill="white"/>
<path d="M31.7033 19.992C29.9593 19.992 28.4473 19.536 27.1672 18.624C25.9032 17.696 25.1593 16.368 24.9352 14.64L28.0312 14.328C28.1912 15.288 28.6073 16.032 29.2793 16.56C29.9513 17.088 30.7593 17.352 31.7033 17.352C32.7272 17.352 33.5432 17.088 34.1512 16.56C34.7592 16.016 35.0633 15.28 35.0633 14.352C35.0633 13.408 34.7513 12.672 34.1273 12.144C33.5192 11.616 32.7352 11.352 31.7752 11.352C30.4473 11.352 29.2553 11.856 28.1993 12.864L25.4153 11.472L26.7113 3.192H37.0073V5.976H29.1353L28.3673 10.344C29.5193 9.448 30.9513 9 32.6632 9C34.1673 9 35.4553 9.472 36.5273 10.416C37.6153 11.344 38.1593 12.672 38.1593 14.4C38.1593 16.096 37.5592 17.456 36.3592 18.48C35.1592 19.488 33.6073 19.992 31.7033 19.992Z" fill="white"/>
<path d="M43.9661 11.928C42.7501 11.928 41.7741 11.512 41.0381 10.68C40.3181 9.848 39.9581 8.784 39.9581 7.488C39.9581 6.192 40.3181 5.12 41.0381 4.272C41.7741 3.424 42.7501 3 43.9661 3C45.1981 3 46.1661 3.424 46.8701 4.272C47.5901 5.104 47.9501 6.176 47.9501 7.488C47.9501 8.8 47.5901 9.872 46.8701 10.704C46.1661 11.52 45.1981 11.928 43.9661 11.928ZM43.8221 19.872L53.3021 3.192H56.3501L46.8701 19.872H43.8221ZM42.8381 9.048C43.0941 9.448 43.4701 9.648 43.9661 9.648C44.4621 9.648 44.8301 9.448 45.0701 9.048C45.3261 8.632 45.4541 8.112 45.4541 7.488C45.4541 6.864 45.3261 6.344 45.0701 5.928C44.8301 5.496 44.4621 5.28 43.9661 5.28C43.4701 5.28 43.0941 5.496 42.8381 5.928C42.5981 6.344 42.4781 6.864 42.4781 7.488C42.4781 8.112 42.5981 8.632 42.8381 9.048ZM56.1341 20.064C54.9181 20.064 53.9501 19.648 53.2301 18.816C52.5101 17.984 52.1501 16.92 52.1501 15.624C52.1501 14.328 52.5101 13.256 53.2301 12.408C53.9501 11.56 54.9181 11.136 56.1341 11.136C57.3661 11.136 58.3421 11.56 59.0621 12.408C59.7821 13.24 60.1421 14.312 60.1421 15.624C60.1421 16.92 59.7821 17.984 59.0621 18.816C58.3421 19.648 57.3661 20.064 56.1341 20.064ZM56.1581 17.784C56.6381 17.784 57.0061 17.576 57.2621 17.16C57.5181 16.744 57.6461 16.232 57.6461 15.624C57.6461 15.016 57.5181 14.496 57.2621 14.064C57.0061 13.632 56.6381 13.416 56.1581 13.416C55.6621 13.416 55.2861 13.632 55.0301 14.064C54.7741 14.48 54.6461 15 54.6461 15.624C54.6461 16.232 54.7741 16.744 55.0301 17.16C55.2861 17.576 55.6621 17.784 56.1581 17.784Z" fill="white"/>
<g opacity="0.5">
<path d="M104.744 15.92C104.744 17.248 104.224 18.36 103.184 19.256C102.16 20.152 100.776 20.656 99.0318 20.768V22.472H97.3518V20.744C95.6718 20.6 94.2718 20.08 93.1518 19.184C92.0478 18.272 91.3438 17.04 91.0398 15.488L93.4398 15.248C93.6158 16.256 94.0478 17.056 94.7358 17.648C95.4238 18.24 96.2958 18.608 97.3518 18.752V13.04L96.6558 12.944C95.1038 12.704 93.9198 12.216 93.1038 11.48C92.2878 10.744 91.8798 9.768 91.8798 8.552C91.8798 7.176 92.3838 6.048 93.3918 5.168C94.3998 4.272 95.7198 3.776 97.3518 3.68V2H99.0318V3.728C100.504 3.92 101.696 4.48 102.608 5.408C103.536 6.32 104.08 7.576 104.24 9.176L102.08 9.368C101.808 7.304 100.792 6.088 99.0318 5.72V11.168L100.064 11.336C103.184 11.832 104.744 13.36 104.744 15.92ZM96.9918 10.856L97.3518 10.904V5.624C96.3758 5.704 95.5998 6.008 95.0238 6.536C94.4478 7.048 94.1598 7.72 94.1598 8.552C94.1598 9.208 94.3918 9.72 94.8558 10.088C95.3198 10.456 96.0318 10.712 96.9918 10.856ZM99.0318 18.8C100.088 18.688 100.92 18.376 101.528 17.864C102.152 17.336 102.464 16.688 102.464 15.92C102.464 15.184 102.24 14.624 101.792 14.24C101.344 13.84 100.592 13.552 99.5358 13.376L99.0318 13.304V18.8Z" fill="white"/>
<path d="M112.874 20.696C110.906 20.696 109.346 20.248 108.194 19.352C107.042 18.456 106.466 17.312 106.466 15.92C106.466 14.832 106.77 13.944 107.378 13.256C107.986 12.568 108.738 12.08 109.634 11.792C108.946 11.568 108.346 11.152 107.834 10.544C107.322 9.936 107.066 9.176 107.066 8.264C107.066 6.936 107.594 5.856 108.65 5.024C109.706 4.192 111.114 3.776 112.874 3.776C114.618 3.776 116.018 4.192 117.074 5.024C118.13 5.856 118.658 6.936 118.658 8.264C118.658 9.176 118.402 9.936 117.89 10.544C117.378 11.152 116.786 11.568 116.114 11.792C116.994 12.08 117.738 12.568 118.346 13.256C118.97 13.944 119.282 14.832 119.282 15.92C119.282 17.312 118.698 18.456 117.53 19.352C116.378 20.248 114.826 20.696 112.874 20.696ZM112.874 11C113.978 11 114.826 10.776 115.418 10.328C116.026 9.864 116.33 9.208 116.33 8.36C116.33 7.608 116.034 6.984 115.442 6.488C114.85 5.976 113.994 5.72 112.874 5.72C111.754 5.72 110.89 5.976 110.282 6.488C109.69 6.984 109.394 7.608 109.394 8.36C109.394 9.208 109.698 9.864 110.306 10.328C110.93 10.776 111.786 11 112.874 11ZM109.874 17.912C110.594 18.472 111.594 18.752 112.874 18.752C114.154 18.752 115.154 18.472 115.874 17.912C116.594 17.336 116.954 16.624 116.954 15.776C116.954 14.864 116.594 14.144 115.874 13.616C115.154 13.088 114.154 12.824 112.874 12.824C111.594 12.824 110.594 13.088 109.874 13.616C109.154 14.144 108.794 14.864 108.794 15.776C108.794 16.624 109.154 17.336 109.874 17.912Z" fill="white"/>
<path d="M127.616 20.696C125.648 20.696 124.088 20.248 122.936 19.352C121.784 18.456 121.208 17.312 121.208 15.92C121.208 14.832 121.512 13.944 122.12 13.256C122.728 12.568 123.48 12.08 124.376 11.792C123.688 11.568 123.088 11.152 122.576 10.544C122.064 9.936 121.808 9.176 121.808 8.264C121.808 6.936 122.336 5.856 123.392 5.024C124.448 4.192 125.856 3.776 127.616 3.776C129.36 3.776 130.76 4.192 131.816 5.024C132.872 5.856 133.4 6.936 133.4 8.264C133.4 9.176 133.144 9.936 132.632 10.544C132.12 11.152 131.528 11.568 130.856 11.792C131.736 12.08 132.48 12.568 133.088 13.256C133.712 13.944 134.024 14.832 134.024 15.92C134.024 17.312 133.44 18.456 132.272 19.352C131.12 20.248 129.568 20.696 127.616 20.696ZM127.616 11C128.72 11 129.568 10.776 130.16 10.328C130.768 9.864 131.072 9.208 131.072 8.36C131.072 7.608 130.776 6.984 130.184 6.488C129.592 5.976 128.736 5.72 127.616 5.72C126.496 5.72 125.632 5.976 125.024 6.488C124.432 6.984 124.136 7.608 124.136 8.36C124.136 9.208 124.44 9.864 125.048 10.328C125.672 10.776 126.528 11 127.616 11ZM124.616 17.912C125.336 18.472 126.336 18.752 127.616 18.752C128.896 18.752 129.896 18.472 130.616 17.912C131.336 17.336 131.696 16.624 131.696 15.776C131.696 14.864 131.336 14.144 130.616 13.616C129.896 13.088 128.896 12.824 127.616 12.824C126.336 12.824 125.336 13.088 124.616 13.616C123.896 14.144 123.536 14.864 123.536 15.776C123.536 16.624 123.896 17.336 124.616 17.912Z" fill="white"/>
<path d="M142.359 20.696C140.391 20.696 138.831 20.248 137.679 19.352C136.527 18.456 135.951 17.312 135.951 15.92C135.951 14.832 136.255 13.944 136.863 13.256C137.471 12.568 138.223 12.08 139.119 11.792C138.431 11.568 137.831 11.152 137.319 10.544C136.807 9.936 136.551 9.176 136.551 8.264C136.551 6.936 137.079 5.856 138.135 5.024C139.191 4.192 140.599 3.776 142.359 3.776C144.103 3.776 145.503 4.192 146.559 5.024C147.615 5.856 148.143 6.936 148.143 8.264C148.143 9.176 147.887 9.936 147.375 10.544C146.863 11.152 146.271 11.568 145.599 11.792C146.479 12.08 147.223 12.568 147.831 13.256C148.455 13.944 148.767 14.832 148.767 15.92C148.767 17.312 148.183 18.456 147.015 19.352C145.863 20.248 144.311 20.696 142.359 20.696ZM142.359 11C143.463 11 144.311 10.776 144.903 10.328C145.511 9.864 145.815 9.208 145.815 8.36C145.815 7.608 145.519 6.984 144.927 6.488C144.335 5.976 143.479 5.72 142.359 5.72C141.239 5.72 140.375 5.976 139.767 6.488C139.175 6.984 138.879 7.608 138.879 8.36C138.879 9.208 139.183 9.864 139.791 10.328C140.415 10.776 141.271 11 142.359 11ZM139.359 17.912C140.079 18.472 141.079 18.752 142.359 18.752C143.639 18.752 144.639 18.472 145.359 17.912C146.079 17.336 146.439 16.624 146.439 15.776C146.439 14.864 146.079 14.144 145.359 13.616C144.639 13.088 143.639 12.824 142.359 12.824C141.079 12.824 140.079 13.088 139.359 13.616C138.639 14.144 138.279 14.864 138.279 15.776C138.279 16.624 138.639 17.336 139.359 17.912Z" fill="white"/>
<path d="M90.1758 13.376H149.823V14.576H90.1758V13.376Z" fill="white"/>
</g>
</svg>
