<svg width="1001" height="335" viewBox="0 0 1001 335" fill="none" xmlns="http://www.w3.org/2000/svg">
<path d="M990 6V6C990 55.7056 949.706 96.1353 900 96.1353H66.5985C30.3694 96.1353 1 125.505 1 161.734V161.734C1 197.963 30.3695 227.332 66.5985 227.332H900C949.706 227.332 990 267.627 990 317.332V332.5" stroke="white" stroke-width="2"/>
<circle cx="990" cy="6" r="6" fill="white"/>
<path d="M979.5 320L990 332.5L999.5 320" stroke="white" stroke-width="2"/>
<path d="M296.688 170.18C294.96 170.18 293.574 169.598 292.53 168.434C291.498 167.27 290.982 165.71 290.982 163.754C290.982 161.822 291.498 160.268 292.53 159.092C293.574 157.904 294.948 157.31 296.652 157.31C298.14 157.31 299.346 157.736 300.27 158.588C301.206 159.44 301.776 160.616 301.98 162.116L300.198 162.26C300.03 161.18 299.64 160.346 299.028 159.758C298.416 159.158 297.624 158.858 296.652 158.858C295.476 158.858 294.534 159.308 293.826 160.208C293.118 161.096 292.764 162.278 292.764 163.754C292.764 165.242 293.118 166.43 293.826 167.318C294.546 168.194 295.5 168.632 296.688 168.632C297.696 168.632 298.512 168.332 299.136 167.732C299.76 167.132 300.174 166.28 300.378 165.176L302.106 165.32C301.878 166.844 301.29 168.038 300.342 168.902C299.406 169.754 298.188 170.18 296.688 170.18ZM402.455 170V157.49H404.525L409.223 168.182L413.939 157.49H415.991V170H414.281V160.748L410.105 170H408.341L404.183 160.73V170H402.455ZM418.17 170V157.49H419.934V162.584H423.282C424.602 162.584 425.628 162.908 426.36 163.556C427.092 164.192 427.458 165.104 427.458 166.292C427.458 167.48 427.092 168.398 426.36 169.046C425.628 169.682 424.602 170 423.282 170H418.17ZM429.186 170V157.49H430.95V170H429.186ZM419.934 168.506H423.282C424.95 168.506 425.784 167.768 425.784 166.292C425.784 164.828 424.95 164.096 423.282 164.096H419.934V168.506ZM437.98 170V157.49H448.096V170H446.332V159.056H439.744V170H437.98ZM455.472 170.18C453.636 170.18 452.22 169.598 451.224 168.434C450.228 167.258 449.73 165.698 449.73 163.754C449.73 161.834 450.228 160.28 451.224 159.092C452.232 157.904 453.648 157.31 455.472 157.31C457.284 157.31 458.682 157.904 459.666 159.092C460.662 160.28 461.16 161.834 461.16 163.754C461.16 165.71 460.668 167.27 459.684 168.434C458.7 169.598 457.296 170.18 455.472 170.18ZM452.538 167.3C453.21 168.188 454.188 168.632 455.472 168.632C456.756 168.632 457.728 168.188 458.388 167.3C459.048 166.412 459.378 165.23 459.378 163.754C459.378 162.302 459.042 161.126 458.37 160.226C457.71 159.314 456.744 158.858 455.472 158.858C454.2 158.858 453.222 159.314 452.538 160.226C451.866 161.138 451.53 162.314 451.53 163.754C451.53 165.218 451.866 166.4 452.538 167.3ZM462.818 170V157.49H468.092C470.936 157.49 472.358 158.588 472.358 160.784C472.358 161.504 472.16 162.098 471.764 162.566C471.38 163.022 470.84 163.34 470.144 163.52C470.924 163.712 471.524 164.066 471.944 164.582C472.364 165.098 472.574 165.746 472.574 166.526C472.574 167.666 472.19 168.53 471.422 169.118C470.666 169.706 469.592 170 468.2 170H462.818ZM464.582 162.818H468.146C469.838 162.818 470.684 162.176 470.684 160.892C470.684 159.596 469.838 158.948 468.146 158.948H464.582V162.818ZM464.582 168.542H468.2C469.952 168.542 470.828 167.834 470.828 166.418C470.828 165.734 470.606 165.212 470.162 164.852C469.718 164.492 469.064 164.312 468.2 164.312H464.582V168.542ZM474.402 170V157.49H476.166V162.584H479.514C480.834 162.584 481.86 162.908 482.592 163.556C483.324 164.192 483.69 165.104 483.69 166.292C483.69 167.48 483.324 168.398 482.592 169.046C481.86 169.682 480.834 170 479.514 170H474.402ZM485.418 170V157.49H487.182V170H485.418ZM476.166 168.506H479.514C481.182 168.506 482.016 167.768 482.016 166.292C482.016 164.828 481.182 164.096 479.514 164.096H476.166V168.506ZM489.343 170V157.49H491.107V168.452H496.777V157.49H498.523V168.452H504.193V157.49H505.957V170H489.343ZM507.093 170L512.349 157.49H514.347L519.603 170H517.677L516.399 166.85H510.315L509.037 170H507.093ZM510.855 165.356H515.841L513.357 159.272L510.855 165.356ZM520.755 170V157.49H529.917V159.056H522.519V162.764H528.999V164.33H522.501V168.452H529.917V170H520.755ZM531.513 170V157.49H533.583L538.281 168.182L542.997 157.49H545.049V170H543.339V160.748L539.163 170H537.399L533.241 160.73V170H531.513ZM562.051 168.434H564.031V172.808H562.483V170H552.097V157.49H553.861V168.434H560.287V157.49H562.051V168.434ZM565.474 170V157.49H574.636V159.056H567.238V162.764H573.718V164.33H567.22V168.452H574.636V170H565.474ZM576.232 170V157.49H577.996V162.764H584.584V157.49H586.348V170H584.584V164.33H577.996V170H576.232ZM589.867 170.18C589.519 170.18 589.093 170.162 588.589 170.126V168.632C588.985 168.668 589.351 168.686 589.687 168.686C590.191 168.674 590.599 168.554 590.911 168.326C591.223 168.086 591.523 167.69 591.811 167.138L592.189 166.364L587.725 157.49H589.723L593.071 164.69L596.311 157.49H598.291L593.593 167.246C593.089 168.314 592.555 169.07 591.991 169.514C591.439 169.958 590.731 170.18 589.867 170.18ZM604.427 170V157.49H614.543V170H612.779V159.056H606.191V170H604.427ZM621.919 170.18C620.083 170.18 618.667 169.598 617.671 168.434C616.675 167.258 616.177 165.698 616.177 163.754C616.177 161.834 616.675 160.28 617.671 159.092C618.679 157.904 620.095 157.31 621.919 157.31C623.731 157.31 625.129 157.904 626.113 159.092C627.109 160.28 627.607 161.834 627.607 163.754C627.607 165.71 627.115 167.27 626.131 168.434C625.147 169.598 623.743 170.18 621.919 170.18ZM618.985 167.3C619.657 168.188 620.635 168.632 621.919 168.632C623.203 168.632 624.175 168.188 624.835 167.3C625.495 166.412 625.825 165.23 625.825 163.754C625.825 162.302 625.489 161.126 624.817 160.226C624.157 159.314 623.191 158.858 621.919 158.858C620.647 158.858 619.669 159.314 618.985 160.226C618.313 161.138 617.977 162.314 617.977 163.754C617.977 165.218 618.313 166.4 618.985 167.3ZM627.879 172.808V168.434H629.805C630.381 167.018 630.729 165.23 630.849 163.07L631.137 157.49H638.787V168.416L640.767 168.434V172.808H639.219V170H629.427V172.808H627.879ZM631.623 168.434H637.005V159.056H632.829L632.595 163.16C632.475 165.188 632.151 166.946 631.623 168.434ZM642.203 170V157.49H652.319V170H650.555V159.056H643.967V170H642.203ZM654.49 170V157.49H656.254V167.768L662.608 157.49H664.858V170H663.112V159.794L656.758 170H654.49ZM672.192 170.18C670.464 170.18 669.078 169.598 668.034 168.434C667.002 167.27 666.486 165.71 666.486 163.754C666.486 161.822 667.002 160.268 668.034 159.092C669.078 157.904 670.452 157.31 672.156 157.31C673.644 157.31 674.85 157.736 675.774 158.588C676.71 159.44 677.28 160.616 677.484 162.116L675.702 162.26C675.534 161.18 675.144 160.346 674.532 159.758C673.92 159.158 673.128 158.858 672.156 158.858C670.98 158.858 670.038 159.308 669.33 160.208C668.622 161.096 668.268 162.278 668.268 163.754C668.268 165.242 668.622 166.43 669.33 167.318C670.05 168.194 671.004 168.632 672.192 168.632C673.2 168.632 674.016 168.332 674.64 167.732C675.264 167.132 675.678 166.28 675.882 165.176L677.61 165.32C677.382 166.844 676.794 168.038 675.846 168.902C674.91 169.754 673.692 170.18 672.192 170.18ZM689.965 157.49L684.349 162.746L689.965 169.964V170H687.787L683.107 163.898L681.127 165.752V170H679.363V157.49H681.127V163.772L687.535 157.49H689.965ZM691.211 170V157.49H692.975V167.768L699.329 157.49H701.579V170H699.833V159.794L693.479 170H691.211Z" fill="white"/>
<path d="M313.571 170.09C312.983 170.09 312.407 170.018 311.843 169.874C311.291 169.73 310.751 169.514 310.223 169.226C309.707 168.926 309.269 168.512 308.909 167.984C308.549 167.456 308.315 166.838 308.207 166.13L310.583 165.914C310.703 166.634 311.039 167.186 311.591 167.57C312.155 167.942 312.797 168.128 313.517 168.128C314.321 168.128 314.951 167.954 315.407 167.606C315.875 167.258 316.109 166.802 316.109 166.238C316.109 165.662 315.881 165.23 315.425 164.942C314.969 164.654 314.339 164.51 313.535 164.51H312.977V162.53H313.535C314.987 162.53 315.713 162.038 315.713 161.054C315.713 160.574 315.521 160.172 315.137 159.848C314.753 159.524 314.249 159.362 313.625 159.362C312.941 159.362 312.383 159.542 311.951 159.902C311.519 160.262 311.243 160.772 311.123 161.432L308.801 161.252C308.993 160.04 309.515 159.098 310.367 158.426C311.219 157.742 312.305 157.4 313.625 157.4C314.945 157.4 316.007 157.742 316.811 158.426C317.627 159.11 318.035 159.95 318.035 160.946C318.035 161.594 317.855 162.134 317.495 162.566C317.135 162.998 316.679 163.298 316.127 163.466C316.787 163.634 317.333 163.964 317.765 164.456C318.197 164.948 318.413 165.578 318.413 166.346C318.413 167.426 317.963 168.32 317.063 169.028C316.175 169.736 315.011 170.09 313.571 170.09ZM323.928 170L329.058 157.49H331.704L336.852 170H334.278L333.144 167.066H327.636L326.502 170H323.928ZM328.302 165.122H332.442L330.39 159.866L328.302 165.122ZM337.871 170V157.49H348.473V170H346.097V159.56H340.229V170H337.871ZM350.439 170V157.49H355.713C357.201 157.49 358.353 157.826 359.169 158.498C359.985 159.158 360.393 160.148 360.393 161.468C360.393 162.788 359.985 163.778 359.169 164.438C358.353 165.098 357.201 165.428 355.713 165.428H352.797V170H350.439ZM352.797 163.394H356.001C356.697 163.394 357.225 163.22 357.585 162.872C357.957 162.524 358.143 162.056 358.143 161.468C358.143 160.892 357.957 160.424 357.585 160.064C357.213 159.704 356.685 159.524 356.001 159.524H352.797V163.394ZM361.654 170V157.49H371.23V159.542H364.012V162.53H370.276V164.564H363.976V167.93H371.23V170H361.654ZM372.113 170.054V167.876C373.121 167.876 373.853 167.504 374.309 166.76C374.777 166.016 375.047 164.93 375.119 163.502L375.425 157.49H383.813V170H381.455V159.56H377.693L377.477 163.646C377.429 164.594 377.309 165.428 377.117 166.148C376.937 166.856 376.655 167.522 376.271 168.146C375.887 168.758 375.341 169.232 374.633 169.568C373.937 169.892 373.097 170.054 372.113 170.054ZM385.406 170L388.52 164.942C387.56 164.726 386.822 164.312 386.306 163.7C385.802 163.076 385.55 162.29 385.55 161.342C385.55 160.082 385.958 159.128 386.774 158.48C387.59 157.82 388.718 157.49 390.158 157.49H395.504V170H393.146V165.14H390.734L388.052 170H385.406ZM389.924 163.16H393.146V159.47H389.924C389.24 159.47 388.712 159.644 388.34 159.992C387.98 160.328 387.8 160.778 387.8 161.342C387.8 161.894 387.98 162.338 388.34 162.674C388.712 162.998 389.24 163.16 389.924 163.16Z" fill="#FFCD9F"/>
</svg>
