<svg width="335" height="174" viewBox="0 0 335 174" fill="none" xmlns="http://www.w3.org/2000/svg">
<path d="M167 7V66.5" stroke="white" stroke-width="2"/>
<path d="M167 112V171.5" stroke="white" stroke-width="2"/>
<rect y="66" width="335" height="46" rx="8" fill="white" fill-opacity="0.06"/>
<rect x="0.5" y="66.5" width="334" height="45" rx="7.5" stroke="white" stroke-opacity="0.5"/>
<path d="M34.2918 94.12C33.1398 94.12 32.2158 93.732 31.5198 92.956C30.8318 92.18 30.4878 91.14 30.4878 89.836C30.4878 88.548 30.8318 87.512 31.5198 86.728C32.2158 85.936 33.1318 85.54 34.2678 85.54C35.2598 85.54 36.0638 85.824 36.6798 86.392C37.3038 86.96 37.6838 87.744 37.8198 88.744L36.6318 88.84C36.5198 88.12 36.2598 87.564 35.8518 87.172C35.4438 86.772 34.9158 86.572 34.2678 86.572C33.4838 86.572 32.8558 86.872 32.3838 87.472C31.9118 88.064 31.6758 88.852 31.6758 89.836C31.6758 90.828 31.9118 91.62 32.3838 92.212C32.8638 92.796 33.4998 93.088 34.2918 93.088C34.9638 93.088 35.5078 92.888 35.9238 92.488C36.3398 92.088 36.6158 91.52 36.7518 90.784L37.9038 90.88C37.7518 91.896 37.3598 92.692 36.7278 93.268C36.1038 93.836 35.2918 94.12 34.2918 94.12ZM104.803 94V85.66H106.183L109.315 92.788L112.459 85.66H113.827V94H112.687V87.832L109.903 94H108.727L105.955 87.82V94H104.803ZM115.28 94V85.66H116.456V89.056H118.688C119.568 89.056 120.252 89.272 120.74 89.704C121.228 90.128 121.472 90.736 121.472 91.528C121.472 92.32 121.228 92.932 120.74 93.364C120.252 93.788 119.568 94 118.688 94H115.28ZM122.624 94V85.66H123.8V94H122.624ZM116.456 93.004H118.688C119.8 93.004 120.356 92.512 120.356 91.528C120.356 90.552 119.8 90.064 118.688 90.064H116.456V93.004ZM128.487 94V85.66H135.231V94H134.055V86.704H129.663V94H128.487ZM140.148 94.12C138.924 94.12 137.98 93.732 137.316 92.956C136.652 92.172 136.32 91.132 136.32 89.836C136.32 88.556 136.652 87.52 137.316 86.728C137.988 85.936 138.932 85.54 140.148 85.54C141.356 85.54 142.288 85.936 142.944 86.728C143.608 87.52 143.94 88.556 143.94 89.836C143.94 91.14 143.612 92.18 142.956 92.956C142.3 93.732 141.364 94.12 140.148 94.12ZM138.192 92.2C138.64 92.792 139.292 93.088 140.148 93.088C141.004 93.088 141.652 92.792 142.092 92.2C142.532 91.608 142.752 90.82 142.752 89.836C142.752 88.868 142.528 88.084 142.08 87.484C141.64 86.876 140.996 86.572 140.148 86.572C139.3 86.572 138.648 86.876 138.192 87.484C137.744 88.092 137.52 88.876 137.52 89.836C137.52 90.812 137.744 91.6 138.192 92.2ZM145.045 94V85.66H148.561C150.457 85.66 151.405 86.392 151.405 87.856C151.405 88.336 151.273 88.732 151.009 89.044C150.753 89.348 150.393 89.56 149.929 89.68C150.449 89.808 150.849 90.044 151.129 90.388C151.409 90.732 151.549 91.164 151.549 91.684C151.549 92.444 151.293 93.02 150.781 93.412C150.277 93.804 149.561 94 148.633 94H145.045ZM146.221 89.212H148.597C149.725 89.212 150.289 88.784 150.289 87.928C150.289 87.064 149.725 86.632 148.597 86.632H146.221V89.212ZM146.221 93.028H148.633C149.801 93.028 150.385 92.556 150.385 91.612C150.385 91.156 150.237 90.808 149.941 90.568C149.645 90.328 149.209 90.208 148.633 90.208H146.221V93.028ZM152.768 94V85.66H153.944V89.056H156.176C157.056 89.056 157.74 89.272 158.228 89.704C158.716 90.128 158.96 90.736 158.96 91.528C158.96 92.32 158.716 92.932 158.228 93.364C157.74 93.788 157.056 94 156.176 94H152.768ZM160.112 94V85.66H161.288V94H160.112ZM153.944 93.004H156.176C157.288 93.004 157.844 92.512 157.844 91.528C157.844 90.552 157.288 90.064 156.176 90.064H153.944V93.004ZM162.729 94V85.66H163.905V92.968H167.685V85.66H168.849V92.968H172.629V85.66H173.805V94H162.729ZM174.562 94L178.066 85.66H179.398L182.902 94H181.618L180.766 91.9H176.71L175.858 94H174.562ZM177.07 90.904H180.394L178.738 86.848L177.07 90.904ZM183.67 94V85.66H189.778V86.704H184.846V89.176H189.166V90.22H184.834V92.968H189.778V94H183.67ZM190.842 94V85.66H192.222L195.354 92.788L198.498 85.66H199.866V94H198.726V87.832L195.942 94H194.766L191.994 87.82V94H190.842ZM211.201 92.956H212.521V95.872H211.489V94H204.565V85.66H205.741V92.956H210.025V85.66H211.201V92.956ZM213.483 94V85.66H219.591V86.704H214.659V89.176H218.979V90.22H214.647V92.968H219.591V94H213.483ZM220.655 94V85.66H221.831V89.176H226.223V85.66H227.399V94H226.223V90.22H221.831V94H220.655ZM229.745 94.12C229.513 94.12 229.229 94.108 228.893 94.084V93.088C229.157 93.112 229.401 93.124 229.625 93.124C229.961 93.116 230.233 93.036 230.441 92.884C230.649 92.724 230.849 92.46 231.041 92.092L231.293 91.576L228.317 85.66H229.649L231.881 90.46L234.041 85.66H235.361L232.229 92.164C231.893 92.876 231.537 93.38 231.161 93.676C230.793 93.972 230.321 94.12 229.745 94.12ZM239.452 94V85.66H246.196V94H245.02V86.704H240.628V94H239.452ZM251.113 94.12C249.889 94.12 248.945 93.732 248.281 92.956C247.617 92.172 247.285 91.132 247.285 89.836C247.285 88.556 247.617 87.52 248.281 86.728C248.953 85.936 249.897 85.54 251.113 85.54C252.321 85.54 253.253 85.936 253.909 86.728C254.573 87.52 254.905 88.556 254.905 89.836C254.905 91.14 254.577 92.18 253.921 92.956C253.265 93.732 252.329 94.12 251.113 94.12ZM249.157 92.2C249.605 92.792 250.257 93.088 251.113 93.088C251.969 93.088 252.617 92.792 253.057 92.2C253.497 91.608 253.717 90.82 253.717 89.836C253.717 88.868 253.493 88.084 253.045 87.484C252.605 86.876 251.961 86.572 251.113 86.572C250.265 86.572 249.613 86.876 249.157 87.484C248.709 88.092 248.485 88.876 248.485 89.836C248.485 90.812 248.709 91.6 249.157 92.2ZM255.086 95.872V92.956H256.37C256.754 92.012 256.986 90.82 257.066 89.38L257.258 85.66H262.358V92.944L263.678 92.956V95.872H262.646V94H256.118V95.872H255.086ZM257.582 92.956H261.17V86.704H258.386L258.23 89.44C258.15 90.792 257.934 91.964 257.582 92.956ZM264.635 94V85.66H271.379V94H270.203V86.704H265.811V94H264.635ZM272.827 94V85.66H274.003V92.512L278.239 85.66H279.739V94H278.575V87.196L274.339 94H272.827ZM284.628 94.12C283.476 94.12 282.552 93.732 281.856 92.956C281.168 92.18 280.824 91.14 280.824 89.836C280.824 88.548 281.168 87.512 281.856 86.728C282.552 85.936 283.468 85.54 284.604 85.54C285.596 85.54 286.4 85.824 287.016 86.392C287.64 86.96 288.02 87.744 288.156 88.744L286.968 88.84C286.856 88.12 286.596 87.564 286.188 87.172C285.78 86.772 285.252 86.572 284.604 86.572C283.82 86.572 283.192 86.872 282.72 87.472C282.248 88.064 282.012 88.852 282.012 89.836C282.012 90.828 282.248 91.62 282.72 92.212C283.2 92.796 283.836 93.088 284.628 93.088C285.3 93.088 285.844 92.888 286.26 92.488C286.676 92.088 286.952 91.52 287.088 90.784L288.24 90.88C288.088 91.896 287.696 92.692 287.064 93.268C286.44 93.836 285.628 94.12 284.628 94.12ZM296.477 85.66L292.733 89.164L296.477 93.976V94H295.025L291.905 89.932L290.585 91.168V94H289.409V85.66H290.585V89.848L294.857 85.66H296.477ZM297.307 94V85.66H298.483V92.512L302.719 85.66H304.219V94H303.055V87.196L298.819 94H297.307Z" fill="white"/>
<path d="M45.5473 94.06C45.1553 94.06 44.7713 94.012 44.3953 93.916C44.0273 93.82 43.6673 93.676 43.3153 93.484C42.9713 93.284 42.6793 93.008 42.4393 92.656C42.1993 92.304 42.0433 91.892 41.9713 91.42L43.5553 91.276C43.6353 91.756 43.8593 92.124 44.2273 92.38C44.6033 92.628 45.0313 92.752 45.5113 92.752C46.0473 92.752 46.4673 92.636 46.7713 92.404C47.0833 92.172 47.2393 91.868 47.2393 91.492C47.2393 91.108 47.0873 90.82 46.7833 90.628C46.4793 90.436 46.0593 90.34 45.5233 90.34H45.1513V89.02H45.5233C46.4913 89.02 46.9753 88.692 46.9753 88.036C46.9753 87.716 46.8473 87.448 46.5913 87.232C46.3353 87.016 45.9993 86.908 45.5833 86.908C45.1273 86.908 44.7553 87.028 44.4673 87.268C44.1793 87.508 43.9953 87.848 43.9153 88.288L42.3673 88.168C42.4953 87.36 42.8433 86.732 43.4113 86.284C43.9793 85.828 44.7033 85.6 45.5833 85.6C46.4633 85.6 47.1713 85.828 47.7073 86.284C48.2513 86.74 48.5233 87.3 48.5233 87.964C48.5233 88.396 48.4033 88.756 48.1633 89.044C47.9233 89.332 47.6193 89.532 47.2513 89.644C47.6913 89.756 48.0553 89.976 48.3433 90.304C48.6313 90.632 48.7753 91.052 48.7753 91.564C48.7753 92.284 48.4753 92.88 47.8753 93.352C47.2833 93.824 46.5073 94.06 45.5473 94.06ZM52.4523 94L55.8723 85.66H57.6363L61.0683 94H59.3523L58.5963 92.044H54.9243L54.1683 94H52.4523ZM55.3683 90.748H58.1283L56.7603 87.244L55.3683 90.748ZM61.7473 94V85.66H68.8153V94H67.2313V87.04H63.3193V94H61.7473ZM70.1262 94V85.66H73.6422C74.6342 85.66 75.4022 85.884 75.9462 86.332C76.4902 86.772 76.7622 87.432 76.7622 88.312C76.7622 89.192 76.4902 89.852 75.9462 90.292C75.4022 90.732 74.6342 90.952 73.6422 90.952H71.6982V94H70.1262ZM71.6982 89.596H73.8342C74.2982 89.596 74.6502 89.48 74.8902 89.248C75.1382 89.016 75.2622 88.704 75.2622 88.312C75.2622 87.928 75.1382 87.616 74.8902 87.376C74.6422 87.136 74.2902 87.016 73.8342 87.016H71.6982V89.596ZM77.6028 94V85.66H83.9868V87.028H79.1748V89.02H83.3508V90.376H79.1508V92.62H83.9868V94H77.6028ZM84.5756 94.036V92.584C85.2476 92.584 85.7356 92.336 86.0396 91.84C86.3516 91.344 86.5316 90.62 86.5796 89.668L86.7836 85.66H92.3756V94H90.8036V87.04H88.2956L88.1516 89.764C88.1196 90.396 88.0396 90.952 87.9116 91.432C87.7916 91.904 87.6036 92.348 87.3476 92.764C87.0916 93.172 86.7276 93.488 86.2556 93.712C85.7916 93.928 85.2316 94.036 84.5756 94.036ZM93.4373 94L95.5133 90.628C94.8733 90.484 94.3813 90.208 94.0373 89.8C93.7013 89.384 93.5333 88.86 93.5333 88.228C93.5333 87.388 93.8053 86.752 94.3493 86.32C94.8933 85.88 95.6453 85.66 96.6053 85.66H100.169V94H98.5973V90.76H96.9893L95.2013 94H93.4373ZM96.4493 89.44H98.5973V86.98H96.4493C95.9933 86.98 95.6413 87.096 95.3933 87.328C95.1533 87.552 95.0333 87.852 95.0333 88.228C95.0333 88.596 95.1533 88.892 95.3933 89.116C95.6413 89.332 95.9933 89.44 96.4493 89.44Z" fill="#FFCD9F"/>
<path d="M157 159L167.5 171.5L177 159" stroke="white" stroke-width="2"/>
<circle cx="167" cy="6" r="6" fill="white"/>
</svg>
