<svg width="549" height="337" viewBox="0 0 549 337" fill="none" xmlns="http://www.w3.org/2000/svg">
<path d="M514 6V6C514 55.7056 473.706 96.2734 424 96.2734H66.699C30.4144 96.2734 1 125.688 1 161.972V161.972C1 198.257 30.4144 227.671 66.699 227.671H424C473.706 227.671 514 267.966 514 317.671V333" stroke="white" stroke-width="2"/>
<path d="M504 322L514.5 334.5L524 322" stroke="white" stroke-width="2"/>
<circle cx="514" cy="6" r="6" fill="white"/>
<path d="M137.688 170.18C135.96 170.18 134.574 169.598 133.53 168.434C132.498 167.27 131.982 165.71 131.982 163.754C131.982 161.822 132.498 160.268 133.53 159.092C134.574 157.904 135.948 157.31 137.652 157.31C139.14 157.31 140.346 157.736 141.27 158.588C142.206 159.44 142.776 160.616 142.98 162.116L141.198 162.26C141.03 161.18 140.64 160.346 140.028 159.758C139.416 159.158 138.624 158.858 137.652 158.858C136.476 158.858 135.534 159.308 134.826 160.208C134.118 161.096 133.764 162.278 133.764 163.754C133.764 165.242 134.118 166.43 134.826 167.318C135.546 168.194 136.5 168.632 137.688 168.632C138.696 168.632 139.512 168.332 140.136 167.732C140.76 167.132 141.174 166.28 141.378 165.176L143.106 165.32C142.878 166.844 142.29 168.038 141.342 168.902C140.406 169.754 139.188 170.18 137.688 170.18ZM243.455 170V157.49H245.525L250.223 168.182L254.939 157.49H256.991V170H255.281V160.748L251.105 170H249.341L245.183 160.73V170H243.455ZM259.17 170V157.49H260.934V162.584H264.282C265.602 162.584 266.628 162.908 267.36 163.556C268.092 164.192 268.458 165.104 268.458 166.292C268.458 167.48 268.092 168.398 267.36 169.046C266.628 169.682 265.602 170 264.282 170H259.17ZM270.186 170V157.49H271.95V170H270.186ZM260.934 168.506H264.282C265.95 168.506 266.784 167.768 266.784 166.292C266.784 164.828 265.95 164.096 264.282 164.096H260.934V168.506ZM278.98 170V157.49H289.096V170H287.332V159.056H280.744V170H278.98ZM296.472 170.18C294.636 170.18 293.22 169.598 292.224 168.434C291.228 167.258 290.73 165.698 290.73 163.754C290.73 161.834 291.228 160.28 292.224 159.092C293.232 157.904 294.648 157.31 296.472 157.31C298.284 157.31 299.682 157.904 300.666 159.092C301.662 160.28 302.16 161.834 302.16 163.754C302.16 165.71 301.668 167.27 300.684 168.434C299.7 169.598 298.296 170.18 296.472 170.18ZM293.538 167.3C294.21 168.188 295.188 168.632 296.472 168.632C297.756 168.632 298.728 168.188 299.388 167.3C300.048 166.412 300.378 165.23 300.378 163.754C300.378 162.302 300.042 161.126 299.37 160.226C298.71 159.314 297.744 158.858 296.472 158.858C295.2 158.858 294.222 159.314 293.538 160.226C292.866 161.138 292.53 162.314 292.53 163.754C292.53 165.218 292.866 166.4 293.538 167.3ZM303.818 170V157.49H309.092C311.936 157.49 313.358 158.588 313.358 160.784C313.358 161.504 313.16 162.098 312.764 162.566C312.38 163.022 311.84 163.34 311.144 163.52C311.924 163.712 312.524 164.066 312.944 164.582C313.364 165.098 313.574 165.746 313.574 166.526C313.574 167.666 313.19 168.53 312.422 169.118C311.666 169.706 310.592 170 309.2 170H303.818ZM305.582 162.818H309.146C310.838 162.818 311.684 162.176 311.684 160.892C311.684 159.596 310.838 158.948 309.146 158.948H305.582V162.818ZM305.582 168.542H309.2C310.952 168.542 311.828 167.834 311.828 166.418C311.828 165.734 311.606 165.212 311.162 164.852C310.718 164.492 310.064 164.312 309.2 164.312H305.582V168.542ZM315.402 170V157.49H317.166V162.584H320.514C321.834 162.584 322.86 162.908 323.592 163.556C324.324 164.192 324.69 165.104 324.69 166.292C324.69 167.48 324.324 168.398 323.592 169.046C322.86 169.682 321.834 170 320.514 170H315.402ZM326.418 170V157.49H328.182V170H326.418ZM317.166 168.506H320.514C322.182 168.506 323.016 167.768 323.016 166.292C323.016 164.828 322.182 164.096 320.514 164.096H317.166V168.506ZM330.343 170V157.49H332.107V168.452H337.777V157.49H339.523V168.452H345.193V157.49H346.957V170H330.343ZM348.093 170L353.349 157.49H355.347L360.603 170H358.677L357.399 166.85H351.315L350.037 170H348.093ZM351.855 165.356H356.841L354.357 159.272L351.855 165.356ZM361.755 170V157.49H370.917V159.056H363.519V162.764H369.999V164.33H363.501V168.452H370.917V170H361.755ZM372.513 170V157.49H374.583L379.281 168.182L383.997 157.49H386.049V170H384.339V160.748L380.163 170H378.399L374.241 160.73V170H372.513ZM403.051 168.434H405.031V172.808H403.483V170H393.097V157.49H394.861V168.434H401.287V157.49H403.051V168.434ZM406.474 170V157.49H415.636V159.056H408.238V162.764H414.718V164.33H408.22V168.452H415.636V170H406.474ZM417.232 170V157.49H418.996V162.764H425.584V157.49H427.348V170H425.584V164.33H418.996V170H417.232ZM430.867 170.18C430.519 170.18 430.093 170.162 429.589 170.126V168.632C429.985 168.668 430.351 168.686 430.687 168.686C431.191 168.674 431.599 168.554 431.911 168.326C432.223 168.086 432.523 167.69 432.811 167.138L433.189 166.364L428.725 157.49H430.723L434.071 164.69L437.311 157.49H439.291L434.593 167.246C434.089 168.314 433.555 169.07 432.991 169.514C432.439 169.958 431.731 170.18 430.867 170.18ZM445.427 170V157.49H455.543V170H453.779V159.056H447.191V170H445.427ZM462.919 170.18C461.083 170.18 459.667 169.598 458.671 168.434C457.675 167.258 457.177 165.698 457.177 163.754C457.177 161.834 457.675 160.28 458.671 159.092C459.679 157.904 461.095 157.31 462.919 157.31C464.731 157.31 466.129 157.904 467.113 159.092C468.109 160.28 468.607 161.834 468.607 163.754C468.607 165.71 468.115 167.27 467.131 168.434C466.147 169.598 464.743 170.18 462.919 170.18ZM459.985 167.3C460.657 168.188 461.635 168.632 462.919 168.632C464.203 168.632 465.175 168.188 465.835 167.3C466.495 166.412 466.825 165.23 466.825 163.754C466.825 162.302 466.489 161.126 465.817 160.226C465.157 159.314 464.191 158.858 462.919 158.858C461.647 158.858 460.669 159.314 459.985 160.226C459.313 161.138 458.977 162.314 458.977 163.754C458.977 165.218 459.313 166.4 459.985 167.3ZM468.879 172.808V168.434H470.805C471.381 167.018 471.729 165.23 471.849 163.07L472.137 157.49H479.787V168.416L481.767 168.434V172.808H480.219V170H470.427V172.808H468.879ZM472.623 168.434H478.005V159.056H473.829L473.595 163.16C473.475 165.188 473.151 166.946 472.623 168.434ZM483.203 170V157.49H493.319V170H491.555V159.056H484.967V170H483.203ZM495.49 170V157.49H497.254V167.768L503.608 157.49H505.858V170H504.112V159.794L497.758 170H495.49ZM513.192 170.18C511.464 170.18 510.078 169.598 509.034 168.434C508.002 167.27 507.486 165.71 507.486 163.754C507.486 161.822 508.002 160.268 509.034 159.092C510.078 157.904 511.452 157.31 513.156 157.31C514.644 157.31 515.85 157.736 516.774 158.588C517.71 159.44 518.28 160.616 518.484 162.116L516.702 162.26C516.534 161.18 516.144 160.346 515.532 159.758C514.92 159.158 514.128 158.858 513.156 158.858C511.98 158.858 511.038 159.308 510.33 160.208C509.622 161.096 509.268 162.278 509.268 163.754C509.268 165.242 509.622 166.43 510.33 167.318C511.05 168.194 512.004 168.632 513.192 168.632C514.2 168.632 515.016 168.332 515.64 167.732C516.264 167.132 516.678 166.28 516.882 165.176L518.61 165.32C518.382 166.844 517.794 168.038 516.846 168.902C515.91 169.754 514.692 170.18 513.192 170.18ZM530.965 157.49L525.349 162.746L530.965 169.964V170H528.787L524.107 163.898L522.127 165.752V170H520.363V157.49H522.127V163.772L528.535 157.49H530.965ZM532.211 170V157.49H533.975V167.768L540.329 157.49H542.579V170H540.833V159.794L534.479 170H532.211Z" fill="white"/>
<path d="M154.571 170.09C153.983 170.09 153.407 170.018 152.843 169.874C152.291 169.73 151.751 169.514 151.223 169.226C150.707 168.926 150.269 168.512 149.909 167.984C149.549 167.456 149.315 166.838 149.207 166.13L151.583 165.914C151.703 166.634 152.039 167.186 152.591 167.57C153.155 167.942 153.797 168.128 154.517 168.128C155.321 168.128 155.951 167.954 156.407 167.606C156.875 167.258 157.109 166.802 157.109 166.238C157.109 165.662 156.881 165.23 156.425 164.942C155.969 164.654 155.339 164.51 154.535 164.51H153.977V162.53H154.535C155.987 162.53 156.713 162.038 156.713 161.054C156.713 160.574 156.521 160.172 156.137 159.848C155.753 159.524 155.249 159.362 154.625 159.362C153.941 159.362 153.383 159.542 152.951 159.902C152.519 160.262 152.243 160.772 152.123 161.432L149.801 161.252C149.993 160.04 150.515 159.098 151.367 158.426C152.219 157.742 153.305 157.4 154.625 157.4C155.945 157.4 157.007 157.742 157.811 158.426C158.627 159.11 159.035 159.95 159.035 160.946C159.035 161.594 158.855 162.134 158.495 162.566C158.135 162.998 157.679 163.298 157.127 163.466C157.787 163.634 158.333 163.964 158.765 164.456C159.197 164.948 159.413 165.578 159.413 166.346C159.413 167.426 158.963 168.32 158.063 169.028C157.175 169.736 156.011 170.09 154.571 170.09ZM164.928 170L170.058 157.49H172.704L177.852 170H175.278L174.144 167.066H168.636L167.502 170H164.928ZM169.302 165.122H173.442L171.39 159.866L169.302 165.122ZM178.871 170V157.49H189.473V170H187.097V159.56H181.229V170H178.871ZM191.439 170V157.49H196.713C198.201 157.49 199.353 157.826 200.169 158.498C200.985 159.158 201.393 160.148 201.393 161.468C201.393 162.788 200.985 163.778 200.169 164.438C199.353 165.098 198.201 165.428 196.713 165.428H193.797V170H191.439ZM193.797 163.394H197.001C197.697 163.394 198.225 163.22 198.585 162.872C198.957 162.524 199.143 162.056 199.143 161.468C199.143 160.892 198.957 160.424 198.585 160.064C198.213 159.704 197.685 159.524 197.001 159.524H193.797V163.394ZM202.654 170V157.49H212.23V159.542H205.012V162.53H211.276V164.564H204.976V167.93H212.23V170H202.654ZM213.113 170.054V167.876C214.121 167.876 214.853 167.504 215.309 166.76C215.777 166.016 216.047 164.93 216.119 163.502L216.425 157.49H224.813V170H222.455V159.56H218.693L218.477 163.646C218.429 164.594 218.309 165.428 218.117 166.148C217.937 166.856 217.655 167.522 217.271 168.146C216.887 168.758 216.341 169.232 215.633 169.568C214.937 169.892 214.097 170.054 213.113 170.054ZM226.406 170L229.52 164.942C228.56 164.726 227.822 164.312 227.306 163.7C226.802 163.076 226.55 162.29 226.55 161.342C226.55 160.082 226.958 159.128 227.774 158.48C228.59 157.82 229.718 157.49 231.158 157.49H236.504V170H234.146V165.14H231.734L229.052 170H226.406ZM230.924 163.16H234.146V159.47H230.924C230.24 159.47 229.712 159.644 229.34 159.992C228.98 160.328 228.8 160.778 228.8 161.342C228.8 161.894 228.98 162.338 229.34 162.674C229.712 162.998 230.24 163.16 230.924 163.16Z" fill="#FFCD9F"/>
</svg>
