<svg width="157" height="20" viewBox="0 0 157 20" fill="none" xmlns="http://www.w3.org/2000/svg">
<path d="M0.0260001 17V4.49H10.142V17H8.378V6.056H1.79V17H0.0260001ZM17.8776 17.18C16.0416 17.18 14.6256 16.598 13.6296 15.434C12.6336 14.258 12.1356 12.698 12.1356 10.754C12.1356 8.834 12.6336 7.28 13.6296 6.092C14.6376 4.904 16.0536 4.31 17.8776 4.31C19.6896 4.31 21.0876 4.904 22.0716 6.092C23.0676 7.28 23.5656 8.834 23.5656 10.754C23.5656 12.71 23.0736 14.27 22.0896 15.434C21.1056 16.598 19.7016 17.18 17.8776 17.18ZM14.9436 14.3C15.6156 15.188 16.5936 15.632 17.8776 15.632C19.1616 15.632 20.1336 15.188 20.7936 14.3C21.4536 13.412 21.7836 12.23 21.7836 10.754C21.7836 9.302 21.4476 8.126 20.7756 7.226C20.1156 6.314 19.1496 5.858 17.8776 5.858C16.6056 5.858 15.6276 6.314 14.9436 7.226C14.2716 8.138 13.9356 9.314 13.9356 10.754C13.9356 12.218 14.2716 13.4 14.9436 14.3ZM36.1573 17.18C34.4293 17.18 33.0433 16.598 31.9993 15.434C30.9673 14.27 30.4513 12.71 30.4513 10.754C30.4513 8.822 30.9673 7.268 31.9993 6.092C33.0433 4.904 34.4173 4.31 36.1213 4.31C37.6093 4.31 38.8153 4.736 39.7393 5.588C40.6753 6.44 41.2453 7.616 41.4493 9.116L39.6673 9.26C39.4993 8.18 39.1093 7.346 38.4973 6.758C37.8853 6.158 37.0933 5.858 36.1213 5.858C34.9453 5.858 34.0033 6.308 33.2953 7.208C32.5873 8.096 32.2333 9.278 32.2333 10.754C32.2333 12.242 32.5873 13.43 33.2953 14.318C34.0153 15.194 34.9693 15.632 36.1573 15.632C37.1653 15.632 37.9813 15.332 38.6053 14.732C39.2293 14.132 39.6433 13.28 39.8473 12.176L41.5753 12.32C41.3473 13.844 40.7593 15.038 39.8113 15.902C38.8753 16.754 37.6573 17.18 36.1573 17.18ZM47.1342 17V6.056H42.5622V4.49H53.4702V6.056H48.8982V17H47.1342ZM53.1502 17L58.4062 4.49H60.4042L65.6602 17H63.7342L62.4562 13.85H56.3722L55.0942 17H53.1502ZM56.9122 12.356H61.8982L59.4142 6.272L56.9122 12.356ZM67.1723 17V4.49H72.1403C73.5323 4.49 74.6183 4.814 75.3983 5.462C76.1903 6.11 76.5863 7.076 76.5863 8.36C76.5863 9.644 76.1903 10.61 75.3983 11.258C74.6183 11.894 73.5323 12.212 72.1403 12.212H68.9363V17H67.1723ZM68.9363 10.664H72.3203C73.1603 10.664 73.7963 10.472 74.2283 10.088C74.6723 9.692 74.8943 9.116 74.8943 8.36C74.8943 7.604 74.6723 7.028 74.2283 6.632C73.7963 6.236 73.1603 6.038 72.3203 6.038H68.9363V10.664ZM83.6353 17.18C81.7993 17.18 80.3833 16.598 79.3873 15.434C78.3913 14.258 77.8933 12.698 77.8933 10.754C77.8933 8.834 78.3913 7.28 79.3873 6.092C80.3953 4.904 81.8113 4.31 83.6353 4.31C85.4473 4.31 86.8453 4.904 87.8293 6.092C88.8253 7.28 89.3233 8.834 89.3233 10.754C89.3233 12.71 88.8313 14.27 87.8473 15.434C86.8633 16.598 85.4593 17.18 83.6353 17.18ZM80.7013 14.3C81.3733 15.188 82.3513 15.632 83.6353 15.632C84.9193 15.632 85.8913 15.188 86.5513 14.3C87.2113 13.412 87.5413 12.23 87.5413 10.754C87.5413 9.302 87.2053 8.126 86.5333 7.226C85.8733 6.314 84.9073 5.858 83.6353 5.858C82.3633 5.858 81.3853 6.314 80.7013 7.226C80.0293 8.138 79.6933 9.314 79.6933 10.754C79.6933 12.218 80.0293 13.4 80.7013 14.3ZM96.6695 2.96C95.8655 2.96 95.2475 2.726 94.8155 2.258C94.3835 1.778 94.1615 1.082 94.1495 0.169999H95.1935C95.2295 0.817999 95.3615 1.28 95.5895 1.556C95.8295 1.82 96.1895 1.952 96.6695 1.952C97.1495 1.952 97.5035 1.82 97.7315 1.556C97.9715 1.28 98.0975 0.817999 98.1095 0.169999H99.1715C99.1115 2.03 98.2775 2.96 96.6695 2.96ZM91.3415 17V4.49H93.1055V14.768L99.4595 4.49H101.71V17H99.9635V6.794L93.6095 17H91.3415ZM119.418 15.434H121.398V19.808H119.85V17H109.464V4.49H111.228V15.434H117.654V4.49H119.418V15.434ZM123.201 17V4.49H132.363V6.056H124.965V9.764H131.445V11.33H124.947V15.452H132.363V17H123.201ZM134.319 17V4.49H136.083V9.764H142.671V4.49H144.435V17H142.671V11.33H136.083V17H134.319ZM146.966 17V4.49H156.128V6.056H148.73V9.764H155.21V11.33H148.712V15.452H156.128V17H146.966Z" fill="white" fill-opacity="0.5"/>
</svg>
