<svg width="933" height="47" viewBox="0 0 933 47" fill="none" xmlns="http://www.w3.org/2000/svg">
<path d="M26.324 0.175998C31.256 0.175998 35.702 1.094 39.662 2.93C43.658 4.73 46.772 7.232 49.004 10.436C51.272 13.604 52.406 17.186 52.406 21.182C52.406 25.142 51.272 28.706 49.004 31.874C46.772 35.042 43.676 37.544 39.716 39.38C35.756 41.18 31.31 42.08 26.378 42.08C21.626 42.08 17.234 41.18 13.202 39.38C9.17 37.544 5.966 35.042 3.59 31.874C1.25 28.67 0.0800001 25.106 0.0800001 21.182C0.0800001 17.222 1.25 13.64 3.59 10.436C5.966 7.232 9.152 4.73 13.148 2.93C17.18 1.094 21.572 0.175998 26.324 0.175998ZM26.378 31.982C28.394 31.982 30.32 31.55 32.156 30.686C34.028 29.822 35.54 28.58 36.692 26.96C37.844 25.34 38.42 23.414 38.42 21.182C38.42 18.95 37.826 17.024 36.638 15.404C35.486 13.748 33.974 12.506 32.102 11.678C30.23 10.814 28.286 10.382 26.27 10.382C24.218 10.382 22.274 10.814 20.438 11.678C18.602 12.542 17.108 13.802 15.956 15.458C14.84 17.078 14.282 18.986 14.282 21.182C14.282 23.414 14.858 25.34 16.01 26.96C17.162 28.58 18.656 29.822 20.492 30.686C22.364 31.55 24.326 31.982 26.378 31.982ZM129.777 21.074C129.777 24.098 128.625 26.852 126.321 29.336C124.017 31.784 120.831 33.728 116.763 35.168C112.695 36.572 108.141 37.274 103.101 37.274H100.617V41H87.3326V37.274H85.2266H84.9026H84.8486C79.9886 37.274 75.4526 36.554 71.2406 35.114C67.0286 33.674 63.6446 31.73 61.0886 29.282C58.5686 26.798 57.3086 24.062 57.3086 21.074C57.3086 18.05 58.5506 15.314 61.0346 12.866C63.5546 10.418 66.9026 8.474 71.0786 7.034C75.2906 5.594 79.8266 4.856 84.6866 4.82H87.3326V1.04H100.617V4.82H103.101C108.177 4.856 112.731 5.576 116.763 6.98C120.831 8.384 124.017 10.328 126.321 12.812C128.625 15.26 129.777 18.014 129.777 21.074ZM87.3326 28.04V14.054H85.3346C81.8066 14.054 78.6566 14.612 75.8846 15.728C73.1126 16.808 71.7266 18.59 71.7266 21.074C71.7266 23.522 73.1126 25.304 75.8846 26.42C78.6926 27.5 81.8426 28.04 85.3346 28.04H87.3326ZM102.939 28.04C106.467 28.04 109.473 27.5 111.957 26.42C114.441 25.34 115.683 23.558 115.683 21.074C115.683 18.554 114.423 16.754 111.903 15.674C109.419 14.594 106.431 14.054 102.939 14.054H100.617V28.04H102.939ZM160.949 0.175998C165.881 0.175998 170.327 1.094 174.287 2.93C178.283 4.73 181.397 7.232 183.629 10.436C185.897 13.604 187.031 17.186 187.031 21.182C187.031 25.142 185.897 28.706 183.629 31.874C181.397 35.042 178.301 37.544 174.341 39.38C170.381 41.18 165.935 42.08 161.003 42.08C156.251 42.08 151.859 41.18 147.827 39.38C143.795 37.544 140.591 35.042 138.215 31.874C135.875 28.67 134.705 25.106 134.705 21.182C134.705 17.222 135.875 13.64 138.215 10.436C140.591 7.232 143.777 4.73 147.773 2.93C151.805 1.094 156.197 0.175998 160.949 0.175998ZM161.003 31.982C163.019 31.982 164.945 31.55 166.781 30.686C168.653 29.822 170.165 28.58 171.317 26.96C172.469 25.34 173.045 23.414 173.045 21.182C173.045 18.95 172.451 17.024 171.263 15.404C170.111 13.748 168.599 12.506 166.727 11.678C164.855 10.814 162.911 10.382 160.895 10.382C158.843 10.382 156.899 10.814 155.063 11.678C153.227 12.542 151.733 13.802 150.581 15.458C149.465 17.078 148.907 18.986 148.907 21.182C148.907 23.414 149.483 25.34 150.635 26.96C151.787 28.58 153.281 29.822 155.117 30.686C156.989 31.55 158.951 31.982 161.003 31.982ZM223.739 1.04C227.087 1.04 230.039 1.598 232.595 2.714C235.187 3.83 237.185 5.396 238.589 7.412C240.029 9.392 240.749 11.696 240.749 14.324V14.54C240.749 18.86 239.273 22.208 236.321 24.584C233.369 26.924 229.337 28.094 224.225 28.094H206.891V41H193.553V1.04H223.739ZM221.363 18.644C223.235 18.644 224.621 18.59 225.521 18.482C226.457 18.374 227.231 18.032 227.843 17.456C228.455 16.88 228.761 15.926 228.761 14.594C228.761 13.226 228.455 12.236 227.843 11.624C227.231 11.012 226.439 10.634 225.467 10.49C224.495 10.346 223.127 10.274 221.363 10.274H219.581C218.861 10.274 217.601 10.292 215.801 10.328C214.001 10.328 211.031 10.328 206.891 10.328V18.644H221.309H221.363ZM304.391 1.04V41H291.107V22.964L282.305 41H270.047L260.651 22.748V41H247.313V1.04H262.541L276.149 28.526L289.541 1.04H304.391ZM325.432 1.04V25.826L347.572 1.04H360.856V41H347.572V16.16L325.432 41H312.094V1.04H325.432ZM367.733 11.84V1.04H414.929L367.733 11.84ZM414.929 1.04V11.894H398.081V41H384.797V11.894H367.733V1.04H414.929ZM460.061 25.448H435.113V31.55L464.597 31.334V41H421.775V1.04H464.597L464.651 10.706H435.113V15.998H460.061V25.448ZM540.726 1.04V41H527.334V10.49H505.086V41H491.694V1.04H540.726ZM573.517 0.175998C578.449 0.175998 582.895 1.094 586.855 2.93C590.851 4.73 593.965 7.232 596.197 10.436C598.465 13.604 599.599 17.186 599.599 21.182C599.599 25.142 598.465 28.706 596.197 31.874C593.965 35.042 590.869 37.544 586.909 39.38C582.949 41.18 578.503 42.08 573.571 42.08C568.819 42.08 564.427 41.18 560.395 39.38C556.363 37.544 553.159 35.042 550.783 31.874C548.443 28.67 547.273 25.106 547.273 21.182C547.273 17.222 548.443 13.64 550.783 10.436C553.159 7.232 556.345 4.73 560.341 2.93C564.373 1.094 568.765 0.175998 573.517 0.175998ZM573.571 31.982C575.587 31.982 577.513 31.55 579.349 30.686C581.221 29.822 582.733 28.58 583.885 26.96C585.037 25.34 585.613 23.414 585.613 21.182C585.613 18.95 585.019 17.024 583.831 15.404C582.679 13.748 581.167 12.506 579.295 11.678C577.423 10.814 575.479 10.382 573.463 10.382C571.411 10.382 569.467 10.814 567.631 11.678C565.795 12.542 564.301 13.802 563.149 15.458C562.033 17.078 561.475 18.986 561.475 21.182C561.475 23.414 562.051 25.34 563.203 26.96C564.355 28.58 565.849 29.822 567.685 30.686C569.557 31.55 571.519 31.982 573.571 31.982ZM651.108 31.28H656.454V46.184H643.98V41.054L614.712 41V46.184H602.238V31.28H606.234C608.178 27.5 609.744 24.116 610.932 21.128C612.12 18.14 613.02 15.026 613.632 11.786C614.28 8.51 614.604 4.928 614.604 1.04H651.054L651.108 31.28ZM626.214 10.598C625.638 14.054 624.756 17.366 623.568 20.534C622.416 23.702 620.886 27.284 618.978 31.28H638.688V10.652L626.214 10.598ZM711.761 1.04V41H698.369V10.49H676.121V41H662.729V1.04H711.761ZM732.779 1.04V25.826L754.919 1.04H768.203V41H754.919V16.16L732.779 41H719.441V1.04H732.779ZM774.81 21.074C774.81 17.078 775.98 13.478 778.32 10.274C780.696 7.07 783.918 4.568 787.986 2.768C792.09 0.931998 796.626 0.0139966 801.594 0.0139966C806.058 0.0139966 810.09 0.733997 813.69 2.174C817.29 3.578 820.242 5.576 822.546 8.168C824.85 10.724 826.38 13.73 827.136 17.186H813.312C812.772 15.746 811.854 14.504 810.558 13.46C809.298 12.38 807.876 11.57 806.292 11.03C804.708 10.49 803.16 10.22 801.648 10.22C799.524 10.22 797.454 10.652 795.438 11.516C793.458 12.38 791.838 13.64 790.578 15.296C789.354 16.916 788.742 18.842 788.742 21.074C788.742 23.306 789.354 25.25 790.578 26.906C791.802 28.526 793.386 29.768 795.33 30.632C797.31 31.46 799.416 31.874 801.648 31.874C804.132 31.874 806.418 31.28 808.506 30.092C810.63 28.904 812.196 27.212 813.204 25.016H827.082C826.29 28.436 824.742 31.442 822.438 34.034C820.134 36.59 817.2 38.57 813.636 39.974C810.072 41.378 806.058 42.08 801.594 42.08C796.662 42.08 792.144 41.162 788.04 39.326C783.972 37.49 780.75 34.97 778.374 31.766C775.998 28.562 774.81 24.998 774.81 21.074ZM857.848 19.346L879.61 41H863.248L847.048 24.26V41H833.71V1.04H847.048V14.918L862.276 1.04H878.8L857.848 19.346ZM932.249 1.04L912.161 34.952C910.865 37.364 908.237 39.02 904.277 39.92C900.353 40.784 896.321 41.18 892.181 41.108V31.334C894.161 31.334 895.565 31.226 896.393 31.01C897.257 30.794 897.743 30.524 897.851 30.2C897.995 29.876 898.049 29.354 898.013 28.634L881.705 1.04H895.799L906.815 21.128L918.155 1.04H932.249Z" fill="white"/>
</svg>
