<svg width="427" height="124" viewBox="0 0 427 124" fill="none" xmlns="http://www.w3.org/2000/svg">
<rect x="7.17785" y="0.534441" width="420" height="93" rx="5.5" transform="rotate(4.0965 7.17785 0.534441)" stroke="white"/>
<path d="M82.0454 59.7744L85.2053 60.0007L84.5744 68.8101L77.2013 68.2821L77.4185 65.2498L60.1211 63.9789L59.9016 67.0431L52.5285 66.515L53.1594 57.7056L55.5214 57.8747C56.8304 55.7227 57.8993 53.7888 58.728 52.073C59.5567 50.3571 60.2205 48.5546 60.7194 46.6654C61.2411 44.7565 61.5843 42.6529 61.7488 40.3548L83.2937 41.8979L82.0454 59.7744ZM68.2067 46.4958C67.7199 48.5142 67.0583 50.4345 66.222 52.2568C65.407 54.0806 64.351 56.133 63.0541 58.4142L74.7042 59.2486L75.5775 47.0558L68.2067 46.4958ZM104.325 42.8908C107.24 43.0996 109.829 43.8304 112.092 45.0833C114.378 46.3164 116.113 47.9271 117.296 49.9154C118.503 51.8839 119.021 54.0492 118.852 56.4111C118.685 58.7518 117.863 60.8104 116.389 62.5869C114.935 64.365 112.999 65.7128 110.581 66.6304C108.164 67.5267 105.498 67.8704 102.583 67.6616C99.7742 67.4605 97.2162 66.7426 94.9092 65.508C92.6037 64.2521 90.8158 62.6375 89.5455 60.6644C88.298 58.6715 87.7573 56.5154 87.9234 54.196C88.0911 51.8553 88.9343 49.7876 90.453 47.9929C91.9931 46.1996 93.9822 44.8556 96.4203 43.9609C98.8813 43.0463 101.516 42.6896 104.325 42.8908ZM103.01 61.6929C104.202 61.7783 105.359 61.6045 106.481 61.1715C107.624 60.74 108.57 60.0699 109.319 59.1612C110.069 58.2524 110.491 57.1383 110.585 55.8191C110.68 54.4998 110.41 53.3362 109.777 52.3284C109.166 51.3008 108.325 50.5026 107.253 49.934C106.183 49.344 105.053 49.0064 103.861 48.9211C102.648 48.8342 101.481 49.0072 100.359 49.4402C99.2372 49.8732 98.3007 50.5547 97.5497 51.4848C96.8215 52.3951 96.4109 53.4992 96.3179 54.7972C96.2235 56.1165 96.4824 57.2793 97.0947 58.2856C97.7071 59.2919 98.5376 60.0893 99.5862 60.6777C100.656 61.2677 101.798 61.6061 103.01 61.6929ZM163.172 63.4992C162.938 66.4555 161.443 68.5193 158.686 69.6906C155.928 70.862 152.411 71.2945 148.134 70.9882C143.304 70.6422 139.671 69.5586 137.235 67.7372C134.8 65.8946 133.702 63.3135 133.939 59.994L141.408 60.529C141.291 62.1674 141.928 63.4215 143.32 64.2912C144.714 65.1396 146.444 65.627 148.509 65.7536C150.315 65.9257 151.864 65.7907 153.158 65.3486C154.473 64.9081 155.183 64.1034 155.288 62.9346C155.309 62.3373 155.182 61.879 154.905 61.5598C154.63 61.2192 154.156 60.9714 153.483 60.8162C152.811 60.6398 151.858 60.5074 150.624 60.419L144.719 59.9961L145.048 55.3999L150.953 55.8228C152.634 55.9432 153.851 55.8165 154.605 55.4427C155.359 55.069 155.758 54.5735 155.802 53.9564C155.859 53.1691 155.272 52.5496 154.043 52.098C152.836 51.6266 151.34 51.3162 149.554 51.1669C147.49 51.0191 145.718 51.1168 144.239 51.46C142.762 51.782 141.99 52.4004 141.925 53.3154L134.456 52.7805C134.675 49.7164 136.367 47.7522 139.53 46.8879C142.716 46.0039 146.181 45.696 149.926 45.9643C152.203 46.1273 154.31 46.4279 156.246 46.866C158.205 47.2844 159.892 48.0682 161.307 49.2176C162.722 50.3669 163.356 51.963 163.21 54.0057C163.061 56.0911 161.682 57.4253 159.073 58.0085C161.78 59.0364 163.148 60.8454 163.176 63.4354L163.172 63.4992ZM210.46 74.7461L202.513 74.1769L200.601 69.9656L187.227 69.0078L184.734 72.9036L176.787 72.3344L191.278 49.6316L199.353 50.21L210.46 74.7461ZM194.815 57.1355L190.481 63.8831L198.11 64.4295L194.815 57.1355ZM243.738 53.3888L242.047 77.0083L234.131 76.4414L235.423 58.4076L222.272 57.4658L220.981 75.4996L213.065 74.9327L214.757 51.3132L243.738 53.3888ZM266.121 54.9918C268.1 55.1336 269.821 55.5883 271.284 56.3562C272.769 57.1256 273.884 58.1358 274.628 59.3868C275.396 60.6181 275.724 62.0104 275.613 63.5638L275.603 63.6915C275.42 66.2449 274.406 68.1614 272.561 69.4408C270.717 70.699 268.284 71.2198 265.263 71.0034L255.017 70.2696L254.471 77.8981L246.587 77.3335L248.278 53.714L266.121 54.9918ZM263.971 65.2966C265.077 65.3758 265.899 65.4026 266.436 65.3769C266.993 65.3526 267.465 65.1833 267.851 64.8687C268.238 64.5542 268.459 64.0032 268.515 63.2159C268.573 62.4073 268.434 61.8092 268.098 61.4215C267.763 61.0339 267.31 60.7769 266.742 60.6507C266.174 60.5244 265.368 60.4239 264.325 60.3493L263.272 60.2738C262.846 60.2433 262.101 60.2006 261.035 60.1457C259.972 60.0695 258.216 59.9438 255.769 59.7685L255.417 64.684L263.939 65.2943L263.971 65.2966ZM301.651 72.0376L286.905 70.9814L286.647 74.5882L304.083 75.7087L303.674 81.422L278.363 79.6093L280.054 55.9898L305.366 57.8025L304.988 63.5182L287.529 62.2678L287.305 65.3957L302.051 66.4519L301.651 72.0376ZM337.805 60.1258L336.113 83.7453L328.23 83.1807L329.521 65.1469L321.733 64.5891C321.065 67.3431 320.404 69.7019 319.751 71.6656C319.098 73.6079 318.226 75.6308 317.134 77.7342C316.032 79.6871 314.599 80.8784 312.836 81.3082C311.096 81.7183 309.737 81.8776 308.759 81.7862C307.802 81.7177 307.259 81.6788 307.132 81.6697L307.587 75.3179C308.608 75.3911 309.398 75.2552 309.958 74.9103C310.519 74.5441 310.941 74.0183 311.226 73.3328C312.932 68.9208 314.174 63.9729 314.952 58.4891L337.805 60.1258ZM362.036 72.4162C362.155 71.0559 362.197 70.4707 362.162 70.6607L362.036 72.4162ZM367.61 85.969L360.109 85.4318L360.656 77.8034L355.517 77.4353L348.427 84.5952L339.522 83.9574L346.956 76.4693C344.903 75.8731 343.328 74.8727 342.23 73.468C341.155 72.0649 340.689 70.3526 340.834 68.3312L340.843 68.2035C340.954 66.6501 341.467 65.318 342.38 64.2071C343.317 63.0764 344.564 62.2354 346.122 61.684C347.702 61.134 349.481 60.9299 351.46 61.0717L369.302 62.3495L367.61 85.969ZM353.244 66.6213C352.158 66.5436 351.326 66.5267 350.745 66.5707C350.186 66.6162 349.711 66.8175 349.322 67.1746C348.954 67.5332 348.741 68.1275 348.681 68.9573C348.625 69.7447 348.754 70.3314 349.068 70.7175C349.406 71.0839 349.848 71.3294 350.395 71.4542C350.964 71.5804 351.79 71.6824 352.876 71.7601L352.908 71.7624L361.047 72.3453L361.41 67.2703C358.218 67.0417 355.879 66.8528 354.393 66.7036L353.244 66.6213Z" fill="white"/>
</svg>
