<svg width="225" height="59" viewBox="0 0 225 59" fill="none" xmlns="http://www.w3.org/2000/svg">
<path d="M13.156 0.343999C15.5307 0.343999 17.6713 0.785999 19.578 1.67C21.502 2.53667 23.0013 3.74133 24.076 5.284C25.168 6.80933 25.714 8.534 25.714 10.458C25.714 12.3647 25.168 14.0807 24.076 15.606C23.0013 17.1313 21.5107 18.336 19.604 19.22C17.6973 20.0867 15.5567 20.52 13.182 20.52C10.894 20.52 8.77933 20.0867 6.838 19.22C4.89667 18.336 3.354 17.1313 2.21 15.606C1.08333 14.0633 0.52 12.3473 0.52 10.458C0.52 8.55133 1.08333 6.82667 2.21 5.284C3.354 3.74133 4.888 2.53667 6.812 1.67C8.75333 0.785999 10.868 0.343999 13.156 0.343999ZM13.182 15.658C14.1527 15.658 15.08 15.45 15.964 15.034C16.8653 14.618 17.5933 14.02 18.148 13.24C18.7027 12.46 18.98 11.5327 18.98 10.458C18.98 9.38333 18.694 8.456 18.122 7.676C17.5673 6.87867 16.8393 6.28067 15.938 5.882C15.0367 5.466 14.1007 5.258 13.13 5.258C12.142 5.258 11.206 5.466 10.322 5.882C9.438 6.298 8.71867 6.90467 8.164 7.702C7.62667 8.482 7.358 9.40067 7.358 10.458C7.358 11.5327 7.63533 12.46 8.19 13.24C8.74467 14.02 9.464 14.618 10.348 15.034C11.2493 15.45 12.194 15.658 13.182 15.658ZM62.9665 10.406C62.9665 11.862 62.4118 13.188 61.3025 14.384C60.1932 15.5627 58.6592 16.4987 56.7005 17.192C54.7419 17.868 52.5492 18.206 50.1225 18.206H48.9265V20H42.5305V18.206H41.5165H41.3605H41.3345C38.9945 18.206 36.8105 17.8593 34.7825 17.166C32.7545 16.4727 31.1252 15.5367 29.8945 14.358C28.6812 13.162 28.0745 11.8447 28.0745 10.406C28.0745 8.95 28.6725 7.63267 29.8685 6.454C31.0818 5.27533 32.6938 4.33933 34.7045 3.646C36.7325 2.95267 38.9165 2.59733 41.2565 2.58H42.5305V0.76H48.9265V2.58H50.1225C52.5665 2.59733 54.7592 2.944 56.7005 3.62C58.6592 4.296 60.1932 5.232 61.3025 6.428C62.4118 7.60667 62.9665 8.93267 62.9665 10.406ZM42.5305 13.76V7.026H41.5685C39.8698 7.026 38.3532 7.29467 37.0185 7.832C35.6838 8.352 35.0165 9.21 35.0165 10.406C35.0165 11.5847 35.6838 12.4427 37.0185 12.98C38.3705 13.5 39.8872 13.76 41.5685 13.76H42.5305ZM50.0445 13.76C51.7432 13.76 53.1905 13.5 54.3865 12.98C55.5825 12.46 56.1805 11.602 56.1805 10.406C56.1805 9.19267 55.5738 8.326 54.3605 7.806C53.1645 7.286 51.7259 7.026 50.0445 7.026H48.9265V13.76H50.0445ZM77.9752 0.343999C80.3499 0.343999 82.4906 0.785999 84.3972 1.67C86.3212 2.53667 87.8206 3.74133 88.8952 5.284C89.9872 6.80933 90.5332 8.534 90.5332 10.458C90.5332 12.3647 89.9872 14.0807 88.8952 15.606C87.8206 17.1313 86.3299 18.336 84.4232 19.22C82.5166 20.0867 80.3759 20.52 78.0012 20.52C75.7132 20.52 73.5986 20.0867 71.6572 19.22C69.7159 18.336 68.1732 17.1313 67.0292 15.606C65.9026 14.0633 65.3392 12.3473 65.3392 10.458C65.3392 8.55133 65.9026 6.82667 67.0292 5.284C68.1732 3.74133 69.7072 2.53667 71.6312 1.67C73.5726 0.785999 75.6872 0.343999 77.9752 0.343999ZM78.0012 15.658C78.9719 15.658 79.8992 15.45 80.7832 15.034C81.6846 14.618 82.4126 14.02 82.9672 13.24C83.5219 12.46 83.7992 11.5327 83.7992 10.458C83.7992 9.38333 83.5132 8.456 82.9412 7.676C82.3866 6.87867 81.6586 6.28067 80.7572 5.882C79.8559 5.466 78.9199 5.258 77.9492 5.258C76.9612 5.258 76.0252 5.466 75.1412 5.882C74.2572 6.298 73.5379 6.90467 72.9832 7.702C72.4459 8.482 72.1772 9.40067 72.1772 10.458C72.1772 11.5327 72.4546 12.46 73.0092 13.24C73.5639 14.02 74.2832 14.618 75.1672 15.034C76.0686 15.45 77.0132 15.658 78.0012 15.658ZM108.208 0.76C109.82 0.76 111.241 1.02867 112.472 1.566C113.72 2.10333 114.682 2.85733 115.358 3.828C116.051 4.78133 116.398 5.89067 116.398 7.156V7.26C116.398 9.34 115.687 10.952 114.266 12.096C112.844 13.2227 110.903 13.786 108.442 13.786H100.096V20H93.6737V0.76H108.208ZM107.064 9.236C107.965 9.236 108.632 9.21 109.066 9.158C109.516 9.106 109.889 8.94133 110.184 8.664C110.478 8.38667 110.626 7.92733 110.626 7.286C110.626 6.62733 110.478 6.15067 110.184 5.856C109.889 5.56133 109.508 5.37933 109.04 5.31C108.572 5.24067 107.913 5.206 107.064 5.206H106.206C105.859 5.206 105.252 5.21467 104.386 5.232C103.519 5.232 102.089 5.232 100.096 5.232V9.236H107.038H107.064ZM147.04 0.76V20H140.644V11.316L136.406 20H130.504L125.98 11.212V20H119.558V0.76H126.89L133.442 13.994L139.89 0.76H147.04ZM157.171 0.76V12.694L167.831 0.76H174.227V20H167.831V8.04L157.171 20H150.749V0.76H157.171ZM177.538 5.96V0.76H200.262L177.538 5.96ZM200.262 0.76V5.986H192.15V20H185.754V5.986H177.538V0.76H200.262ZM221.992 12.512H209.98V15.45L224.176 15.346V20H203.558V0.76H224.176L224.202 5.414H209.98V7.962H221.992V12.512ZM24.674 36.76V56H18.226V41.31H7.514V56H1.066V36.76H24.674ZM40.4621 36.344C42.8368 36.344 44.9774 36.786 46.8841 37.67C48.8081 38.5367 50.3074 39.7413 51.3821 41.284C52.4741 42.8093 53.0201 44.534 53.0201 46.458C53.0201 48.3647 52.4741 50.0807 51.3821 51.606C50.3074 53.1313 48.8168 54.336 46.9101 55.22C45.0034 56.0867 42.8628 56.52 40.4881 56.52C38.2001 56.52 36.0854 56.0867 34.1441 55.22C32.2028 54.336 30.6601 53.1313 29.5161 51.606C28.3894 50.0633 27.8261 48.3473 27.8261 46.458C27.8261 44.5513 28.3894 42.8267 29.5161 41.284C30.6601 39.7413 32.1941 38.5367 34.1181 37.67C36.0594 36.786 38.1741 36.344 40.4621 36.344ZM40.4881 51.658C41.4588 51.658 42.3861 51.45 43.2701 51.034C44.1714 50.618 44.8994 50.02 45.4541 49.24C46.0088 48.46 46.2861 47.5327 46.2861 46.458C46.2861 45.3833 46.0001 44.456 45.4281 43.676C44.8734 42.8787 44.1454 42.2807 43.2441 41.882C42.3428 41.466 41.4068 41.258 40.4361 41.258C39.4481 41.258 38.5121 41.466 37.6281 41.882C36.7441 42.298 36.0248 42.9047 35.4701 43.702C34.9328 44.482 34.6641 45.4007 34.6641 46.458C34.6641 47.5327 34.9414 48.46 35.4961 49.24C36.0508 50.02 36.7701 50.618 37.6541 51.034C38.5554 51.45 39.5001 51.658 40.4881 51.658ZM77.8206 51.32H80.3946V58.496H74.3886V56.026L60.2966 56V58.496H54.2906V51.32H56.2146C57.1506 49.5 57.9046 47.8707 58.4766 46.432C59.0486 44.9933 59.482 43.494 59.7766 41.934C60.0886 40.3567 60.2446 38.632 60.2446 36.76H77.7946L77.8206 51.32ZM65.8346 41.362C65.5573 43.026 65.1326 44.6207 64.5606 46.146C64.006 47.6713 63.2693 49.396 62.3506 51.32H71.8406V41.388L65.8346 41.362ZM107.024 36.76V56H100.576V41.31H89.8639V56H83.4159V36.76H107.024ZM117.144 36.76V48.694L127.804 36.76H134.2V56H127.804V44.04L117.144 56H110.722V36.76H117.144ZM137.381 46.406C137.381 44.482 137.944 42.7487 139.071 41.206C140.215 39.6633 141.766 38.4587 143.725 37.592C145.701 36.708 147.885 36.266 150.277 36.266C152.426 36.266 154.368 36.6127 156.101 37.306C157.834 37.982 159.256 38.944 160.365 40.192C161.474 41.4227 162.211 42.87 162.575 44.534H155.919C155.659 43.8407 155.217 43.2427 154.593 42.74C153.986 42.22 153.302 41.83 152.539 41.57C151.776 41.31 151.031 41.18 150.303 41.18C149.28 41.18 148.284 41.388 147.313 41.804C146.36 42.22 145.58 42.8267 144.973 43.624C144.384 44.404 144.089 45.3313 144.089 46.406C144.089 47.4807 144.384 48.4167 144.973 49.214C145.562 49.994 146.325 50.592 147.261 51.008C148.214 51.4067 149.228 51.606 150.303 51.606C151.499 51.606 152.6 51.32 153.605 50.748C154.628 50.176 155.382 49.3613 155.867 48.304H162.549C162.168 49.9507 161.422 51.398 160.313 52.646C159.204 53.8767 157.791 54.83 156.075 55.506C154.359 56.182 152.426 56.52 150.277 56.52C147.902 56.52 145.727 56.078 143.751 55.194C141.792 54.31 140.241 53.0967 139.097 51.554C137.953 50.0113 137.381 48.2953 137.381 46.406ZM177.362 45.574L187.84 56H179.962L172.162 47.94V56H165.74V36.76H172.162V43.442L179.494 36.76H187.45L177.362 45.574ZM213.185 36.76L203.513 53.088C202.889 54.2493 201.624 55.0467 199.717 55.48C197.828 55.896 195.886 56.0867 193.893 56.052V51.346C194.846 51.346 195.522 51.294 195.921 51.19C196.337 51.086 196.571 50.956 196.623 50.8C196.692 50.644 196.718 50.3927 196.701 50.046L188.849 36.76H195.635L200.939 46.432L206.399 36.76H213.185Z" fill="white"/>
</svg>
