<svg xmlns="http://www.w3.org/2000/svg" width="64" height="47" viewBox="0 0 64 47" fill="none"><script xmlns=""/>
<path d="M32 46.435C49.1515 46.435 63.0556 36.5382 63.0556 24.3299C63.0556 12.1216 49.1515 2.22486 32 2.22486C14.8485 2.22486 0.944458 12.1216 0.944458 24.3299C0.944458 36.5382 14.8485 46.435 32 46.435Z" fill="black"/>
<path d="M32 44.5435C49.6731 44.5435 64 34.6467 64 22.4384C64 10.2301 49.6731 0.333336 32 0.333336C14.3269 0.333336 0 10.2301 0 22.4384C0 34.6467 14.3269 44.5435 32 44.5435Z" fill="url(#paint0_radial_5489_44)"/>
<path d="M32 37.552C46.0875 37.552 57.5077 29.8455 57.5077 20.339C57.5077 10.8326 46.0875 3.12612 32 3.12612C17.9125 3.12612 6.49231 10.8326 6.49231 20.339C6.49231 29.8455 17.9125 37.552 32 37.552Z" fill="black"/>
<path d="M27.7986 23.8523L14.3472 5.33611L36.1123 12.4112L27.7986 15.1096V23.8523Z" fill="#EC0000"/>
<path d="M48.0446 24.1546L34.5932 5.63837L56.361 12.7108L48.0446 15.4119V24.1546Z" fill="#00C1FA"/>
<path d="M42.9581 41.0896L29.504 22.5733L51.2717 29.6458L42.9581 32.3469V41.0896Z" fill="black"/>
<path d="M23.8427 40.9843L10.3914 22.4681L32.1564 29.5405L23.8427 32.2416V40.9843Z" fill="black"/>
<path d="M42.9581 38.3912L29.504 19.8749L51.2717 26.9474L42.9581 29.6485V38.3912Z" fill="#FF6BF3"/>
<path d="M23.8427 38.286L10.3914 19.7697L32.1564 26.8422L23.8427 29.5433V38.286Z" fill="#FF8946"/>
<defs>
<radialGradient id="paint0_radial_5489_44" cx="0" cy="0" r="1" gradientUnits="userSpaceOnUse" gradientTransform="translate(31.7379 18.4874) rotate(1.53) scale(34.0346 24.5049)">
<stop offset="0.56" stop-color="white"/>
<stop offset="0.8" stop-color="#BCCBDD"/>
<stop offset="0.94" stop-color="#596980"/>
<stop offset="1" stop-color="#A7B8CF"/>
</radialGradient>
</defs>
</svg>