<svg width="32" height="32" viewBox="0 0 32 32" fill="none" xmlns="http://www.w3.org/2000/svg">
<path fill-rule="evenodd" clip-rule="evenodd" d="M4.6875 4.68625C7.685 1.68675 11.7575 0 16 0C20.2425 0 24.315 1.68675 27.3125 4.68625C30.3125 7.68575 32 11.7583 32 16C32 20.2417 30.3125 24.3142 27.3125 27.3137C24.315 30.3132 20.2425 32 16 32C11.7575 32 7.685 30.3132 4.6875 27.3137C1.6875 24.3142 0 20.2417 0 16C0.000831175 11.7565 1.68691 7.68694 4.6875 4.68625ZM16.5725 11.812C15.0175 12.4593 11.9075 13.799 7.2425 15.831C6.485 16.1323 6.0875 16.427 6.0525 16.715C5.99094 17.2015 6.60024 17.3934 7.42817 17.6541C7.54172 17.6899 7.65939 17.727 7.78 17.7663C8.5975 18.0317 9.6975 18.3425 10.2675 18.3547C10.7875 18.366 11.365 18.1523 12.0025 17.7138C16.3625 14.772 18.61 13.285 18.7525 13.253C18.8525 13.2305 18.99 13.202 19.0825 13.2852C19.1775 13.3682 19.1675 13.5258 19.1575 13.568C19.0985 13.825 16.7141 16.0419 15.4733 17.1955C15.0832 17.5581 14.8062 17.8157 14.75 17.8743C14.6244 18.0047 14.4964 18.1281 14.3734 18.2467C13.6147 18.9781 13.0455 19.5268 14.405 20.4225C15.0642 20.8567 15.5904 21.2151 16.1163 21.5733C16.6813 21.9582 17.246 22.3428 17.975 22.821C18.1625 22.9439 18.3415 23.0715 18.5159 23.1958C19.1785 23.6681 19.7737 24.0924 20.51 24.0247C20.9375 23.9855 21.38 23.5835 21.6025 22.3845C22.1325 19.5508 23.175 13.4113 23.415 10.8813C23.4375 10.6598 23.41 10.376 23.39 10.2515C23.3675 10.1269 23.3225 9.94938 23.1625 9.81812C22.97 9.6625 22.675 9.62975 22.5425 9.63188C21.94 9.64275 21.0175 9.96375 16.5725 11.812Z" fill="#FF4A7A"/>
</svg>
