<svg width="100%" height="100%" viewBox="0 0 304 301" fill="none" xmlns="http://www.w3.org/2000/svg" preserveAspectRatio="none">
<path d="M304 257.437L298.052 247.441L295.374 251.953L266.539 235.744V107.942L152.8 44.1458V11.7269H158.157L152.209 1.73047L146.261 11.7269H151.617V44.1458L38.1565 107.769L37.8435 107.942V235.536L8.5913 251.953L5.91304 247.441L0 257.437H11.8957L9.21739 252.925L38.5043 236.507L152.209 300.269L265.739 236.612L294.783 252.925L292.104 257.437H304ZM265.357 108.602V235.05L219.722 209.399V134.183L152.8 96.6617V45.4995L265.357 108.602ZM152.8 98.0154L217.948 134.53L152.8 171.08V98.0154ZM151.617 171.149L86.4696 134.53L151.617 98.0154V171.149ZM85.8783 135.537L150.957 172.121L85.8783 208.601V135.537ZM151.617 173.093V246.122L86.5044 209.607L151.617 173.093ZM152.8 246.122V173.162L217.809 209.677L152.8 246.122ZM153.322 172.121L218.539 135.537V208.774L153.322 172.121ZM39.0609 108.602L151.617 45.4995V96.6617L84.6957 134.183V209.26L39.0609 234.841V108.602ZM152.209 298.985L39.687 235.883L85.3217 210.302L152.243 247.823L219.026 210.371L264.591 235.987L152.209 298.985Z" fill="url(#paint0_linear_73_16)" stroke="url(#paint1_linear_73_16)"/>
<defs>
<linearGradient id="paint0_linear_73_16" x1="206.673" y1="-9.02196" x2="-14.5777" y2="267.862" gradientUnits="userSpaceOnUse">
<stop stop-color="#FFCD9F"/>
<stop offset="0.536458" stop-color="#FF4A7A"/>
<stop offset="1" stop-color="#BB44CC"/>
</linearGradient>
<linearGradient id="paint1_linear_73_16" x1="209.797" y1="25.2721" x2="-21.9405" y2="260.62" gradientUnits="userSpaceOnUse">
<stop stop-color="#FFCD9F"/>
<stop offset="0.572917" stop-color="#FF4A7A"/>
<stop offset="1" stop-color="#BB44CC"/>
</linearGradient>
</defs>
</svg>
